SplineFontDB: 3.2
FontName: BertiogaSans-Regular
FullName: Bertioga Sans Regular
FamilyName: Bertioga Sans
Weight: Regular
Copyright: Copyright 2020 The Arimo Project Authors (https://github.com/googlefonts/arimo)\nCopyright 2020 The Libra Sans Project Authors (https://github.com/stefanpeev/libra-sans)\nCopyright 2024 The Bertioga Sans Project Authors (https://github.com/cssobral2013/bertioga-sans)
Version: 3.004
ItalicAngle: 0
UnderlinePosition: -292
UnderlineWidth: 150
Ascent: 1638
Descent: 410
InvalidEm: 0
sfntRevision: 0x000300c4
LayerCount: 2
Layer: 0 1 "Back" 1
Layer: 1 1 "Fore" 0
XUID: [1021 531 -1996577725 129111]
StyleMap: 0x0040
FSType: 0
OS2Version: 4
OS2_WeightWidthSlopeOnly: 0
OS2_UseTypoMetrics: 1
CreationTime: 1574117785
ModificationTime: 1708633436
PfmFamily: 17
TTFWeight: 400
TTFWidth: 5
LineGap: 67
VLineGap: 0
Panose: 2 11 6 4 2 2 2 2 2 4
OS2TypoAscent: 1854
OS2TypoAOffset: 0
OS2TypoDescent: -434
OS2TypoDOffset: 0
OS2TypoLinegap: 67
OS2WinAscent: 2136
OS2WinAOffset: 0
OS2WinDescent: 797
OS2WinDOffset: 0
HheadAscent: 1854
HheadAOffset: 0
HheadDescent: -434
HheadDOffset: 0
OS2SubXSize: 1331
OS2SubYSize: 1229
OS2SubXOff: 0
OS2SubYOff: 154
OS2SupXSize: 1331
OS2SupYSize: 1229
OS2SupXOff: 0
OS2SupYOff: 717
OS2StrikeYSize: 102
OS2StrikeYPos: 530
OS2CapHeight: 1409
OS2XHeight: 1082
OS2Vendor: 'GOOG'
OS2CodePages: 600001bf.dff70000
OS2UnicodeRanges: e0000aff.500078ff.00000021.00000000
Lookup: 4 1 0 "Ligature Substitution lookup 0" { "Ligature Substitution lookup 0 subtable"  } []
Lookup: 4 1 0 "'dlig' Discretionary Ligatures in Hebrew lookup 1" { "'dlig' Discretionary Ligatures in Hebrew lookup 1 subtable"  } ['dlig' ('hebr' <'dflt' > ) ]
Lookup: 4 0 0 "'ccmp' Glyph Composition/Decomposition lookup 2" { "'ccmp' Glyph Composition/Decomposition lookup 2 subtable"  } ['ccmp' ('cyrl' <'dflt' > 'grek' <'dflt' > 'latn' <'MAH ' 'dflt' > ) ]

StartChar: .notdef
Encoding: 65536 -1 0
Width: 1536
GlyphClass: 2
Flags: W
LayerCount: 2
Fore
SplineSet
1330 1409 m 1,0,-1
 1330 0 l 1,1,-1
 205 0 l 1,2,-1
 205 1409 l 1,3,-1
 1330 1409 l 1,0,-1
281 76 m 1,4,-1
 1254 76 l 1,5,-1
 1254 1333 l 1,6,-1
 281 1333 l 1,7,-1
 281 76 l 1,4,-1
EndSplineSet
EndChar

StartChar: exclam
Encoding: 33 33 4
Width: 569
GlyphClass: 2
Flags: W
LayerCount: 2
Fore
SplineSet
383 1409 m 1,0,-1
 359 397 l 1,1,-1
 211 397 l 1,2,-1
 187 1409 l 1,3,-1
 383 1409 l 1,0,-1
379 201 m 1,4,-1
 379 0 l 1,5,-1
 185 0 l 1,6,-1
 185 201 l 1,7,-1
 379 201 l 1,4,-1
EndSplineSet
EndChar

StartChar: quotedbl
Encoding: 34 34 5
Width: 727
GlyphClass: 2
Flags: W
LayerCount: 2
Fore
SplineSet
640 1409 m 1,0,-1
 618 966 l 1,1,-1
 476 966 l 1,2,-1
 456 1409 l 1,3,-1
 640 1409 l 1,0,-1
271 1409 m 1,4,-1
 249 966 l 1,5,-1
 108 966 l 1,6,-1
 87 1409 l 1,7,-1
 271 1409 l 1,4,-1
EndSplineSet
EndChar

StartChar: numbersign
Encoding: 35 35 6
Width: 1139
GlyphClass: 2
Flags: W
LayerCount: 2
Fore
SplineSet
320 408 m 1,0,-1
 236 0 l 1,1,-1
 126 0 l 1,2,-1
 210 408 l 1,3,-1
 9 408 l 1,4,-1
 9 516 l 1,5,-1
 234 516 l 1,6,-1
 312 885 l 1,7,-1
 60 885 l 1,8,-1
 60 993 l 1,9,-1
 334 993 l 1,10,-1
 423 1401 l 1,11,-1
 533 1401 l 1,12,-1
 445 993 l 1,13,-1
 808 993 l 1,14,-1
 896 1401 l 1,15,-1
 1006 1401 l 1,16,-1
 918 993 l 1,17,-1
 1129 993 l 1,18,-1
 1129 885 l 1,19,-1
 896 885 l 1,20,-1
 818 516 l 1,21,-1
 1078 516 l 1,22,-1
 1078 408 l 1,23,-1
 795 408 l 1,24,-1
 707 0 l 1,25,-1
 597 0 l 1,26,-1
 683 408 l 1,27,-1
 320 408 l 1,0,-1
345 516 m 1,28,-1
 707 516 l 1,29,-1
 785 885 l 1,30,-1
 425 885 l 1,31,-1
 345 516 l 1,28,-1
EndSplineSet
EndChar

StartChar: dollar
Encoding: 36 36 7
Width: 1139
GlyphClass: 2
Flags: W
LayerCount: 2
Fore
SplineSet
518 20 m 1,0,1
 305 29 305 29 181 119 c 128,-1,2
 57 209 57 209 22 379 c 1,3,-1
 192 416 l 1,4,5
 217 297 217 297 296.5 237 c 128,-1,6
 376 177 376 177 518 168 c 1,7,-1
 518 664 l 1,8,9
 459 679 459 679 412.5 692.5 c 128,-1,10
 366 706 366 706 331.5 719 c 128,-1,11
 297 732 297 732 274 743 c 0,12,13
 173 796 173 796 129.5 866.5 c 128,-1,14
 86 937 86 937 86 1046 c 0,15,16
 86 1201 86 1201 198.5 1288.5 c 128,-1,17
 311 1376 311 1376 518 1385 c 1,18,-1
 518 1516 l 1,19,-1
 642 1516 l 1,20,-1
 642 1385 l 1,21,22
 767 1379 767 1379 853 1344 c 128,-1,23
 939 1309 939 1309 993 1240.5 c 128,-1,24
 1047 1172 1047 1172 1075 1065 c 1,25,-1
 901 1032 l 1,26,27
 881 1126 881 1126 820 1178.5 c 128,-1,28
 759 1231 759 1231 642 1242 c 1,29,-1
 642 797 l 1,30,31
 731 776 731 776 795 756.5 c 128,-1,32
 859 737 859 737 897 720 c 0,33,34
 1011 667 1011 667 1058.5 592 c 128,-1,35
 1106 517 1106 517 1106 396 c 0,36,37
 1106 231 1106 231 985 131 c 128,-1,38
 864 31 864 31 642 20 c 1,39,-1
 642 -142 l 1,40,-1
 518 -142 l 1,41,-1
 518 20 l 1,0,1
258 1048 m 0,42,43
 258 988 258 988 283 948 c 0,44,45
 308 907 308 907 357.5 879 c 128,-1,46
 407 851 407 851 518 823 c 1,47,-1
 518 1244 l 1,48,49
 258 1230 258 1230 258 1048 c 0,42,43
934 394 m 0,50,51
 934 459 934 459 908 501 c 128,-1,52
 882 543 882 543 833 571 c 0,53,54
 784 598 784 598 642 635 c 1,55,-1
 642 167 l 1,56,57
 783 176 783 176 858.5 234 c 128,-1,58
 934 292 934 292 934 394 c 0,50,51
EndSplineSet
EndChar

StartChar: percent
Encoding: 37 37 8
Width: 1821
GlyphClass: 2
Flags: W
LayerCount: 2
Fore
SplineSet
394 1421 m 0,0,1
 707 1421 707 1421 707 975 c 0,2,3
 707 758 707 758 627.5 641 c 128,-1,4
 548 524 548 524 390 524 c 256,5,6
 232 524 232 524 152.5 640 c 128,-1,7
 73 756 73 756 73 975 c 0,8,9
 73 1198 73 1198 150 1309.5 c 128,-1,10
 227 1421 227 1421 394 1421 c 0,0,1
1451 1409 m 1,11,-1
 527 0 l 1,12,-1
 372 0 l 1,13,-1
 1294 1409 l 1,14,-1
 1451 1409 l 1,11,-1
560 975 m 0,15,16
 560 1151 560 1151 522 1232 c 128,-1,17
 484 1313 484 1313 394 1313 c 0,18,19
 300 1313 300 1313 260 1233.5 c 128,-1,20
 220 1154 220 1154 220 975 c 0,21,22
 220 802 220 802 260 719.5 c 128,-1,23
 300 637 300 637 392 637 c 0,24,25
 479 637 479 637 519.5 721 c 128,-1,26
 560 805 560 805 560 975 c 0,15,16
1748 434 m 0,27,28
 1748 219 1748 219 1667 103.5 c 128,-1,29
 1586 -12 1586 -12 1428 -12 c 0,30,31
 1272 -12 1272 -12 1192.5 100.5 c 128,-1,32
 1113 213 1113 213 1113 434 c 0,33,34
 1113 662 1113 662 1189.5 773.5 c 128,-1,35
 1266 885 1266 885 1432 885 c 0,36,37
 1596 885 1596 885 1672 770.5 c 128,-1,38
 1748 656 1748 656 1748 434 c 0,27,28
1600 434 m 0,39,40
 1600 613 1600 613 1561.5 693.5 c 128,-1,41
 1523 774 1523 774 1432 774 c 256,42,43
 1341 774 1341 774 1300.5 695 c 128,-1,44
 1260 616 1260 616 1260 434 c 0,45,46
 1260 263 1260 263 1299.5 180.5 c 128,-1,47
 1339 98 1339 98 1430 98 c 0,48,49
 1518 98 1518 98 1559 181.5 c 128,-1,50
 1600 265 1600 265 1600 434 c 0,39,40
EndSplineSet
EndChar

StartChar: ampersand
Encoding: 38 38 9
Width: 1366
GlyphClass: 2
Flags: W
LayerCount: 2
Fore
SplineSet
72 371 m 0,0,1
 72 510 72 510 157.5 617 c 128,-1,2
 243 724 243 724 415 800 c 1,3,4
 382 862 382 862 358 947 c 128,-1,5
 334 1032 334 1032 334 1102 c 0,6,7
 334 1252 334 1252 425.5 1334.5 c 128,-1,8
 517 1417 517 1417 685 1417 c 0,9,10
 836 1417 836 1417 928.5 1341 c 128,-1,11
 1021 1265 1021 1265 1021 1133 c 0,12,13
 1021 1063 1021 1063 989.5 1002.5 c 128,-1,14
 958 942 958 942 887 886 c 0,15,16
 838 849 838 849 770.5 813 c 128,-1,17
 703 777 703 777 612 741 c 1,18,19
 721 538 721 538 905 329 c 1,20,21
 1018 496 1018 496 1076 739 c 1,22,-1
 1221 696 l 1,23,24
 1159 449 1159 449 1009 227 c 1,25,26
 1105 129 1105 129 1217 129 c 0,27,28
 1289 129 1289 129 1334 145 c 1,29,-1
 1334 10 l 1,30,31
 1280 -12 1280 -12 1193 -12 c 0,32,33
 1105 -12 1105 -12 1030.5 19.5 c 128,-1,34
 956 51 956 51 895 115 c 1,35,36
 740 -20 740 -20 523 -20 c 0,37,38
 308 -20 308 -20 190 83.5 c 128,-1,39
 72 187 72 187 72 371 c 0,0,1
869 1133 m 0,40,41
 869 1205 869 1205 819 1250.5 c 128,-1,42
 769 1296 769 1296 683 1296 c 0,43,44
 587 1296 587 1296 537 1244.5 c 128,-1,45
 487 1193 487 1193 487 1102 c 0,46,47
 487 990 487 990 552 858 c 1,48,49
 683 911 683 911 745 950 c 256,50,51
 807 989 807 989 838 1034 c 128,-1,52
 869 1079 869 1079 869 1133 c 0,40,41
795 217 m 1,53,54
 696 334 696 334 616.5 448 c 128,-1,55
 537 562 537 562 476 674 c 1,56,57
 240 573 240 573 240 373 c 0,58,59
 240 252 240 252 317.5 181.5 c 128,-1,60
 395 111 395 111 529 111 c 0,61,62
 600 111 600 111 671 138.5 c 128,-1,63
 742 166 742 166 795 217 c 1,53,54
EndSplineSet
EndChar

StartChar: quotesingle
Encoding: 39 39 10
Width: 391
GlyphClass: 2
Flags: W
LayerCount: 2
Fore
SplineSet
288 1409 m 1,0,-1
 266 966 l 1,1,-1
 125 966 l 1,2,-1
 104 1409 l 1,3,-1
 288 1409 l 1,0,-1
EndSplineSet
EndChar

StartChar: parenleft
Encoding: 40 40 11
Width: 682
GlyphClass: 2
Flags: W
LayerCount: 2
Fore
SplineSet
496 -424 m 1,0,1
 370 -288 370 -288 288 -141 c 128,-1,2
 206 6 206 6 166.5 171.5 c 128,-1,3
 127 337 127 337 127 528 c 0,4,5
 127 723 127 723 167 889 c 128,-1,6
 207 1055 207 1055 289 1202 c 128,-1,7
 371 1349 371 1349 496 1484 c 1,8,-1
 670 1484 l 1,9,10
 483 1276 483 1276 395.5 1042 c 128,-1,11
 308 808 308 808 308 530 c 0,12,13
 308 346 308 346 346 181 c 128,-1,14
 384 16 384 16 464 -133.5 c 128,-1,15
 544 -283 544 -283 670 -424 c 1,16,-1
 496 -424 l 1,0,1
EndSplineSet
EndChar

StartChar: parenright
Encoding: 41 41 12
Width: 682
GlyphClass: 2
Flags: W
LayerCount: 2
Fore
SplineSet
12 -424 m 1,0,1
 138 -284 138 -284 218 -134.5 c 128,-1,2
 298 15 298 15 336 179.5 c 128,-1,3
 374 344 374 344 374 530 c 0,4,5
 374 809 374 809 286.5 1042 c 128,-1,6
 199 1275 199 1275 12 1484 c 1,7,-1
 186 1484 l 1,8,9
 312 1348 312 1348 393.5 1201 c 128,-1,10
 475 1054 475 1054 515 889 c 128,-1,11
 555 724 555 724 555 532 c 0,12,13
 555 338 555 338 515 171.5 c 128,-1,14
 475 5 475 5 393.5 -141.5 c 128,-1,15
 312 -288 312 -288 186 -424 c 1,16,-1
 12 -424 l 1,0,1
EndSplineSet
EndChar

StartChar: asterisk
Encoding: 42 42 13
Width: 797
GlyphClass: 2
Flags: W
LayerCount: 2
Fore
SplineSet
668 762 m 1,0,-1
 549 690 l 1,1,-1
 399 948 l 1,2,-1
 243 692 l 1,3,-1
 124 764 l 1,4,-1
 313 1012 l 1,5,-1
 33 1085 l 1,6,-1
 78 1219 l 1,7,-1
 345 1112 l 1,8,-1
 333 1409 l 1,9,-1
 469 1409 l 1,10,-1
 456 1114 l 1,11,-1
 720 1217 l 1,12,-1
 765 1085 l 1,13,-1
 483 1012 l 1,14,-1
 668 762 l 1,0,-1
EndSplineSet
EndChar

StartChar: plus
Encoding: 43 43 14
Width: 1196
GlyphClass: 2
Flags: W
LayerCount: 2
Fore
SplineSet
671 608 m 1,0,-1
 671 180 l 1,1,-1
 524 180 l 1,2,-1
 524 608 l 1,3,-1
 100 608 l 1,4,-1
 100 754 l 1,5,-1
 524 754 l 1,6,-1
 524 1182 l 1,7,-1
 671 1182 l 1,8,-1
 671 754 l 1,9,-1
 1095 754 l 1,10,-1
 1095 608 l 1,11,-1
 671 608 l 1,0,-1
EndSplineSet
EndChar

StartChar: comma
Encoding: 44 44 15
Width: 569
GlyphClass: 2
Flags: W
LayerCount: 2
Fore
SplineSet
385 51 m 2,0,1
 385 -55 385 -55 366 -126 c 128,-1,2
 347 -197 347 -197 307 -262 c 1,3,-1
 184 -262 l 1,4,5
 231 -194 231 -194 254.5 -128.5 c 128,-1,6
 278 -63 278 -63 278 0 c 1,7,-1
 190 0 l 1,8,-1
 190 219 l 1,9,-1
 385 219 l 1,10,-1
 385 51 l 2,0,1
EndSplineSet
EndChar

StartChar: hyphen
Encoding: 45 45 16
AltUni2: 0000ad.ffffffff.0
Width: 682
GlyphClass: 2
Flags: W
LayerCount: 2
Fore
SplineSet
591 624 m 1,0,-1
 591 464 l 1,1,-1
 91 464 l 1,2,-1
 91 624 l 1,3,-1
 591 624 l 1,0,-1
EndSplineSet
EndChar

StartChar: period
Encoding: 46 46 17
Width: 569
GlyphClass: 2
Flags: W
LayerCount: 2
Fore
SplineSet
382 219 m 1,0,-1
 382 0 l 1,1,-1
 187 0 l 1,2,-1
 187 219 l 1,3,-1
 382 219 l 1,0,-1
EndSplineSet
EndChar

StartChar: slash
Encoding: 47 47 18
Width: 569
GlyphClass: 2
Flags: W
LayerCount: 2
Fore
SplineSet
569 1484 m 1,0,-1
 162 -20 l 1,1,-1
 0 -20 l 1,2,-1
 411 1484 l 1,3,-1
 569 1484 l 1,0,-1
EndSplineSet
EndChar

StartChar: zero
Encoding: 48 48 19
Width: 1139
GlyphClass: 2
Flags: W
LayerCount: 2
Fore
SplineSet
1059 705 m 0,0,1
 1059 352 1059 352 934.5 166 c 128,-1,2
 810 -20 810 -20 567 -20 c 256,3,4
 324 -20 324 -20 202 165 c 128,-1,5
 80 350 80 350 80 705 c 0,6,7
 80 1068 80 1068 198.5 1249 c 128,-1,8
 317 1430 317 1430 573 1430 c 0,9,10
 822 1430 822 1430 940.5 1247 c 128,-1,11
 1059 1064 1059 1064 1059 705 c 0,0,1
876 705 m 0,12,13
 876 909 876 909 845.5 1036.5 c 128,-1,14
 815 1164 815 1164 748 1224 c 128,-1,15
 681 1284 681 1284 573 1284 c 0,16,17
 463 1284 463 1284 394 1225 c 128,-1,18
 325 1166 325 1166 293.5 1038.5 c 128,-1,19
 262 911 262 911 262 705 c 0,20,21
 262 505 262 505 294.5 377 c 128,-1,22
 327 249 327 249 395 188 c 128,-1,23
 463 127 463 127 569 127 c 0,24,25
 728 127 728 127 802 269 c 128,-1,26
 876 411 876 411 876 705 c 0,12,13
EndSplineSet
EndChar

StartChar: one
Encoding: 49 49 20
Width: 1139
GlyphClass: 2
Flags: W
LayerCount: 2
Fore
SplineSet
1039 153 m 1,0,-1
 1039 0 l 1,1,-1
 156 0 l 1,2,-1
 156 153 l 1,3,-1
 515 153 l 1,4,-1
 515 1237 l 1,5,-1
 197 1010 l 1,6,-1
 197 1180 l 1,7,-1
 530 1409 l 1,8,-1
 696 1409 l 1,9,-1
 696 153 l 1,10,-1
 1039 153 l 1,0,-1
EndSplineSet
EndChar

StartChar: two
Encoding: 50 50 21
Width: 1139
GlyphClass: 2
Flags: W
LayerCount: 2
Fore
SplineSet
1036 153 m 1,0,-1
 1036 0 l 1,1,-1
 103 0 l 1,2,-1
 103 127 l 1,3,4
 154 244 154 244 226.5 334 c 128,-1,5
 299 424 299 424 381 496 c 128,-1,6
 463 568 463 568 523 614.5 c 128,-1,7
 583 661 583 661 618.5 692 c 128,-1,8
 654 723 654 723 702 769.5 c 128,-1,9
 750 816 750 816 789.5 884 c 128,-1,10
 829 952 829 952 829 1038 c 0,11,12
 829 1154 829 1154 761 1218 c 128,-1,13
 693 1282 693 1282 572 1282 c 0,14,15
 457 1282 457 1282 382.5 1219.5 c 128,-1,16
 308 1157 308 1157 295 1044 c 1,17,-1
 111 1061 l 1,18,19
 131 1230 131 1230 254.5 1330 c 128,-1,20
 378 1430 378 1430 572 1430 c 0,21,22
 785 1430 785 1430 899.5 1329.5 c 128,-1,23
 1014 1229 1014 1229 1014 1044 c 0,24,25
 1014 962 1014 962 976.5 881 c 128,-1,26
 939 800 939 800 883.5 739.5 c 128,-1,27
 828 679 828 679 757 616 c 128,-1,28
 686 553 686 553 576.5 463.5 c 128,-1,29
 467 374 467 374 399 298.5 c 128,-1,30
 331 223 331 223 301 153 c 1,31,-1
 1036 153 l 1,0,-1
EndSplineSet
EndChar

StartChar: three
Encoding: 51 51 22
Width: 1139
GlyphClass: 2
Flags: W
LayerCount: 2
Fore
SplineSet
1049 389 m 0,0,1
 1049 194 1049 194 925 87 c 128,-1,2
 801 -20 801 -20 571 -20 c 0,3,4
 357 -20 357 -20 229.5 76.5 c 128,-1,5
 102 173 102 173 78 362 c 1,6,-1
 264 379 l 1,7,8
 300 129 300 129 571 129 c 0,9,10
 707 129 707 129 784.5 196 c 128,-1,11
 862 263 862 263 862 395 c 0,12,13
 862 510 862 510 773.5 574.5 c 128,-1,14
 685 639 685 639 518 639 c 2,15,-1
 416 639 l 1,16,-1
 416 795 l 1,17,-1
 514 795 l 2,18,19
 662 795 662 795 743.5 859.5 c 128,-1,20
 825 924 825 924 825 1038 c 0,21,22
 825 1151 825 1151 758.5 1216.5 c 128,-1,23
 692 1282 692 1282 561 1282 c 0,24,25
 442 1282 442 1282 368.5 1221 c 128,-1,26
 295 1160 295 1160 283 1049 c 1,27,-1
 102 1063 l 1,28,29
 122 1236 122 1236 245.5 1333 c 128,-1,30
 369 1430 369 1430 563 1430 c 0,31,32
 775 1430 775 1430 892.5 1331.5 c 128,-1,33
 1010 1233 1010 1233 1010 1057 c 0,34,35
 1010 922 1010 922 934.5 837.5 c 128,-1,36
 859 753 859 753 715 723 c 1,37,-1
 715 719 l 1,38,39
 873 702 873 702 961 613 c 128,-1,40
 1049 524 1049 524 1049 389 c 0,0,1
EndSplineSet
EndChar

StartChar: four
Encoding: 52 52 23
Width: 1139
GlyphClass: 2
Flags: W
LayerCount: 2
Fore
SplineSet
881 319 m 1,0,-1
 881 0 l 1,1,-1
 711 0 l 1,2,-1
 711 319 l 1,3,-1
 47 319 l 1,4,-1
 47 459 l 1,5,-1
 692 1409 l 1,6,-1
 881 1409 l 1,7,-1
 881 461 l 1,8,-1
 1079 461 l 1,9,-1
 1079 319 l 1,10,-1
 881 319 l 1,0,-1
213 461 m 1,11,-1
 711 461 l 1,12,-1
 711 1023 l 2,13,14
 711 1069 711 1069 711.5 1114.5 c 128,-1,15
 712 1160 712 1160 715 1206 c 1,16,17
 692 1162 692 1162 675 1134.5 c 128,-1,18
 658 1107 658 1107 644 1087 c 2,19,-1
 213 461 l 1,11,-1
EndSplineSet
EndChar

StartChar: five
Encoding: 53 53 24
Width: 1139
GlyphClass: 2
Flags: W
LayerCount: 2
Fore
SplineSet
1053 459 m 0,0,1
 1053 236 1053 236 920.5 108 c 128,-1,2
 788 -20 788 -20 553 -20 c 0,3,4
 356 -20 356 -20 235 66 c 128,-1,5
 114 152 114 152 82 315 c 1,6,-1
 264 336 l 1,7,8
 293 232 293 232 366 179.5 c 128,-1,9
 439 127 439 127 557 127 c 0,10,11
 702 127 702 127 784 214.5 c 128,-1,12
 866 302 866 302 866 455 c 0,13,14
 866 588 866 588 783.5 670 c 128,-1,15
 701 752 701 752 561 752 c 0,16,17
 488 752 488 752 425 729 c 128,-1,18
 362 706 362 706 299 651 c 1,19,-1
 123 651 l 1,20,-1
 170 1409 l 1,21,-1
 971 1409 l 1,22,-1
 971 1256 l 1,23,-1
 334 1256 l 1,24,-1
 307 809 l 1,25,26
 424 899 424 899 598 899 c 0,27,28
 737 899 737 899 839 843.5 c 128,-1,29
 941 788 941 788 997 689 c 128,-1,30
 1053 590 1053 590 1053 459 c 0,0,1
EndSplineSet
EndChar

StartChar: six
Encoding: 54 54 25
Width: 1139
GlyphClass: 2
Flags: W
LayerCount: 2
Fore
SplineSet
1049 461 m 0,0,1
 1049 238 1049 238 928 109 c 128,-1,2
 807 -20 807 -20 594 -20 c 0,3,4
 356 -20 356 -20 230 157 c 128,-1,5
 104 334 104 334 104 672 c 0,6,7
 104 1038 104 1038 235 1234 c 128,-1,8
 366 1430 366 1430 608 1430 c 0,9,10
 768 1430 768 1430 868.5 1358 c 128,-1,11
 969 1286 969 1286 1010 1143 c 1,12,-1
 838 1112 l 1,13,14
 786 1284 786 1284 606 1284 c 0,15,16
 452 1284 452 1284 367.5 1140.5 c 128,-1,17
 283 997 283 997 283 725 c 1,18,19
 332 816 332 816 421 863.5 c 128,-1,20
 510 911 510 911 625 911 c 0,21,22
 820 911 820 911 934.5 789 c 128,-1,23
 1049 667 1049 667 1049 461 c 0,0,1
866 453 m 256,24,25
 866 606 866 606 791 689 c 128,-1,26
 716 772 716 772 582 772 c 0,27,28
 456 772 456 772 378.5 698.5 c 128,-1,29
 301 625 301 625 301 496 c 0,30,31
 301 388 301 388 338 304 c 128,-1,32
 375 220 375 220 439.5 172.5 c 128,-1,33
 504 125 504 125 588 125 c 0,34,35
 718 125 718 125 792 212.5 c 128,-1,36
 866 300 866 300 866 453 c 256,24,25
EndSplineSet
EndChar

StartChar: seven
Encoding: 55 55 26
Width: 1139
GlyphClass: 2
Flags: W
LayerCount: 2
Fore
SplineSet
1036 1263 m 1,0,1
 928 1098 928 1098 851.5 969 c 128,-1,2
 775 840 775 840 731 746 c 0,3,4
 642 559 642 559 597.5 377 c 128,-1,5
 553 195 553 195 553 0 c 1,6,-1
 365 0 l 1,7,8
 365 140 365 140 394 284.5 c 128,-1,9
 423 429 423 429 487 588 c 0,10,11
 547 737 547 737 639.5 902.5 c 128,-1,12
 732 1068 732 1068 862 1256 c 1,13,-1
 105 1256 l 1,14,-1
 105 1409 l 1,15,-1
 1036 1409 l 1,16,-1
 1036 1263 l 1,0,1
EndSplineSet
EndChar

StartChar: eight
Encoding: 56 56 27
Width: 1139
GlyphClass: 2
Flags: W
LayerCount: 2
Fore
SplineSet
1050 393 m 0,0,1
 1050 198 1050 198 926 89 c 128,-1,2
 802 -20 802 -20 570 -20 c 0,3,4
 344 -20 344 -20 216.5 87 c 128,-1,5
 89 194 89 194 89 391 c 0,6,7
 89 529 89 529 168 623 c 128,-1,8
 247 717 247 717 370 737 c 1,9,-1
 370 741 l 1,10,11
 255 768 255 768 188.5 858 c 128,-1,12
 122 948 122 948 122 1069 c 0,13,14
 122 1230 122 1230 242.5 1330 c 128,-1,15
 363 1430 363 1430 566 1430 c 0,16,17
 774 1430 774 1430 894.5 1332 c 128,-1,18
 1015 1234 1015 1234 1015 1067 c 0,19,20
 1015 946 1015 946 948 856 c 128,-1,21
 881 766 881 766 765 743 c 1,22,-1
 765 739 l 1,23,24
 900 717 900 717 975 624.5 c 128,-1,25
 1050 532 1050 532 1050 393 c 0,0,1
828 1057 m 0,26,27
 828 1296 828 1296 566 1296 c 0,28,29
 306 1296 306 1296 306 1057 c 0,30,31
 306 936 306 936 374.5 872.5 c 128,-1,32
 443 809 443 809 568 809 c 0,33,34
 695 809 695 809 761.5 867.5 c 128,-1,35
 828 926 828 926 828 1057 c 0,26,27
863 410 m 0,36,37
 863 541 863 541 785 607.5 c 128,-1,38
 707 674 707 674 566 674 c 0,39,40
 429 674 429 674 352 602.5 c 128,-1,41
 275 531 275 531 275 406 c 0,42,43
 275 261 275 261 349.5 188 c 128,-1,44
 424 115 424 115 572 115 c 0,45,46
 719 115 719 115 791 185.5 c 128,-1,47
 863 256 863 256 863 410 c 0,36,37
EndSplineSet
EndChar

StartChar: nine
Encoding: 57 57 28
Width: 1139
GlyphClass: 2
Flags: W
LayerCount: 2
Fore
SplineSet
1042 733 m 0,0,1
 1042 370 1042 370 909.5 175 c 128,-1,2
 777 -20 777 -20 532 -20 c 0,3,4
 367 -20 367 -20 267.5 49.5 c 128,-1,5
 168 119 168 119 125 274 c 1,6,-1
 297 301 l 1,7,8
 351 125 351 125 535 125 c 0,9,10
 690 125 690 125 775 269 c 128,-1,11
 860 413 860 413 864 680 c 1,12,13
 824 590 824 590 727 535.5 c 128,-1,14
 630 481 630 481 514 481 c 0,15,16
 388 481 388 481 294 540 c 128,-1,17
 200 599 200 599 148 706 c 128,-1,18
 96 813 96 813 96 956 c 0,19,20
 96 1177 96 1177 220 1303.5 c 128,-1,21
 344 1430 344 1430 565 1430 c 0,22,23
 800 1430 800 1430 921 1256 c 128,-1,24
 1042 1082 1042 1082 1042 733 c 0,0,1
846 907 m 0,25,26
 846 1077 846 1077 768 1180.5 c 128,-1,27
 690 1284 690 1284 559 1284 c 0,28,29
 429 1284 429 1284 354 1195.5 c 128,-1,30
 279 1107 279 1107 279 956 c 0,31,32
 279 802 279 802 354 712.5 c 128,-1,33
 429 623 429 623 557 623 c 0,34,35
 635 623 635 623 700.5 659 c 128,-1,36
 766 695 766 695 806 759.5 c 128,-1,37
 846 824 846 824 846 907 c 0,25,26
EndSplineSet
EndChar

StartChar: colon
Encoding: 58 58 29
Width: 569
GlyphClass: 2
Flags: W
LayerCount: 2
Fore
SplineSet
382 1082 m 1,0,-1
 382 875 l 1,1,-1
 187 875 l 1,2,-1
 187 1082 l 1,3,-1
 382 1082 l 1,0,-1
382 207 m 1,4,-1
 382 0 l 1,5,-1
 187 0 l 1,6,-1
 187 207 l 1,7,-1
 382 207 l 1,4,-1
EndSplineSet
EndChar

StartChar: semicolon
Encoding: 59 59 30
AltUni2: 00037e.ffffffff.0
Width: 569
GlyphClass: 2
Flags: W
LayerCount: 2
Fore
SplineSet
385 1082 m 1,0,-1
 385 875 l 1,1,-1
 190 875 l 1,2,-1
 190 1082 l 1,3,-1
 385 1082 l 1,0,-1
385 51 m 2,4,5
 385 -55 385 -55 366 -126 c 128,-1,6
 347 -197 347 -197 307 -262 c 1,7,-1
 184 -262 l 1,8,9
 231 -194 231 -194 254.5 -128.5 c 128,-1,10
 278 -63 278 -63 278 0 c 1,11,-1
 190 0 l 1,12,-1
 190 207 l 1,13,-1
 385 207 l 1,14,-1
 385 51 l 2,4,5
EndSplineSet
EndChar

StartChar: less
Encoding: 60 60 31
Width: 1196
GlyphClass: 2
Flags: W
LayerCount: 2
Fore
SplineSet
1096 307 m 1,0,-1
 1096 154 l 1,1,-1
 101 571 l 1,2,-1
 101 776 l 1,3,-1
 1096 1194 l 1,4,-1
 1096 1040 l 1,5,-1
 238 674 l 1,6,-1
 1096 307 l 1,0,-1
EndSplineSet
EndChar

StartChar: equal
Encoding: 61 61 32
Width: 1196
GlyphClass: 2
Flags: W
LayerCount: 2
Fore
SplineSet
1095 1004 m 1,0,-1
 1095 856 l 1,1,-1
 100 856 l 1,2,-1
 100 1004 l 1,3,-1
 1095 1004 l 1,0,-1
1095 492 m 1,4,-1
 1095 344 l 1,5,-1
 100 344 l 1,6,-1
 100 492 l 1,7,-1
 1095 492 l 1,4,-1
EndSplineSet
EndChar

StartChar: greater
Encoding: 62 62 33
Width: 1196
GlyphClass: 2
Flags: W
LayerCount: 2
Fore
SplineSet
1096 571 m 1,0,-1
 101 154 l 1,1,-1
 101 307 l 1,2,-1
 959 674 l 1,3,-1
 101 1040 l 1,4,-1
 101 1194 l 1,5,-1
 1096 776 l 1,6,-1
 1096 571 l 1,0,-1
EndSplineSet
EndChar

StartChar: question
Encoding: 63 63 34
Width: 1139
GlyphClass: 2
Flags: W
LayerCount: 2
Fore
SplineSet
1063 1032 m 0,0,1
 1063 919 1063 919 1014.5 840 c 128,-1,2
 966 761 966 761 844 671 c 2,3,-1
 764 612 l 2,4,5
 622 510 622 510 621 377 c 1,6,-1
 446 377 l 1,7,8
 449 469 449 469 481.5 532 c 128,-1,9
 514 595 514 595 564 639.5 c 128,-1,10
 614 684 614 684 667 722 c 0,11,12
 724 763 724 763 773 803 c 128,-1,13
 822 843 822 843 851.5 895 c 128,-1,14
 881 947 881 947 881 1024 c 0,15,16
 881 1138 881 1138 803.5 1204 c 128,-1,17
 726 1270 726 1270 586 1270 c 256,18,19
 446 1270 446 1270 364 1200 c 128,-1,20
 282 1130 282 1130 268 1008 c 1,21,-1
 84 1020 l 1,22,23
 110 1218 110 1218 240 1324 c 128,-1,24
 370 1430 370 1430 584 1430 c 0,25,26
 807 1430 807 1430 935 1324.5 c 128,-1,27
 1063 1219 1063 1219 1063 1032 c 0,0,1
633 201 m 1,28,-1
 633 0 l 1,29,-1
 438 0 l 1,30,-1
 438 201 l 1,31,-1
 633 201 l 1,28,-1
EndSplineSet
EndChar

StartChar: at
Encoding: 64 64 35
Width: 2079
GlyphClass: 2
Flags: W
LayerCount: 2
Fore
SplineSet
1902 755 m 0,0,1
 1902 569 1902 569 1845 419 c 0,2,3
 1787 268 1787 268 1684.5 186 c 128,-1,4
 1582 104 1582 104 1455 104 c 0,5,6
 1356 104 1356 104 1302 148 c 128,-1,7
 1248 192 1248 192 1248 280 c 0,8,9
 1249 297 1249 297 1249.5 315 c 128,-1,10
 1250 333 1250 333 1251 350 c 1,11,-1
 1245 350 l 1,12,13
 1179 227 1179 227 1081.5 165.5 c 128,-1,14
 984 104 984 104 871 104 c 0,15,16
 714 104 714 104 627.5 206 c 128,-1,17
 541 308 541 308 541 489 c 0,18,19
 541 652 541 652 606 794 c 0,20,21
 671 935 671 935 786.5 1018 c 128,-1,22
 902 1101 902 1101 1043 1101 c 0,23,24
 1261 1101 1261 1101 1344 919 c 1,25,-1
 1350 919 l 1,26,-1
 1389 1079 l 1,27,-1
 1545 1079 l 1,28,-1
 1429 573 l 2,29,30
 1392 412 1392 412 1392 320 c 0,31,32
 1392 273 1392 273 1412.5 249.5 c 128,-1,33
 1433 226 1433 226 1473 226 c 0,34,35
 1554 226 1554 226 1621 295 c 0,36,37
 1689 364 1689 364 1727.5 485 c 128,-1,38
 1766 606 1766 606 1766 753 c 0,39,40
 1766 931 1766 931 1689 1071 c 0,41,42
 1612 1209 1612 1209 1467 1283.5 c 128,-1,43
 1322 1358 1322 1358 1128 1358 c 0,44,45
 887 1358 887 1358 700 1251 c 0,46,47
 514 1144 514 1144 408 942.5 c 128,-1,48
 302 741 302 741 302 491 c 0,49,50
 302 297 302 297 381 151 c 0,51,52
 459 3 459 3 607.5 -76 c 128,-1,53
 756 -155 756 -155 954 -155 c 0,54,55
 1099 -155 1099 -155 1248 -117.5 c 128,-1,56
 1397 -80 1397 -80 1557 7 c 1,57,-1
 1612 -105 l 1,58,59
 1467 -192 1467 -192 1297.5 -237.5 c 128,-1,60
 1128 -283 1128 -283 954 -283 c 0,61,62
 713 -283 713 -283 533 -187 c 0,63,64
 352 -92 352 -92 256.5 84.5 c 128,-1,65
 161 261 161 261 161 491 c 0,66,67
 161 770 161 770 286 1000 c 0,68,69
 411 1229 411 1229 631.5 1356.5 c 128,-1,70
 852 1484 852 1484 1126 1484 c 0,71,72
 1367 1484 1367 1484 1542 1394 c 0,73,74
 1717 1303 1717 1303 1809.5 1138 c 128,-1,75
 1902 973 1902 973 1902 755 c 0,0,1
1296 747 m 0,76,77
 1296 849 1296 849 1230 911.5 c 128,-1,78
 1164 974 1164 974 1054 974 c 0,79,80
 953 974 953 974 874 910 c 0,81,82
 796 847 796 847 751 734.5 c 128,-1,83
 706 622 706 622 706 491 c 0,84,85
 706 371 706 371 753.5 303 c 128,-1,86
 801 235 801 235 900 235 c 0,87,88
 978 235 978 235 1049.5 278 c 128,-1,89
 1121 321 1121 321 1176 394 c 0,90,91
 1215 446 1215 446 1241.5 513 c 128,-1,92
 1268 580 1268 580 1282 643.5 c 128,-1,93
 1296 707 1296 707 1296 747 c 0,76,77
EndSplineSet
EndChar

StartChar: A
Encoding: 65 65 36
Width: 1366
GlyphClass: 2
Flags: W
LayerCount: 2
Fore
SplineSet
364 412 m 1,0,-1
 202 0 l 1,1,-1
 4 0 l 1,2,-1
 579 1409 l 1,3,-1
 796 1409 l 1,4,-1
 1362 0 l 1,5,-1
 1167 0 l 1,6,-1
 1006 412 l 1,7,-1
 364 412 l 1,0,-1
685 1265 m 1,8,9
 668 1209 668 1209 644.5 1140.5 c 128,-1,10
 621 1072 621 1072 601 1020 c 2,11,-1
 422 561 l 1,12,-1
 949 561 l 1,13,-1
 768 1026 l 2,14,15
 754 1061 754 1061 731 1125 c 128,-1,16
 708 1189 708 1189 685 1265 c 1,8,9
EndSplineSet
EndChar

StartChar: B
Encoding: 66 66 37
Width: 1366
GlyphClass: 2
Flags: W
LayerCount: 2
Fore
SplineSet
1258 397 m 0,0,1
 1258 209 1258 209 1121 104.5 c 128,-1,2
 984 0 984 0 740 0 c 2,3,-1
 168 0 l 1,4,-1
 168 1409 l 1,5,-1
 680 1409 l 2,6,7
 928 1409 928 1409 1052 1323.5 c 128,-1,8
 1176 1238 1176 1238 1176 1067 c 0,9,10
 1176 942 1176 942 1106 857 c 128,-1,11
 1036 772 1036 772 908 743 c 1,12,13
 1076 723 1076 723 1167 630.5 c 128,-1,14
 1258 538 1258 538 1258 397 c 0,0,1
984 1044 m 0,15,16
 984 1158 984 1158 906 1207 c 128,-1,17
 828 1256 828 1256 680 1256 c 2,18,-1
 359 1256 l 1,19,-1
 359 810 l 1,20,-1
 680 810 l 2,21,22
 833 810 833 810 908.5 867.5 c 128,-1,23
 984 925 984 925 984 1044 c 0,15,16
1065 412 m 0,24,25
 1065 661 1065 661 715 661 c 2,26,-1
 359 661 l 1,27,-1
 359 153 l 1,28,-1
 730 153 l 2,29,30
 905 153 905 153 985 218 c 128,-1,31
 1065 283 1065 283 1065 412 c 0,24,25
EndSplineSet
EndChar

StartChar: C
Encoding: 67 67 38
Width: 1479
GlyphClass: 2
Flags: W
LayerCount: 2
Fore
SplineSet
800 137 m 0,0,1
 1096 137 1096 137 1245 430 c 1,2,-1
 1401 352 l 1,3,4
 1314 170 1314 170 1156.5 75 c 128,-1,5
 999 -20 999 -20 791 -20 c 0,6,7
 577 -20 577 -20 423 69 c 128,-1,8
 269 158 269 158 186.5 322.5 c 128,-1,9
 104 487 104 487 104 711 c 0,10,11
 104 936 104 936 186 1097 c 128,-1,12
 268 1258 268 1258 422 1344 c 128,-1,13
 576 1430 576 1430 790 1430 c 0,14,15
 1015 1430 1015 1430 1166 1342 c 128,-1,16
 1317 1254 1317 1254 1388 1081 c 1,17,-1
 1207 1021 l 1,18,19
 1158 1144 1158 1144 1049.5 1209 c 128,-1,20
 941 1274 941 1274 792 1274 c 0,21,22
 558 1274 558 1274 428 1123.5 c 128,-1,23
 298 973 298 973 298 711 c 0,24,25
 298 539 298 539 359.5 409.5 c 128,-1,26
 421 280 421 280 533.5 208.5 c 128,-1,27
 646 137 646 137 800 137 c 0,0,1
EndSplineSet
EndChar

StartChar: D
Encoding: 68 68 39
Width: 1479
GlyphClass: 2
Flags: W
LayerCount: 2
Fore
SplineSet
1381 719 m 0,0,1
 1381 496 1381 496 1294.5 335 c 128,-1,2
 1208 174 1208 174 1053.5 87 c 128,-1,3
 899 0 899 0 695 0 c 2,4,-1
 168 0 l 1,5,-1
 168 1409 l 1,6,-1
 634 1409 l 2,7,8
 992 1409 992 1409 1186.5 1229.5 c 128,-1,9
 1381 1050 1381 1050 1381 719 c 0,0,1
1189 719 m 0,10,11
 1189 981 1189 981 1045.5 1118.5 c 128,-1,12
 902 1256 902 1256 630 1256 c 2,13,-1
 359 1256 l 1,14,-1
 359 153 l 1,15,-1
 673 153 l 2,16,17
 830 153 830 153 945.5 222 c 128,-1,18
 1061 291 1061 291 1125 418 c 128,-1,19
 1189 545 1189 545 1189 719 c 0,10,11
EndSplineSet
EndChar

StartChar: E
Encoding: 69 69 40
Width: 1366
GlyphClass: 2
Flags: W
LayerCount: 2
Fore
SplineSet
1278 156 m 1,0,-1
 1278 0 l 1,1,-1
 168 0 l 1,2,-1
 168 1409 l 1,3,-1
 1237 1409 l 1,4,-1
 1237 1253 l 1,5,-1
 359 1253 l 1,6,-1
 359 801 l 1,7,-1
 1177 801 l 1,8,-1
 1177 647 l 1,9,-1
 359 647 l 1,10,-1
 359 156 l 1,11,-1
 1278 156 l 1,0,-1
EndSplineSet
EndChar

StartChar: F
Encoding: 70 70 41
Width: 1251
GlyphClass: 2
Flags: W
LayerCount: 2
Fore
SplineSet
359 571 m 1,0,-1
 359 0 l 1,1,-1
 168 0 l 1,2,-1
 168 1409 l 1,3,-1
 1169 1409 l 1,4,-1
 1169 1253 l 1,5,-1
 359 1253 l 1,6,-1
 359 729 l 1,7,-1
 1145 729 l 1,8,-1
 1145 571 l 1,9,-1
 359 571 l 1,0,-1
EndSplineSet
EndChar

StartChar: G
Encoding: 71 71 42
Width: 1593
GlyphClass: 2
Flags: W
LayerCount: 2
Fore
SplineSet
813 135 m 0,0,1
 951 135 951 135 1070.5 177 c 128,-1,2
 1190 219 1190 219 1264 291 c 1,3,-1
 1264 545 l 1,4,-1
 843 545 l 1,5,-1
 843 705 l 1,6,-1
 1440 705 l 1,7,-1
 1440 219 l 1,8,9
 1328 105 1328 105 1165.5 42.5 c 128,-1,10
 1003 -20 1003 -20 813 -20 c 0,11,12
 593 -20 593 -20 434 69 c 128,-1,13
 275 158 275 158 189 322.5 c 128,-1,14
 103 487 103 487 103 711 c 0,15,16
 103 1054 103 1054 287 1242 c 128,-1,17
 471 1430 471 1430 804 1430 c 0,18,19
 1038 1430 1038 1430 1184 1351 c 128,-1,20
 1330 1272 1330 1272 1409 1098 c 1,21,-1
 1227 1044 l 1,22,23
 1167 1164 1167 1164 1061.5 1219 c 128,-1,24
 956 1274 956 1274 799 1274 c 0,25,26
 555 1274 555 1274 426 1126.5 c 128,-1,27
 297 979 297 979 297 711 c 0,28,29
 297 444 297 444 434 289.5 c 128,-1,30
 571 135 571 135 813 135 c 0,0,1
EndSplineSet
EndChar

StartChar: H
Encoding: 72 72 43
Width: 1479
GlyphClass: 2
Flags: W
LayerCount: 2
Fore
SplineSet
359 653 m 1,0,-1
 359 0 l 1,1,-1
 168 0 l 1,2,-1
 168 1409 l 1,3,-1
 359 1409 l 1,4,-1
 359 813 l 1,5,-1
 1121 813 l 1,6,-1
 1121 1409 l 1,7,-1
 1312 1409 l 1,8,-1
 1312 0 l 1,9,-1
 1121 0 l 1,10,-1
 1121 653 l 1,11,-1
 359 653 l 1,0,-1
EndSplineSet
EndChar

StartChar: I
Encoding: 73 73 44
Width: 569
GlyphClass: 2
Flags: W
LayerCount: 2
Fore
SplineSet
380 1409 m 1,0,-1
 380 0 l 1,1,-1
 189 0 l 1,2,-1
 189 1409 l 1,3,-1
 380 1409 l 1,0,-1
EndSplineSet
EndChar

StartChar: J
Encoding: 74 74 45
Width: 1024
GlyphClass: 2
Flags: W
LayerCount: 2
Fore
SplineSet
457 -20 m 0,0,1
 278 -20 278 -20 172 72.5 c 128,-1,2
 66 165 66 165 32 350 c 1,3,-1
 219 381 l 1,4,5
 237 265 237 265 300 200 c 128,-1,6
 363 135 363 135 458 135 c 0,7,8
 562 135 562 135 622 206.5 c 128,-1,9
 682 278 682 278 682 416 c 2,10,-1
 682 1409 l 1,11,-1
 872 1409 l 1,12,-1
 872 420 l 2,13,14
 872 215 872 215 761 97.5 c 128,-1,15
 650 -20 650 -20 457 -20 c 0,0,1
EndSplineSet
EndChar

StartChar: K
Encoding: 75 75 46
Width: 1366
GlyphClass: 2
Flags: W
LayerCount: 2
Fore
SplineSet
359 540 m 1,0,-1
 359 0 l 1,1,-1
 168 0 l 1,2,-1
 168 1409 l 1,3,-1
 359 1409 l 1,4,-1
 359 703 l 1,5,-1
 1038 1409 l 1,6,-1
 1263 1409 l 1,7,-1
 663 797 l 1,8,-1
 1343 0 l 1,9,-1
 1106 0 l 1,10,-1
 543 680 l 1,11,-1
 359 540 l 1,0,-1
EndSplineSet
EndChar

StartChar: L
Encoding: 76 76 47
Width: 1139
GlyphClass: 2
Flags: W
LayerCount: 2
Fore
SplineSet
1071 156 m 1,0,-1
 1071 0 l 1,1,-1
 168 0 l 1,2,-1
 168 1409 l 1,3,-1
 359 1409 l 1,4,-1
 359 156 l 1,5,-1
 1071 156 l 1,0,-1
EndSplineSet
EndChar

StartChar: M
Encoding: 77 77 48
Width: 1706
GlyphClass: 2
Flags: W
LayerCount: 2
Fore
SplineSet
338 940 m 2,0,-1
 338 0 l 1,1,-1
 168 0 l 1,2,-1
 168 1409 l 1,3,-1
 419 1409 l 1,4,-1
 794 432 l 2,5,6
 814 373 814 373 832.5 305.5 c 128,-1,7
 851 238 851 238 857 208 c 1,8,9
 863 235 863 235 877 282.5 c 128,-1,10
 891 330 891 330 905 374 c 128,-1,11
 919 418 919 418 925 432 c 2,12,-1
 1293 1409 l 1,13,-1
 1538 1409 l 1,14,-1
 1538 0 l 1,15,-1
 1366 0 l 1,16,-1
 1366 940 l 2,17,18
 1366 1018 1366 1018 1368.5 1093 c 128,-1,19
 1371 1168 1371 1168 1375 1240 c 1,20,21
 1350 1151 1350 1151 1328.5 1080.5 c 128,-1,22
 1307 1010 1307 1010 1287 960 c 2,23,-1
 923 0 l 1,24,-1
 789 0 l 1,25,-1
 420 960 l 1,26,-1
 331 1240 l 1,27,28
 333 1165 333 1165 335.5 1090 c 128,-1,29
 338 1015 338 1015 338 940 c 2,0,-1
EndSplineSet
EndChar

StartChar: N
Encoding: 78 78 49
Width: 1479
GlyphClass: 2
Flags: W
LayerCount: 2
Fore
SplineSet
338 936 m 2,0,-1
 338 0 l 1,1,-1
 168 0 l 1,2,-1
 168 1409 l 1,3,-1
 390 1409 l 1,4,-1
 1152 201 l 1,5,6
 1140 398 1140 398 1140 485 c 2,7,-1
 1140 1409 l 1,8,-1
 1312 1409 l 1,9,-1
 1312 0 l 1,10,-1
 1082 0 l 1,11,-1
 328 1200 l 1,12,13
 330 1134 330 1134 334 1068 c 128,-1,14
 338 1002 338 1002 338 936 c 2,0,-1
EndSplineSet
EndChar

StartChar: O
Encoding: 79 79 50
Width: 1593
GlyphClass: 2
Flags: W
LayerCount: 2
Fore
SplineSet
1495 711 m 0,0,1
 1495 485 1495 485 1409.5 321 c 128,-1,2
 1324 157 1324 157 1167 68.5 c 128,-1,3
 1010 -20 1010 -20 795 -20 c 0,4,5
 579 -20 579 -20 422.5 68 c 128,-1,6
 266 156 266 156 181.5 320 c 128,-1,7
 97 484 97 484 97 711 c 0,8,9
 97 937 97 937 180.5 1097.5 c 128,-1,10
 264 1258 264 1258 420.5 1344 c 128,-1,11
 577 1430 577 1430 797 1430 c 0,12,13
 1013 1430 1013 1430 1169.5 1345 c 128,-1,14
 1326 1260 1326 1260 1410.5 1099.5 c 128,-1,15
 1495 939 1495 939 1495 711 c 0,0,1
1300 711 m 0,16,17
 1300 974 1300 974 1168.5 1124 c 128,-1,18
 1037 1274 1037 1274 797 1274 c 0,19,20
 555 1274 555 1274 423 1126 c 128,-1,21
 291 978 291 978 291 711 c 0,22,23
 291 535 291 535 351 405.5 c 128,-1,24
 411 276 411 276 524 205.5 c 128,-1,25
 637 135 637 135 795 135 c 0,26,27
 1039 135 1039 135 1169.5 285.5 c 128,-1,28
 1300 436 1300 436 1300 711 c 0,16,17
EndSplineSet
EndChar

StartChar: P
Encoding: 80 80 51
Width: 1366
GlyphClass: 2
Flags: W
LayerCount: 2
Fore
SplineSet
1258 985 m 0,0,1
 1258 852 1258 852 1199 754 c 128,-1,2
 1140 656 1140 656 1031.5 602.5 c 128,-1,3
 923 549 923 549 773 549 c 2,4,-1
 359 549 l 1,5,-1
 359 0 l 1,6,-1
 168 0 l 1,7,-1
 168 1409 l 1,8,-1
 761 1409 l 2,9,10
 998 1409 998 1409 1128 1298 c 128,-1,11
 1258 1187 1258 1187 1258 985 c 0,0,1
1066 983 m 0,12,13
 1066 1256 1066 1256 738 1256 c 2,14,-1
 359 1256 l 1,15,-1
 359 700 l 1,16,-1
 746 700 l 2,17,18
 906 700 906 700 986 770.5 c 128,-1,19
 1066 841 1066 841 1066 983 c 0,12,13
EndSplineSet
EndChar

StartChar: Q
Encoding: 81 81 52
Width: 1593
GlyphClass: 2
Flags: W
LayerCount: 2
Fore
SplineSet
1495 711 m 0,0,1
 1495 513 1495 513 1427.5 360 c 128,-1,2
 1360 207 1360 207 1233 112.5 c 128,-1,3
 1106 18 1106 18 928 -6 c 1,4,5
 969 -132 969 -132 1035.5 -188 c 128,-1,6
 1102 -244 1102 -244 1204 -244 c 0,7,8
 1261 -244 1261 -244 1319 -231 c 1,9,-1
 1319 -365 l 1,10,11
 1228 -387 1228 -387 1141 -387 c 0,12,13
 990 -387 990 -387 892.5 -301.5 c 128,-1,14
 795 -216 795 -216 733 -16 c 1,15,16
 531 -6 531 -6 389 86 c 128,-1,17
 247 178 247 178 172 338 c 128,-1,18
 97 498 97 498 97 711 c 0,19,20
 97 937 97 937 180.5 1097.5 c 128,-1,21
 264 1258 264 1258 420.5 1344 c 128,-1,22
 577 1430 577 1430 797 1430 c 0,23,24
 1019 1430 1019 1430 1175 1342.5 c 128,-1,25
 1331 1255 1331 1255 1413 1094 c 128,-1,26
 1495 933 1495 933 1495 711 c 0,0,1
1300 711 m 0,27,28
 1300 974 1300 974 1168.5 1124 c 128,-1,29
 1037 1274 1037 1274 797 1274 c 0,30,31
 555 1274 555 1274 423 1126 c 128,-1,32
 291 978 291 978 291 711 c 0,33,34
 291 535 291 535 351 405.5 c 128,-1,35
 411 276 411 276 524 205.5 c 128,-1,36
 637 135 637 135 795 135 c 0,37,38
 1039 135 1039 135 1169.5 285.5 c 128,-1,39
 1300 436 1300 436 1300 711 c 0,27,28
EndSplineSet
EndChar

StartChar: R
Encoding: 82 82 53
Width: 1479
GlyphClass: 2
Flags: W
LayerCount: 2
Fore
SplineSet
359 585 m 1,0,-1
 359 0 l 1,1,-1
 168 0 l 1,2,-1
 168 1409 l 1,3,-1
 831 1409 l 2,4,5
 1069 1409 1069 1409 1198.5 1302.5 c 128,-1,6
 1328 1196 1328 1196 1328 1006 c 0,7,8
 1328 849 1328 849 1236.5 742 c 128,-1,9
 1145 635 1145 635 984 607 c 1,10,-1
 1384 0 l 1,11,-1
 1164 0 l 1,12,-1
 798 585 l 1,13,-1
 359 585 l 1,0,-1
1136 1004 m 0,14,15
 1136 1127 1136 1127 1052.5 1191.5 c 128,-1,16
 969 1256 969 1256 812 1256 c 2,17,-1
 359 1256 l 1,18,-1
 359 736 l 1,19,-1
 820 736 l 2,20,21
 971 736 971 736 1053.5 806.5 c 128,-1,22
 1136 877 1136 877 1136 1004 c 0,14,15
EndSplineSet
EndChar

StartChar: S
Encoding: 83 83 54
Width: 1366
GlyphClass: 2
Flags: W
LayerCount: 2
Fore
SplineSet
1272 389 m 0,0,1
 1272 194 1272 194 1119.5 87 c 128,-1,2
 967 -20 967 -20 690 -20 c 0,3,4
 175 -20 175 -20 93 338 c 1,5,-1
 278 375 l 1,6,7
 310 248 310 248 414 188.5 c 128,-1,8
 518 129 518 129 697 129 c 0,9,10
 882 129 882 129 982.5 192.5 c 128,-1,11
 1083 256 1083 256 1083 379 c 0,12,13
 1083 448 1083 448 1051.5 491 c 128,-1,14
 1020 534 1020 534 963 562 c 256,15,16
 906 590 906 590 827 609 c 128,-1,17
 748 628 748 628 652 650 c 0,18,19
 541 675 541 675 466.5 699 c 128,-1,20
 392 723 392 723 344 749.5 c 128,-1,21
 296 776 296 776 262 806 c 0,22,23
 212 852 212 852 185.5 913 c 128,-1,24
 159 974 159 974 159 1053 c 0,25,26
 159 1234 159 1234 297.5 1332 c 128,-1,27
 436 1430 436 1430 694 1430 c 0,28,29
 934 1430 934 1430 1061 1356.5 c 128,-1,30
 1188 1283 1188 1283 1239 1106 c 1,31,-1
 1051 1073 l 1,32,33
 1020 1185 1020 1185 933 1235.5 c 128,-1,34
 846 1286 846 1286 692 1286 c 0,35,36
 523 1286 523 1286 434 1230 c 128,-1,37
 345 1174 345 1174 345 1063 c 0,38,39
 345 998 345 998 379.5 955.5 c 128,-1,40
 414 913 414 913 479 884 c 0,41,42
 540 855 540 855 738 811 c 0,43,44
 819 792 819 792 898 771.5 c 128,-1,45
 977 751 977 751 1047 720 c 0,46,47
 1088 703 1088 703 1125.5 678.5 c 128,-1,48
 1163 654 1163 654 1191 622 c 0,49,50
 1229 580 1229 580 1250.5 523 c 128,-1,51
 1272 466 1272 466 1272 389 c 0,0,1
EndSplineSet
EndChar

StartChar: T
Encoding: 84 84 55
Width: 1251
GlyphClass: 2
Flags: W
LayerCount: 2
Fore
SplineSet
720 1253 m 1,0,-1
 720 0 l 1,1,-1
 530 0 l 1,2,-1
 530 1253 l 1,3,-1
 46 1253 l 1,4,-1
 46 1409 l 1,5,-1
 1204 1409 l 1,6,-1
 1204 1253 l 1,7,-1
 720 1253 l 1,0,-1
EndSplineSet
EndChar

StartChar: U
Encoding: 85 85 56
Width: 1479
GlyphClass: 2
Flags: W
LayerCount: 2
Fore
SplineSet
731 -20 m 0,0,1
 558 -20 558 -20 429 44 c 128,-1,2
 300 108 300 108 229 227 c 128,-1,3
 158 346 158 346 158 512 c 2,4,-1
 158 1409 l 1,5,-1
 349 1409 l 1,6,-1
 349 528 l 2,7,8
 349 335 349 335 447 235 c 128,-1,9
 545 135 545 135 730 135 c 0,10,11
 920 135 920 135 1025.5 238.5 c 128,-1,12
 1131 342 1131 342 1131 541 c 2,13,-1
 1131 1409 l 1,14,-1
 1321 1409 l 1,15,-1
 1321 530 l 2,16,17
 1321 359 1321 359 1248.5 236 c 128,-1,18
 1176 113 1176 113 1043.5 46.5 c 128,-1,19
 911 -20 911 -20 731 -20 c 0,0,1
EndSplineSet
EndChar

StartChar: V
Encoding: 86 86 57
Width: 1366
GlyphClass: 2
Flags: W
LayerCount: 2
Fore
SplineSet
1357 1409 m 1,0,-1
 782 0 l 1,1,-1
 584 0 l 1,2,-1
 9 1409 l 1,3,-1
 210 1409 l 1,4,-1
 600 417 l 2,5,6
 624 356 624 356 643.5 293 c 128,-1,7
 663 230 663 230 684 168 c 1,8,9
 704 230 704 230 726 298 c 128,-1,10
 748 366 748 366 768 417 c 2,11,-1
 1156 1409 l 1,12,-1
 1357 1409 l 1,0,-1
EndSplineSet
EndChar

StartChar: W
Encoding: 87 87 58
Width: 1933
GlyphClass: 2
Flags: W
LayerCount: 2
Fore
SplineSet
897 890 m 2,0,-1
 652 0 l 1,1,-1
 424 0 l 1,2,-1
 9 1409 l 1,3,-1
 208 1409 l 1,4,-1
 461 514 l 2,5,6
 484 430 484 430 504.5 343.5 c 128,-1,7
 525 257 525 257 544 168 c 1,8,9
 552 205 552 205 565.5 265.5 c 128,-1,10
 579 326 579 326 594 389 c 128,-1,11
 609 452 609 452 621 495 c 2,12,-1
 877 1409 l 1,13,-1
 1060 1409 l 1,14,-1
 1305 532 l 2,15,16
 1333 425 1333 425 1355 333.5 c 128,-1,17
 1377 242 1377 242 1393 168 c 1,18,19
 1408 227 1408 227 1424.5 295.5 c 128,-1,20
 1441 364 1441 364 1455.5 420.5 c 128,-1,21
 1470 477 1470 477 1476 501 c 2,22,-1
 1727 1409 l 1,23,-1
 1926 1409 l 1,24,-1
 1511 0 l 1,25,-1
 1283 0 l 1,26,-1
 1039 895 l 2,27,28
 1027 937 1027 937 1009.5 1012 c 128,-1,29
 992 1087 992 1087 969 1196 c 1,30,31
 960 1143 960 1143 945.5 1081.5 c 128,-1,32
 931 1020 931 1020 917.5 968 c 128,-1,33
 904 916 904 916 897 890 c 2,0,-1
EndSplineSet
EndChar

StartChar: X
Encoding: 88 88 59
Width: 1366
GlyphClass: 2
Flags: W
LayerCount: 2
Fore
SplineSet
689 616 m 1,0,-1
 257 0 l 1,1,-1
 46 0 l 1,2,-1
 582 732 l 1,3,-1
 87 1409 l 1,4,-1
 298 1409 l 1,5,-1
 690 856 l 1,6,-1
 1071 1409 l 1,7,-1
 1282 1409 l 1,8,-1
 800 739 l 1,9,-1
 1323 0 l 1,10,-1
 1112 0 l 1,11,-1
 689 616 l 1,0,-1
EndSplineSet
EndChar

StartChar: Y
Encoding: 89 89 60
Width: 1366
GlyphClass: 2
Flags: W
LayerCount: 2
Fore
SplineSet
777 584 m 1,0,-1
 777 0 l 1,1,-1
 587 0 l 1,2,-1
 587 584 l 1,3,-1
 45 1409 l 1,4,-1
 255 1409 l 1,5,-1
 684 738 l 1,6,-1
 1111 1409 l 1,7,-1
 1321 1409 l 1,8,-1
 777 584 l 1,0,-1
EndSplineSet
EndChar

StartChar: Z
Encoding: 90 90 61
Width: 1251
GlyphClass: 2
Flags: W
LayerCount: 2
Fore
SplineSet
1187 156 m 1,0,-1
 1187 0 l 1,1,-1
 65 0 l 1,2,-1
 65 143 l 1,3,-1
 923 1253 l 1,4,-1
 138 1253 l 1,5,-1
 138 1409 l 1,6,-1
 1140 1409 l 1,7,-1
 1140 1270 l 1,8,-1
 282 156 l 1,9,-1
 1187 156 l 1,0,-1
EndSplineSet
EndChar

StartChar: bracketleft
Encoding: 91 91 62
Width: 569
GlyphClass: 2
Flags: W
LayerCount: 2
Fore
SplineSet
553 -296 m 1,0,-1
 553 -425 l 1,1,-1
 146 -425 l 1,2,-1
 146 1484 l 1,3,-1
 553 1484 l 1,4,-1
 553 1355 l 1,5,-1
 320 1355 l 1,6,-1
 320 -296 l 1,7,-1
 553 -296 l 1,0,-1
EndSplineSet
EndChar

StartChar: backslash
Encoding: 92 92 63
Width: 569
GlyphClass: 2
Flags: W
LayerCount: 2
Fore
SplineSet
158 1484 m 1,0,-1
 569 -20 l 1,1,-1
 407 -20 l 1,2,-1
 0 1484 l 1,3,-1
 158 1484 l 1,0,-1
EndSplineSet
EndChar

StartChar: bracketright
Encoding: 93 93 64
Width: 569
GlyphClass: 2
Flags: W
LayerCount: 2
Fore
SplineSet
423 1484 m 1,0,-1
 423 -425 l 1,1,-1
 16 -425 l 1,2,-1
 16 -296 l 1,3,-1
 249 -296 l 1,4,-1
 249 1355 l 1,5,-1
 16 1355 l 1,6,-1
 16 1484 l 1,7,-1
 423 1484 l 1,0,-1
EndSplineSet
EndChar

StartChar: asciicircum
Encoding: 94 94 65
Width: 961
GlyphClass: 2
Flags: W
LayerCount: 2
Fore
SplineSet
10 673 m 1,0,-1
 378 1409 l 1,1,-1
 581 1409 l 1,2,-1
 951 673 l 1,3,-1
 787 673 l 1,4,-1
 478 1306 l 1,5,-1
 172 673 l 1,6,-1
 10 673 l 1,0,-1
EndSplineSet
EndChar

StartChar: underscore
Encoding: 95 95 66
Width: 1139
GlyphClass: 2
Flags: W
LayerCount: 2
Fore
SplineSet
1162 -277 m 1,0,-1
 1162 -407 l 1,1,-1
 -31 -407 l 1,2,-1
 -31 -277 l 1,3,-1
 1162 -277 l 1,0,-1
EndSplineSet
EndChar

StartChar: grave
Encoding: 96 96 67
Width: 682
GlyphClass: 2
Flags: W
LayerCount: 2
Fore
SplineSet
530 1221 m 1,0,-1
 530 1201 l 1,1,-1
 436 1201 l 1,2,-1
 106 1479 l 1,3,-1
 106 1508 l 1,4,-1
 313 1508 l 1,5,-1
 530 1221 l 1,0,-1
EndSplineSet
EndChar

StartChar: a
Encoding: 97 97 68
Width: 1139
GlyphClass: 2
Flags: W
LayerCount: 2
Fore
SplineSet
414 -20 m 0,0,1
 251 -20 251 -20 169 66 c 128,-1,2
 87 152 87 152 87 302 c 0,3,4
 87 470 87 470 197.5 560 c 128,-1,5
 308 650 308 650 554 656 c 2,6,-1
 797 660 l 1,7,-1
 797 719 l 2,8,9
 797 851 797 851 741 908 c 128,-1,10
 685 965 685 965 565 965 c 0,11,12
 444 965 444 965 389 924 c 128,-1,13
 334 883 334 883 323 793 c 1,14,-1
 135 810 l 1,15,16
 181 1102 181 1102 569 1102 c 0,17,18
 773 1102 773 1102 876 1008.5 c 128,-1,19
 979 915 979 915 979 738 c 2,20,-1
 979 272 l 2,21,22
 979 192 979 192 1000 151.5 c 128,-1,23
 1021 111 1021 111 1080 111 c 0,24,25
 1108 111 1108 111 1139 118 c 1,26,-1
 1139 6 l 1,27,28
 1105 -2 1105 -2 1070 -6 c 128,-1,29
 1035 -10 1035 -10 1000 -10 c 0,30,31
 900 -10 900 -10 854.5 42.5 c 128,-1,32
 809 95 809 95 803 207 c 1,33,-1
 797 207 l 1,34,35
 728 83 728 83 636.5 31.5 c 128,-1,36
 545 -20 545 -20 414 -20 c 0,0,1
797 534 m 1,37,-1
 600 530 l 2,38,39
 474 529 474 529 408 504 c 0,40,41
 342 480 342 480 307 430 c 128,-1,42
 272 380 272 380 272 299 c 0,43,44
 272 211 272 211 319.5 163 c 128,-1,45
 367 115 367 115 455 115 c 0,46,47
 555 115 555 115 631 160 c 0,48,49
 708 205 708 205 752.5 283.5 c 128,-1,50
 797 362 797 362 797 445 c 2,51,-1
 797 534 l 1,37,-1
EndSplineSet
EndChar

StartChar: b
Encoding: 98 98 69
Width: 1139
GlyphClass: 2
Flags: W
LayerCount: 2
Fore
SplineSet
1053 546 m 0,0,1
 1053 263 1053 263 953.5 121.5 c 128,-1,2
 854 -20 854 -20 655 -20 c 0,3,4
 532 -20 532 -20 450.5 24.5 c 128,-1,5
 369 69 369 69 318 168 c 1,6,-1
 316 168 l 1,7,8
 316 148 316 148 314 110 c 128,-1,9
 312 72 312 72 310 39.5 c 128,-1,10
 308 7 308 7 306 0 c 1,11,-1
 132 0 l 1,12,13
 135 27 135 27 136.5 82.5 c 128,-1,14
 138 138 138 138 138 223 c 2,15,-1
 138 1484 l 1,16,-1
 318 1484 l 1,17,-1
 318 1061 l 2,18,19
 318 1029 318 1029 317 990.5 c 128,-1,20
 316 952 316 952 314 908 c 1,21,-1
 318 908 l 1,22,23
 368 1012 368 1012 450.5 1057 c 128,-1,24
 533 1102 533 1102 655 1102 c 0,25,26
 860 1102 860 1102 956.5 964 c 128,-1,27
 1053 826 1053 826 1053 546 c 0,0,1
864 540 m 0,28,29
 864 767 864 767 804 865 c 128,-1,30
 744 963 744 963 609 963 c 0,31,32
 457 963 457 963 387.5 859 c 128,-1,33
 318 755 318 755 318 529 c 0,34,35
 318 316 318 316 386 214.5 c 128,-1,36
 454 113 454 113 607 113 c 0,37,38
 743 113 743 113 803.5 213.5 c 128,-1,39
 864 314 864 314 864 540 c 0,28,29
EndSplineSet
EndChar

StartChar: c
Encoding: 99 99 70
Width: 1024
GlyphClass: 2
Flags: W
LayerCount: 2
Fore
SplineSet
553 -20 m 0,0,1
 326 -20 326 -20 206.5 123.5 c 128,-1,2
 87 267 87 267 87 542 c 0,3,4
 87 815 87 815 207 958.5 c 128,-1,5
 327 1102 327 1102 551 1102 c 0,6,7
 717 1102 717 1102 826.5 1016 c 128,-1,8
 936 930 936 930 964 779 c 1,9,-1
 779 765 l 1,10,11
 765 855 765 855 708 908 c 128,-1,12
 651 961 651 961 546 961 c 0,13,14
 403 961 403 961 339 866 c 128,-1,15
 275 771 275 771 275 546 c 0,16,17
 275 330 275 330 343 226 c 128,-1,18
 411 122 411 122 548 122 c 0,19,20
 644 122 644 122 708.5 174 c 128,-1,21
 773 226 773 226 788 334 c 1,22,-1
 970 322 l 1,23,24
 956 218 956 218 900.5 141 c 128,-1,25
 845 64 845 64 756.5 22 c 128,-1,26
 668 -20 668 -20 553 -20 c 0,0,1
EndSplineSet
EndChar

StartChar: d
Encoding: 100 100 71
Width: 1139
GlyphClass: 2
Flags: W
LayerCount: 2
Fore
SplineSet
835 0 m 1,0,1
 833 11 833 11 830.5 41.5 c 128,-1,2
 828 72 828 72 826.5 109 c 128,-1,3
 825 146 825 146 825 174 c 1,4,-1
 821 174 l 1,5,6
 771 70 771 70 688.5 25 c 128,-1,7
 606 -20 606 -20 484 -20 c 0,8,9
 279 -20 279 -20 182.5 118 c 128,-1,10
 86 256 86 256 86 536 c 0,11,12
 86 819 86 819 185.5 960.5 c 128,-1,13
 285 1102 285 1102 484 1102 c 0,14,15
 607 1102 607 1102 689 1057 c 128,-1,16
 771 1012 771 1012 821 914 c 1,17,-1
 823 914 l 1,18,-1
 821 1035 l 1,19,-1
 821 1484 l 1,20,-1
 1001 1484 l 1,21,-1
 1001 223 l 2,22,23
 1001 138 1001 138 1002.5 82.5 c 128,-1,24
 1004 27 1004 27 1007 0 c 1,25,-1
 835 0 l 1,0,1
275 542 m 0,26,27
 275 315 275 315 335 217 c 128,-1,28
 395 119 395 119 530 119 c 0,29,30
 683 119 683 119 752 225 c 128,-1,31
 821 331 821 331 821 554 c 0,32,33
 821 769 821 769 752 869 c 128,-1,34
 683 969 683 969 532 969 c 0,35,36
 396 969 396 969 335.5 868.5 c 128,-1,37
 275 768 275 768 275 542 c 0,26,27
EndSplineSet
EndChar

StartChar: e
Encoding: 101 101 72
Width: 1139
GlyphClass: 2
Flags: W
LayerCount: 2
Fore
SplineSet
276 503 m 1,0,1
 276 317 276 317 353 216 c 128,-1,2
 430 115 430 115 578 115 c 0,3,4
 695 115 695 115 765.5 162 c 128,-1,5
 836 209 836 209 861 281 c 1,6,-1
 1019 236 l 1,7,8
 922 -20 922 -20 578 -20 c 0,9,10
 338 -20 338 -20 212.5 123 c 128,-1,11
 87 266 87 266 87 548 c 0,12,13
 87 816 87 816 212.5 959 c 128,-1,14
 338 1102 338 1102 571 1102 c 0,15,16
 810 1102 810 1102 929 958 c 128,-1,17
 1048 814 1048 814 1048 527 c 2,18,-1
 1048 503 l 1,19,-1
 276 503 l 1,0,1
862 641 m 1,20,21
 847 812 847 812 775 890.5 c 128,-1,22
 703 969 703 969 568 969 c 0,23,24
 437 969 437 969 360.5 881.5 c 128,-1,25
 284 794 284 794 278 641 c 1,26,-1
 862 641 l 1,20,21
EndSplineSet
EndChar

StartChar: f
Encoding: 102 102 73
Width: 569
GlyphClass: 2
Flags: W
LayerCount: 2
Fore
SplineSet
361 951 m 1,0,-1
 361 0 l 1,1,-1
 181 0 l 1,2,-1
 181 951 l 1,3,-1
 29 951 l 1,4,-1
 29 1082 l 1,5,-1
 181 1082 l 1,6,-1
 181 1204 l 2,7,8
 181 1352 181 1352 246 1417 c 128,-1,9
 311 1482 311 1482 445 1482 c 0,10,11
 520 1482 520 1482 572 1470 c 1,12,-1
 572 1333 l 1,13,14
 524 1341 524 1341 492 1341 c 0,15,16
 423 1341 423 1341 392 1306 c 128,-1,17
 361 1271 361 1271 361 1179 c 2,18,-1
 361 1082 l 1,19,-1
 572 1082 l 1,20,-1
 572 951 l 1,21,-1
 361 951 l 1,0,-1
EndSplineSet
EndChar

StartChar: g
Encoding: 103 103 74
Width: 1139
GlyphClass: 2
Flags: W
LayerCount: 2
Fore
SplineSet
548 -425 m 0,0,1
 371 -425 371 -425 266 -355.5 c 128,-1,2
 161 -286 161 -286 131 -158 c 1,3,-1
 312 -132 l 1,4,5
 330 -207 330 -207 391.5 -247.5 c 128,-1,6
 453 -288 453 -288 553 -288 c 0,7,8
 687 -288 687 -288 754.5 -209 c 128,-1,9
 822 -130 822 -130 822 27 c 2,10,-1
 822 201 l 1,11,-1
 820 201 l 1,12,13
 769 97 769 97 680 44.5 c 128,-1,14
 591 -8 591 -8 472 -8 c 0,15,16
 273 -8 273 -8 179.5 124 c 128,-1,17
 86 256 86 256 86 539 c 0,18,19
 86 826 86 826 186.5 962.5 c 128,-1,20
 287 1099 287 1099 492 1099 c 0,21,22
 607 1099 607 1099 691.5 1046.5 c 128,-1,23
 776 994 776 994 822 897 c 1,24,-1
 824 897 l 1,25,26
 824 917 824 917 826 959.5 c 128,-1,27
 828 1002 828 1002 831 1040 c 128,-1,28
 834 1078 834 1078 836 1082 c 1,29,-1
 1007 1082 l 1,30,31
 1001 1028 1001 1028 1001 858 c 2,32,-1
 1001 31 l 2,33,34
 1001 -197 1001 -197 888 -311 c 128,-1,35
 775 -425 775 -425 548 -425 c 0,0,1
822 541 m 0,36,37
 822 738 822 738 741.5 851.5 c 128,-1,38
 661 965 661 965 536 965 c 0,39,40
 398 965 398 965 335 865 c 128,-1,41
 272 765 272 765 272 541 c 0,42,43
 272 319 272 319 331 222 c 128,-1,44
 390 125 390 125 533 125 c 0,45,46
 661 125 661 125 741.5 236.5 c 128,-1,47
 822 348 822 348 822 541 c 0,36,37
EndSplineSet
EndChar

StartChar: h
Encoding: 104 104 75
Width: 1139
GlyphClass: 2
Flags: W
LayerCount: 2
Fore
SplineSet
317 897 m 1,0,1
 375 1003 375 1003 456.5 1052.5 c 128,-1,2
 538 1102 538 1102 663 1102 c 0,3,4
 839 1102 839 1102 922.5 1010.5 c 128,-1,5
 1006 919 1006 919 1006 721 c 2,6,-1
 1006 0 l 1,7,-1
 825 0 l 1,8,-1
 825 686 l 2,9,10
 825 833 825 833 773.5 898 c 128,-1,11
 722 963 722 963 602 963 c 0,12,13
 475 963 475 963 398.5 875 c 128,-1,14
 322 787 322 787 322 638 c 2,15,-1
 322 0 l 1,16,-1
 142 0 l 1,17,-1
 142 1484 l 1,18,-1
 322 1484 l 1,19,-1
 322 1098 l 2,20,21
 322 1058 322 1058 320 1013.5 c 128,-1,22
 318 969 318 969 316.5 936.5 c 128,-1,23
 315 904 315 904 314 897 c 1,24,-1
 317 897 l 1,0,1
EndSplineSet
EndChar

StartChar: i
Encoding: 105 105 76
Width: 455
GlyphClass: 2
Flags: W
LayerCount: 2
Fore
SplineSet
317 1484 m 1,0,-1
 317 1312 l 1,1,-1
 137 1312 l 1,2,-1
 137 1484 l 1,3,-1
 317 1484 l 1,0,-1
317 1082 m 1,4,-1
 317 0 l 1,5,-1
 137 0 l 1,6,-1
 137 1082 l 1,7,-1
 317 1082 l 1,4,-1
EndSplineSet
Substitution2: "Single Substitution lookup 12 subtable" dotlessi
EndChar

StartChar: j
Encoding: 106 106 77
Width: 455
GlyphClass: 2
Flags: W
LayerCount: 2
Fore
SplineSet
317 1484 m 1,0,-1
 317 1312 l 1,1,-1
 137 1312 l 1,2,-1
 137 1484 l 1,3,-1
 317 1484 l 1,0,-1
77 -425 m 0,4,5
 -1 -425 -1 -425 -50 -416 c 1,6,-1
 -50 -277 l 1,7,8
 -34 -279 -34 -279 -19 -281 c 128,-1,9
 -4 -283 -4 -283 12 -283 c 0,10,11
 81 -283 81 -283 109 -247 c 128,-1,12
 137 -211 137 -211 137 -107 c 2,13,-1
 137 1082 l 1,14,-1
 317 1082 l 1,15,-1
 317 -134 l 2,16,17
 317 -287 317 -287 257 -356 c 128,-1,18
 197 -425 197 -425 77 -425 c 0,4,5
EndSplineSet
Substitution2: "Single Substitution lookup 12 subtable" uni0237
EndChar

StartChar: k
Encoding: 107 107 78
Width: 1024
GlyphClass: 2
Flags: W
LayerCount: 2
Fore
SplineSet
318 385 m 1,0,-1
 318 0 l 1,1,-1
 138 0 l 1,2,-1
 138 1484 l 1,3,-1
 318 1484 l 1,4,-1
 318 557 l 1,5,-1
 793 1082 l 1,6,-1
 1004 1082 l 1,7,-1
 565 617 l 1,8,-1
 1027 0 l 1,9,-1
 816 0 l 1,10,-1
 450 494 l 1,11,-1
 318 385 l 1,0,-1
EndSplineSet
EndChar

StartChar: l
Encoding: 108 108 79
Width: 455
GlyphClass: 2
Flags: W
LayerCount: 2
Fore
SplineSet
318 1484 m 1,0,-1
 318 0 l 1,1,-1
 138 0 l 1,2,-1
 138 1484 l 1,3,-1
 318 1484 l 1,0,-1
EndSplineSet
EndChar

StartChar: m
Encoding: 109 109 80
Width: 1706
GlyphClass: 2
Flags: W
LayerCount: 2
Fore
SplineSet
321 627 m 2,0,-1
 321 0 l 1,1,-1
 142 0 l 1,2,-1
 142 851 l 2,3,4
 142 946 142 946 140.5 1003.5 c 128,-1,5
 139 1061 139 1061 136 1082 c 1,6,-1
 306 1082 l 1,7,8
 308 1060 308 1060 310 1028 c 128,-1,9
 312 996 312 996 313 961.5 c 128,-1,10
 314 927 314 927 314 897 c 1,11,-1
 317 897 l 1,12,13
 375 1012 375 1012 450 1057 c 128,-1,14
 525 1102 525 1102 633 1102 c 0,15,16
 756 1102 756 1102 827.5 1053 c 128,-1,17
 899 1004 899 1004 927 897 c 1,18,-1
 930 897 l 1,19,20
 986 1006 986 1006 1065.5 1054 c 128,-1,21
 1145 1102 1145 1102 1258 1102 c 0,22,23
 1422 1102 1422 1102 1496.5 1013 c 128,-1,24
 1571 924 1571 924 1571 721 c 2,25,-1
 1571 0 l 1,26,-1
 1393 0 l 1,27,-1
 1393 686 l 2,28,29
 1393 843 1393 843 1350 903 c 128,-1,30
 1307 963 1307 963 1195 963 c 0,31,32
 1077 963 1077 963 1011.5 875.5 c 128,-1,33
 946 788 946 788 946 627 c 2,34,-1
 946 0 l 1,35,-1
 768 0 l 1,36,-1
 768 686 l 2,37,38
 768 843 768 843 725 903 c 128,-1,39
 682 963 682 963 570 963 c 0,40,41
 455 963 455 963 388 875 c 128,-1,42
 321 787 321 787 321 627 c 2,0,-1
EndSplineSet
EndChar

StartChar: n
Encoding: 110 110 81
Width: 1139
GlyphClass: 2
Flags: W
LayerCount: 2
Fore
SplineSet
322 627 m 2,0,-1
 322 0 l 1,1,-1
 142 0 l 1,2,-1
 142 851 l 2,3,4
 142 946 142 946 140.5 1003.5 c 128,-1,5
 139 1061 139 1061 136 1082 c 1,6,-1
 306 1082 l 1,7,8
 308 1063 308 1063 309.5 1034 c 128,-1,9
 311 1005 311 1005 312 970 c 128,-1,10
 313 935 313 935 314 897 c 1,11,-1
 317 897 l 1,12,13
 379 1009 379 1009 460.5 1055.5 c 128,-1,14
 542 1102 542 1102 663 1102 c 0,15,16
 841 1102 841 1102 923.5 1011 c 128,-1,17
 1006 920 1006 920 1006 721 c 2,18,-1
 1006 0 l 1,19,-1
 825 0 l 1,20,-1
 825 686 l 2,21,22
 825 841 825 841 775 902 c 128,-1,23
 725 963 725 963 602 963 c 0,24,25
 472 963 472 963 397 874 c 128,-1,26
 322 785 322 785 322 627 c 2,0,-1
EndSplineSet
EndChar

StartChar: o
Encoding: 111 111 82
Width: 1139
GlyphClass: 2
Flags: W
LayerCount: 2
Fore
SplineSet
1053 542 m 0,0,1
 1053 258 1053 258 928 119 c 128,-1,2
 803 -20 803 -20 565 -20 c 0,3,4
 328 -20 328 -20 207 124.5 c 128,-1,5
 86 269 86 269 86 542 c 0,6,7
 86 822 86 822 207.5 962 c 128,-1,8
 329 1102 329 1102 571 1102 c 0,9,10
 819 1102 819 1102 936 965.5 c 128,-1,11
 1053 829 1053 829 1053 542 c 0,0,1
864 542 m 0,12,13
 864 766 864 766 797.5 867.5 c 128,-1,14
 731 969 731 969 574 969 c 0,15,16
 416 969 416 969 345.5 865.5 c 128,-1,17
 275 762 275 762 275 542 c 0,18,19
 275 328 275 328 344.5 220.5 c 128,-1,20
 414 113 414 113 563 113 c 0,21,22
 725 113 725 113 794.5 217 c 128,-1,23
 864 321 864 321 864 542 c 0,12,13
EndSplineSet
EndChar

StartChar: p
Encoding: 112 112 83
Width: 1139
GlyphClass: 2
Flags: W
LayerCount: 2
Fore
SplineSet
1053 546 m 0,0,1
 1053 263 1053 263 953.5 121.5 c 128,-1,2
 854 -20 854 -20 655 -20 c 0,3,4
 405 -20 405 -20 319 168 c 1,5,-1
 314 168 l 1,6,7
 318 161 318 161 318 -2 c 2,8,-1
 318 -425 l 1,9,-1
 138 -425 l 1,10,-1
 138 861 l 2,11,12
 138 944 138 944 136.5 999.5 c 128,-1,13
 135 1055 135 1055 132 1082 c 1,14,-1
 306 1082 l 1,15,16
 307 1078 307 1078 309.5 1043 c 128,-1,17
 312 1008 312 1008 314 967.5 c 128,-1,18
 316 927 316 927 316 908 c 1,19,-1
 320 908 l 1,20,21
 368 1008 368 1008 447 1054.5 c 128,-1,22
 526 1101 526 1101 655 1101 c 0,23,24
 855 1101 855 1101 954 967 c 128,-1,25
 1053 833 1053 833 1053 546 c 0,0,1
864 542 m 0,26,27
 864 768 864 768 803 865 c 128,-1,28
 742 962 742 962 609 962 c 0,29,30
 461 962 461 962 389.5 859.5 c 128,-1,31
 318 757 318 757 318 528 c 0,32,33
 318 315 318 315 386 214 c 128,-1,34
 454 113 454 113 607 113 c 0,35,36
 741 113 741 113 802.5 211.5 c 128,-1,37
 864 310 864 310 864 542 c 0,26,27
EndSplineSet
EndChar

StartChar: q
Encoding: 113 113 84
Width: 1139
GlyphClass: 2
Flags: W
LayerCount: 2
Fore
SplineSet
86 536 m 0,0,1
 86 819 86 819 185.5 960.5 c 128,-1,2
 285 1102 285 1102 484 1102 c 0,3,4
 607 1102 607 1102 688 1058.5 c 128,-1,5
 769 1015 769 1015 823 914 c 1,6,7
 823 934 823 934 825 976.5 c 128,-1,8
 827 1019 827 1019 830 1056 c 128,-1,9
 833 1093 833 1093 835 1096 c 2,10,-1
 1008 1096 l 1,11,12
 1004 1067 1004 1067 1002.5 993 c 128,-1,13
 1001 919 1001 919 1001 801 c 2,14,-1
 1001 -425 l 1,15,-1
 821 -425 l 1,16,-1
 821 14 l 1,17,-1
 825 178 l 1,18,-1
 823 178 l 1,19,20
 769 71 769 71 690 25.5 c 128,-1,21
 611 -20 611 -20 484 -20 c 0,22,23
 278 -20 278 -20 182 119 c 128,-1,24
 86 258 86 258 86 536 c 0,0,1
821 554 m 0,25,26
 821 765 821 765 752 867 c 128,-1,27
 683 969 683 969 532 969 c 0,28,29
 395 969 395 969 335 867 c 128,-1,30
 275 765 275 765 275 542 c 0,31,32
 275 315 275 315 335.5 217 c 128,-1,33
 396 119 396 119 530 119 c 0,34,35
 683 119 683 119 752 228 c 128,-1,36
 821 337 821 337 821 554 c 0,25,26
EndSplineSet
EndChar

StartChar: r
Encoding: 114 114 85
Width: 682
GlyphClass: 2
Flags: W
LayerCount: 2
Fore
SplineSet
322 564 m 2,0,-1
 322 0 l 1,1,-1
 142 0 l 1,2,-1
 142 830 l 2,3,4
 142 887 142 887 140.5 950 c 128,-1,5
 139 1013 139 1013 136 1082 c 1,6,-1
 306 1082 l 1,7,8
 308 1036 308 1036 309.5 999 c 128,-1,9
 311 962 311 962 312 934.5 c 128,-1,10
 313 907 313 907 313.5 888.5 c 128,-1,11
 314 870 314 870 314 861 c 1,12,-1
 318 861 l 1,13,14
 348 959 348 959 384 1013 c 0,15,16
 419 1063 419 1063 464 1082.5 c 128,-1,17
 509 1102 509 1102 575 1102 c 0,18,19
 612 1102 612 1102 648 1092 c 1,20,-1
 648 927 l 1,21,22
 614 937 614 937 552 937 c 0,23,24
 440 937 440 937 381 840.5 c 128,-1,25
 322 744 322 744 322 564 c 2,0,-1
EndSplineSet
EndChar

StartChar: s
Encoding: 115 115 86
Width: 1024
GlyphClass: 2
Flags: W
LayerCount: 2
Fore
SplineSet
950 299 m 0,0,1
 950 146 950 146 834.5 63 c 128,-1,2
 719 -20 719 -20 511 -20 c 0,3,4
 309 -20 309 -20 199.5 46.5 c 128,-1,5
 90 113 90 113 57 254 c 1,6,-1
 216 285 l 1,7,8
 239 198 239 198 311 157.5 c 128,-1,9
 383 117 383 117 511 117 c 0,10,11
 648 117 648 117 711.5 159 c 128,-1,12
 775 201 775 201 775 285 c 0,13,14
 775 349 775 349 731 389 c 128,-1,15
 687 429 687 429 589 455 c 0,16,17
 473 486 473 486 404.5 506 c 128,-1,18
 336 526 336 526 299 540.5 c 128,-1,19
 262 555 262 555 240 568 c 0,20,21
 174 606 174 606 137 661 c 128,-1,22
 100 716 100 716 100 796 c 0,23,24
 100 944 100 944 205.5 1021.5 c 128,-1,25
 311 1099 311 1099 513 1099 c 0,26,27
 692 1099 692 1099 797.5 1036 c 128,-1,28
 903 973 903 973 931 834 c 1,29,-1
 769 814 l 1,30,31
 754 886 754 886 688.5 924.5 c 128,-1,32
 623 963 623 963 513 963 c 0,33,34
 391 963 391 963 333 926 c 128,-1,35
 275 889 275 889 275 814 c 0,36,37
 275 759 275 759 308 723.5 c 128,-1,38
 341 688 341 688 434 665 c 0,39,40
 559 635 559 635 672 599.5 c 128,-1,41
 785 564 785 564 834 529 c 0,42,43
 891 488 891 488 920.5 432.5 c 128,-1,44
 950 377 950 377 950 299 c 0,0,1
EndSplineSet
EndChar

StartChar: t
Encoding: 116 116 87
Width: 569
GlyphClass: 2
Flags: W
LayerCount: 2
Fore
SplineSet
554 8 m 1,0,1
 466 -16 466 -16 372 -16 c 0,2,3
 264 -16 264 -16 210 45.5 c 128,-1,4
 156 107 156 107 156 229 c 2,5,-1
 156 951 l 1,6,-1
 31 951 l 1,7,-1
 31 1082 l 1,8,-1
 163 1082 l 1,9,-1
 216 1324 l 1,10,-1
 336 1324 l 1,11,-1
 336 1082 l 1,12,-1
 536 1082 l 1,13,-1
 536 951 l 1,14,-1
 336 951 l 1,15,-1
 336 268 l 2,16,17
 336 190 336 190 361.5 158.5 c 128,-1,18
 387 127 387 127 450 127 c 0,19,20
 484 127 484 127 554 141 c 1,21,-1
 554 8 l 1,0,1
EndSplineSet
EndChar

StartChar: u
Encoding: 117 117 88
Width: 1139
GlyphClass: 2
Flags: W
LayerCount: 2
Fore
SplineSet
822 185 m 1,0,1
 760 73 760 73 678.5 26.5 c 128,-1,2
 597 -20 597 -20 476 -20 c 0,3,4
 298 -20 298 -20 215.5 68.5 c 128,-1,5
 133 157 133 157 133 361 c 2,6,-1
 133 1082 l 1,7,-1
 314 1082 l 1,8,-1
 314 396 l 2,9,10
 314 234 314 234 364.5 176.5 c 128,-1,11
 415 119 415 119 537 119 c 0,12,13
 667 119 667 119 742 208 c 128,-1,14
 817 297 817 297 817 455 c 2,15,-1
 817 1082 l 1,16,-1
 997 1082 l 1,17,-1
 997 231 l 2,18,19
 997 137 997 137 998.5 79 c 128,-1,20
 1000 21 1000 21 1003 0 c 1,21,-1
 833 0 l 1,22,23
 832 5 832 5 829.5 47 c 128,-1,24
 827 89 827 89 825 185 c 1,25,-1
 822 185 l 1,0,1
EndSplineSet
EndChar

StartChar: v
Encoding: 118 118 89
Width: 1024
GlyphClass: 2
Flags: W
LayerCount: 2
Fore
SplineSet
1017 1082 m 1,0,-1
 613 0 l 1,1,-1
 400 0 l 1,2,-1
 7 1082 l 1,3,-1
 199 1082 l 1,4,-1
 437 378 l 2,5,6
 444 358 444 358 461 298.5 c 128,-1,7
 478 239 478 239 506 141 c 1,8,9
 519 180 519 180 531.5 222.5 c 128,-1,10
 544 265 544 265 556.5 305 c 128,-1,11
 569 345 569 345 580 376 c 2,12,-1
 826 1082 l 1,13,-1
 1017 1082 l 1,0,-1
EndSplineSet
EndChar

StartChar: w
Encoding: 119 119 90
Width: 1479
GlyphClass: 2
Flags: W
LayerCount: 2
Fore
SplineSet
704 765 m 2,0,-1
 508 0 l 1,1,-1
 300 0 l 1,2,-1
 -3 1082 l 1,3,-1
 175 1082 l 1,4,-1
 361 333 l 2,5,6
 369 301 369 301 380 252 c 128,-1,7
 391 203 391 203 401 149 c 1,8,9
 412 196 412 196 423.5 243 c 128,-1,10
 435 290 435 290 447 336 c 2,11,-1
 644 1082 l 1,12,-1
 837 1082 l 1,13,-1
 1026 339 l 2,14,15
 1038 292 1038 292 1049.5 244 c 128,-1,16
 1061 196 1061 196 1072 149 c 1,17,18
 1083 197 1083 197 1094.5 249.5 c 128,-1,19
 1106 302 1106 302 1116 342 c 2,20,-1
 1308 1082 l 1,21,-1
 1484 1082 l 1,22,-1
 1174 0 l 1,23,-1
 965 0 l 1,24,-1
 776 765 l 2,25,26
 766 807 766 807 757.5 849.5 c 128,-1,27
 749 892 749 892 740 934 c 1,28,29
 736 912 736 912 725.5 859.5 c 128,-1,30
 715 807 715 807 704 765 c 2,0,-1
EndSplineSet
EndChar

StartChar: x
Encoding: 120 120 91
Width: 1024
GlyphClass: 2
Flags: W
LayerCount: 2
Fore
SplineSet
510 444 m 1,0,-1
 217 0 l 1,1,-1
 23 0 l 1,2,-1
 408 556 l 1,3,-1
 41 1082 l 1,4,-1
 240 1082 l 1,5,-1
 510 661 l 1,6,-1
 778 1082 l 1,7,-1
 979 1082 l 1,8,-1
 612 558 l 1,9,-1
 1002 0 l 1,10,-1
 801 0 l 1,11,-1
 510 444 l 1,0,-1
EndSplineSet
EndChar

StartChar: y
Encoding: 121 121 92
Width: 1024
GlyphClass: 2
Flags: W
LayerCount: 2
Fore
SplineSet
191 -425 m 0,0,1
 119 -425 119 -425 67 -414 c 1,2,-1
 67 -279 l 1,3,4
 105 -285 105 -285 151 -285 c 0,5,6
 235 -285 235 -285 306.5 -222.5 c 128,-1,7
 378 -160 378 -160 434 5 c 1,8,-1
 5 1082 l 1,9,-1
 197 1082 l 1,10,-1
 425 484 l 2,11,12
 450 420 450 420 478.5 339 c 128,-1,13
 507 258 507 258 523 196 c 1,14,15
 548 267 548 267 573.5 337 c 128,-1,16
 599 407 599 407 623 477 c 2,17,-1
 830 1082 l 1,18,-1
 1020 1082 l 1,19,-1
 604 0 l 2,20,21
 570 -86 570 -86 539 -150.5 c 128,-1,22
 508 -215 508 -215 479 -257 c 0,23,24
 421 -342 421 -342 350.5 -383.5 c 128,-1,25
 280 -425 280 -425 191 -425 c 0,0,1
EndSplineSet
EndChar

StartChar: z
Encoding: 122 122 93
Width: 1024
GlyphClass: 2
Flags: W
LayerCount: 2
Fore
SplineSet
922 139 m 1,0,-1
 922 0 l 1,1,-1
 83 0 l 1,2,-1
 83 137 l 1,3,-1
 688 943 l 1,4,-1
 117 943 l 1,5,-1
 117 1082 l 1,6,-1
 901 1082 l 1,7,-1
 901 945 l 1,8,-1
 295 139 l 1,9,-1
 922 139 l 1,0,-1
EndSplineSet
EndChar

StartChar: braceleft
Encoding: 123 123 94
Width: 684
GlyphClass: 2
Flags: W
LayerCount: 2
Fore
SplineSet
513 -425 m 2,0,1
 386 -425 386 -425 317.5 -348 c 128,-1,2
 249 -271 249 -271 249 -132 c 2,3,-1
 249 229 l 2,4,5
 249 346 249 346 196.5 403.5 c 128,-1,6
 144 461 144 461 34 466 c 1,7,-1
 34 593 l 1,8,9
 143 597 143 597 196 654.5 c 128,-1,10
 249 712 249 712 249 829 c 2,11,-1
 249 1191 l 2,12,13
 249 1332 249 1332 315.5 1408 c 128,-1,14
 382 1484 382 1484 513 1484 c 2,15,-1
 648 1484 l 1,16,-1
 648 1355 l 1,17,-1
 585 1355 l 2,18,19
 494 1355 494 1355 455.5 1301.5 c 128,-1,20
 417 1248 417 1248 417 1140 c 2,21,-1
 417 784 l 2,22,23
 417 690 417 690 364 621.5 c 128,-1,24
 311 553 311 553 223 532 c 1,25,-1
 223 530 l 1,26,27
 312 509 312 509 364.5 441 c 128,-1,28
 417 373 417 373 417 276 c 2,29,-1
 417 -81 l 2,30,31
 417 -187 417 -187 455.5 -241.5 c 128,-1,32
 494 -296 494 -296 585 -296 c 2,33,-1
 648 -296 l 1,34,-1
 648 -425 l 1,35,-1
 513 -425 l 2,0,1
EndSplineSet
EndChar

StartChar: bar
Encoding: 124 124 95
Width: 532
GlyphClass: 2
Flags: W
LayerCount: 2
Fore
SplineSet
349 1484 m 1,0,-1
 349 -434 l 1,1,-1
 183 -434 l 1,2,-1
 183 1484 l 1,3,-1
 349 1484 l 1,0,-1
EndSplineSet
EndChar

StartChar: braceright
Encoding: 125 125 96
Width: 684
GlyphClass: 2
Flags: W
LayerCount: 2
Fore
SplineSet
34 -296 m 1,0,-1
 94 -296 l 2,1,2
 185 -296 185 -296 224.5 -241.5 c 128,-1,3
 264 -187 264 -187 264 -81 c 2,4,-1
 264 276 l 2,5,6
 264 374 264 374 316 442 c 128,-1,7
 368 510 368 510 457 530 c 1,8,-1
 457 532 l 1,9,10
 371 552 371 552 317.5 619.5 c 128,-1,11
 264 687 264 687 264 784 c 2,12,-1
 264 1140 l 2,13,14
 264 1248 264 1248 224.5 1301.5 c 128,-1,15
 185 1355 185 1355 94 1355 c 2,16,-1
 34 1355 l 1,17,-1
 34 1484 l 1,18,-1
 166 1484 l 2,19,20
 297 1484 297 1484 363.5 1408 c 128,-1,21
 430 1332 430 1332 430 1191 c 2,22,-1
 430 829 l 2,23,24
 430 713 430 713 483 655 c 128,-1,25
 536 597 536 597 647 593 c 1,26,-1
 647 466 l 1,27,28
 535 462 535 462 482.5 404 c 128,-1,29
 430 346 430 346 430 229 c 2,30,-1
 430 -132 l 2,31,32
 430 -270 430 -270 361.5 -347.5 c 128,-1,33
 293 -425 293 -425 166 -425 c 2,34,-1
 34 -425 l 1,35,-1
 34 -296 l 1,0,-1
EndSplineSet
EndChar

StartChar: asciitilde
Encoding: 126 126 97
Width: 1196
GlyphClass: 2
Flags: W
LayerCount: 2
Fore
SplineSet
844 553 m 0,0,1
 775 553 775 553 702.5 575 c 128,-1,2
 630 597 630 597 557 623 c 0,3,4
 428 668 428 668 340 668 c 0,5,6
 273 668 273 668 215 647.5 c 128,-1,7
 157 627 157 627 92 580 c 1,8,-1
 92 723 l 1,9,10
 203 807 203 807 355 807 c 0,11,12
 409 807 409 807 471 794 c 0,13,14
 503 787 503 787 551 772.5 c 128,-1,15
 599 758 599 758 664 735 c 0,16,17
 695 723 695 723 755 706.5 c 128,-1,18
 815 690 815 690 860 690 c 0,19,20
 989 690 989 690 1104 782 c 1,21,-1
 1104 633 l 1,22,23
 1046 591 1046 591 987.5 572 c 128,-1,24
 929 553 929 553 844 553 c 0,0,1
EndSplineSet
EndChar

StartChar: exclamdown
Encoding: 161 161 99
Width: 682
GlyphClass: 2
Flags: W
LayerCount: 2
Fore
SplineSet
440 1082 m 1,0,-1
 440 881 l 1,1,-1
 246 881 l 1,2,-1
 246 1082 l 1,3,-1
 440 1082 l 1,0,-1
242 -327 m 1,4,-1
 266 685 l 1,5,-1
 414 685 l 1,6,-1
 438 -327 l 1,7,-1
 242 -327 l 1,4,-1
EndSplineSet
EndChar

StartChar: cent
Encoding: 162 162 100
Width: 1139
GlyphClass: 2
Flags: W
LayerCount: 2
Fore
SplineSet
596 277 m 0,0,1
 692 277 692 277 756.5 329 c 128,-1,2
 821 381 821 381 836 489 c 1,3,-1
 1018 477 l 1,4,5
 999 333 999 333 904 242 c 128,-1,6
 809 151 809 151 662 137 c 1,7,-1
 662 -31 l 1,8,-1
 538 -31 l 1,9,-1
 538 137 l 1,10,11
 339 155 339 155 237 297.5 c 128,-1,12
 135 440 135 440 135 697 c 0,13,14
 135 950 135 950 237 1093.5 c 128,-1,15
 339 1237 339 1237 538 1254 c 1,16,-1
 538 1409 l 1,17,-1
 662 1409 l 1,18,-1
 662 1254 l 1,19,20
 805 1239 805 1239 895 1156 c 128,-1,21
 985 1073 985 1073 1012 934 c 1,22,-1
 827 920 l 1,23,24
 813 1010 813 1010 756 1063 c 128,-1,25
 699 1116 699 1116 594 1116 c 0,26,27
 451 1116 451 1116 387 1021 c 128,-1,28
 323 926 323 926 323 701 c 0,29,30
 323 485 323 485 391 381 c 128,-1,31
 459 277 459 277 596 277 c 0,0,1
EndSplineSet
EndChar

StartChar: sterling
Encoding: 163 163 101
Width: 1139
GlyphClass: 2
Flags: W
LayerCount: 2
Fore
SplineSet
1050 0 m 1,0,-1
 69 0 l 1,1,-1
 69 154 l 1,2,3
 158 200 158 200 201 280 c 128,-1,4
 244 360 244 360 244 481 c 2,5,-1
 244 625 l 1,6,-1
 58 625 l 1,7,-1
 58 754 l 1,8,-1
 244 754 l 1,9,-1
 244 1034 l 2,10,11
 244 1229 244 1229 347 1329.5 c 128,-1,12
 450 1430 450 1430 646 1430 c 0,13,14
 793 1430 793 1430 893 1369.5 c 128,-1,15
 993 1309 993 1309 1027 1200 c 1,16,-1
 853 1143 l 1,17,18
 832 1207 832 1207 776.5 1244.5 c 128,-1,19
 721 1282 721 1282 650 1282 c 0,20,21
 536 1282 536 1282 480 1224.5 c 128,-1,22
 424 1167 424 1167 424 1042 c 2,23,-1
 424 754 l 1,24,-1
 832 754 l 1,25,-1
 832 625 l 1,26,-1
 424 625 l 1,27,-1
 424 499 l 2,28,29
 424 380 424 380 378 287 c 128,-1,30
 332 194 332 194 255 153 c 1,31,-1
 1050 153 l 1,32,-1
 1050 0 l 1,0,-1
EndSplineSet
EndChar

StartChar: currency
Encoding: 164 164 102
Width: 1139
Flags: W
LayerCount: 2
Fore
SplineSet
137 684 m 256,0,1
 137 822 137 822 215 936 c 1,2,-1
 115 1036 l 1,3,-1
 219 1139 l 1,4,-1
 318 1038 l 1,5,6
 431 1120 431 1120 572 1120 c 0,7,8
 708 1120 708 1120 823 1040 c 1,9,-1
 920 1137 l 1,10,-1
 1024 1032 l 1,11,-1
 928 936 l 1,12,13
 1008 818 1008 818 1008 684 c 0,14,15
 1008 545 1008 545 926 432 c 1,16,-1
 1026 332 l 1,17,-1
 924 227 l 1,18,-1
 823 328 l 1,19,20
 709 250 709 250 572 250 c 0,21,22
 430 250 430 250 320 330 c 1,23,-1
 215 225 l 1,24,-1
 113 330 l 1,25,-1
 215 432 l 1,26,27
 137 546 137 546 137 684 c 256,0,1
291 686 m 0,28,29
 291 608 291 608 329.5 544.5 c 128,-1,30
 368 481 368 481 432 443.5 c 128,-1,31
 496 406 496 406 572 406 c 256,32,33
 648 406 648 406 711.5 443.5 c 128,-1,34
 775 481 775 481 813.5 544.5 c 128,-1,35
 852 608 852 608 852 686 c 256,36,37
 852 764 852 764 813.5 828 c 128,-1,38
 775 892 775 892 711.5 929.5 c 128,-1,39
 648 967 648 967 572 967 c 256,40,41
 496 967 496 967 432.5 929.5 c 128,-1,42
 369 892 369 892 330 828.5 c 128,-1,43
 291 765 291 765 291 686 c 0,28,29
EndSplineSet
EndChar

StartChar: yen
Encoding: 165 165 103
Width: 1139
GlyphClass: 2
Flags: W
LayerCount: 2
Fore
SplineSet
658 303 m 1,0,-1
 658 0 l 1,1,-1
 480 0 l 1,2,-1
 480 303 l 1,3,-1
 99 303 l 1,4,-1
 99 430 l 1,5,-1
 480 430 l 1,6,-1
 482 584 l 1,7,-1
 99 584 l 1,8,-1
 99 709 l 1,9,-1
 419 709 l 1,10,-1
 -2 1409 l 1,11,-1
 197 1409 l 1,12,-1
 568 762 l 1,13,-1
 943 1409 l 1,14,-1
 1142 1409 l 1,15,-1
 720 709 l 1,16,-1
 1041 709 l 1,17,-1
 1041 584 l 1,18,-1
 658 584 l 1,19,-1
 658 430 l 1,20,-1
 1041 430 l 1,21,-1
 1041 303 l 1,22,-1
 658 303 l 1,0,-1
EndSplineSet
EndChar

StartChar: brokenbar
Encoding: 166 166 104
Width: 532
Flags: W
LayerCount: 2
Fore
SplineSet
349 1484 m 1,0,-1
 349 706 l 1,1,-1
 183 706 l 1,2,-1
 183 1484 l 1,3,-1
 349 1484 l 1,0,-1
349 345 m 1,4,-1
 349 -434 l 1,5,-1
 183 -434 l 1,6,-1
 183 345 l 1,7,-1
 349 345 l 1,4,-1
EndSplineSet
EndChar

StartChar: section
Encoding: 167 167 105
Width: 1139
GlyphClass: 2
Flags: W
LayerCount: 2
Fore
SplineSet
588 1484 m 0,0,1
 761 1484 761 1484 867.5 1417.5 c 128,-1,2
 974 1351 974 1351 1001 1224 c 1,3,-1
 840 1204 l 1,4,5
 827 1279 827 1279 764 1316.5 c 128,-1,6
 701 1354 701 1354 588 1354 c 0,7,8
 463 1354 463 1354 398.5 1314.5 c 128,-1,9
 334 1275 334 1275 334 1204 c 0,10,11
 334 1156 334 1156 364.5 1121 c 128,-1,12
 395 1086 395 1086 450 1060 c 0,13,14
 507 1034 507 1034 635 1003 c 0,15,16
 778 969 778 969 860 927 c 0,17,18
 938 885 938 885 981 826 c 128,-1,19
 1024 767 1024 767 1024 686 c 0,20,21
 1024 587 1024 587 964.5 512 c 128,-1,22
 905 437 905 437 805 413 c 1,23,24
 917 365 917 365 967.5 300.5 c 128,-1,25
 1018 236 1018 236 1018 145 c 0,26,27
 1018 -3 1018 -3 902.5 -87.5 c 128,-1,28
 787 -172 787 -172 577 -172 c 0,29,30
 368 -172 368 -172 258.5 -105.5 c 128,-1,31
 149 -39 149 -39 115 100 c 1,32,-1
 276 131 l 1,33,34
 296 41 296 41 364 0 c 128,-1,35
 432 -41 432 -41 577 -41 c 0,36,37
 713 -41 713 -41 785.5 3 c 128,-1,38
 858 47 858 47 858 129 c 0,39,40
 858 186 858 186 825.5 224.5 c 128,-1,41
 793 263 793 263 731 292 c 0,42,43
 670 321 670 321 518 358 c 0,44,45
 324 403 324 403 238.5 481 c 128,-1,46
 153 559 153 559 153 671 c 0,47,48
 153 760 153 760 214.5 834 c 128,-1,49
 276 908 276 908 381 938 c 1,50,51
 285 970 285 970 229.5 1037 c 128,-1,52
 174 1104 174 1104 174 1190 c 0,53,54
 174 1329 174 1329 279.5 1406.5 c 128,-1,55
 385 1484 385 1484 588 1484 c 0,0,1
866 663 m 0,56,57
 866 735 866 735 797 787 c 0,58,59
 727 840 727 840 551 880 c 1,60,61
 442 874 442 874 377.5 821 c 128,-1,62
 313 768 313 768 313 684 c 0,63,64
 313 635 313 635 343 598.5 c 128,-1,65
 373 562 373 562 428 535 c 0,66,67
 484 508 484 508 612 475 c 1,68,69
 731 477 731 477 798.5 527.5 c 128,-1,70
 866 578 866 578 866 663 c 0,56,57
EndSplineSet
EndChar

StartChar: dieresis
Encoding: 168 168 106
Width: 682
GlyphClass: 2
Flags: W
LayerCount: 2
Fore
SplineSet
602 1403 m 1,0,-1
 602 1219 l 1,1,-1
 439 1219 l 1,2,-1
 439 1403 l 1,3,-1
 602 1403 l 1,0,-1
210 1403 m 1,4,-1
 210 1219 l 1,5,-1
 45 1219 l 1,6,-1
 45 1403 l 1,7,-1
 210 1403 l 1,4,-1
EndSplineSet
EndChar

StartChar: copyright
Encoding: 169 169 107
Width: 1509
GlyphClass: 2
Flags: W
LayerCount: 2
Fore
SplineSet
1477 707 m 0,0,1
 1477 514 1477 514 1381 346 c 0,2,3
 1284 177 1284 177 1115.5 80.5 c 128,-1,4
 947 -16 947 -16 754 -16 c 0,5,6
 558 -16 558 -16 388 85 c 0,7,8
 219 186 219 186 125 352 c 128,-1,9
 31 518 31 518 31 707 c 0,10,11
 31 901 31 901 128 1068 c 0,12,13
 225 1236 225 1236 393 1333 c 128,-1,14
 561 1430 561 1430 754 1430 c 0,15,16
 948 1430 948 1430 1117 1333 c 0,17,18
 1285 1236 1285 1236 1381 1068.5 c 128,-1,19
 1477 901 1477 901 1477 707 c 0,0,1
1385 707 m 256,20,21
 1385 876 1385 876 1301 1021 c 0,22,23
 1217 1165 1217 1165 1070.5 1250 c 128,-1,24
 924 1335 924 1335 754 1335 c 0,25,26
 586 1335 586 1335 440 1251 c 0,27,28
 294 1166 294 1166 210 1020 c 128,-1,29
 126 874 126 874 126 707 c 0,30,31
 126 537 126 537 211 392 c 0,32,33
 295 246 295 246 440 162 c 128,-1,34
 585 78 585 78 754 78 c 256,35,36
 923 78 923 78 1070 162 c 256,37,38
 1217 246 1217 246 1301 392 c 128,-1,39
 1385 538 1385 538 1385 707 c 256,20,21
498 709 m 0,40,41
 498 554 498 554 569 468.5 c 128,-1,42
 640 383 640 383 765 383 c 0,43,44
 923 383 923 383 998 539 c 1,45,-1
 1113 504 l 1,46,47
 1051 383 1051 383 966.5 331 c 128,-1,48
 882 279 882 279 765 279 c 0,49,50
 577 279 577 279 473 392 c 128,-1,51
 369 505 369 505 369 709 c 0,52,53
 369 912 369 912 469 1022.5 c 128,-1,54
 569 1133 569 1133 758 1133 c 0,55,56
 1002 1133 1002 1133 1098 924 c 1,57,-1
 984 891 l 1,58,59
 952 960 952 960 894 994 c 128,-1,60
 836 1028 836 1028 760 1028 c 0,61,62
 633 1028 633 1028 565.5 947.5 c 128,-1,63
 498 867 498 867 498 709 c 0,40,41
EndSplineSet
EndChar

StartChar: ordfeminine
Encoding: 170 170 108
Width: 758
GlyphClass: 2
Flags: W
LayerCount: 2
Fore
SplineSet
260 651 m 0,0,1
 152 651 152 651 89 709 c 128,-1,2
 26 767 26 767 26 870 c 0,3,4
 26 1107 26 1107 338 1112 c 2,5,-1
 516 1116 l 1,6,-1
 516 1176 l 2,7,8
 516 1257 516 1257 481 1294 c 128,-1,9
 446 1331 446 1331 365 1331 c 0,10,11
 298 1331 298 1331 257.5 1301.5 c 128,-1,12
 217 1272 217 1272 208 1196 c 1,13,-1
 59 1206 l 1,14,15
 75 1312 75 1312 154.5 1372 c 128,-1,16
 234 1432 234 1432 363 1432 c 0,17,18
 508 1432 508 1432 583.5 1369.5 c 128,-1,19
 659 1307 659 1307 659 1182 c 2,20,-1
 659 874 l 2,21,22
 659 816 659 816 673 791 c 128,-1,23
 687 766 687 766 722 766 c 0,24,25
 732 766 732 766 742.5 768 c 128,-1,26
 753 770 753 770 765 774 c 1,27,-1
 765 670 l 1,28,29
 717 657 717 657 682 657 c 0,30,31
 609 657 609 657 568.5 695 c 128,-1,32
 528 733 528 733 524 798 c 1,33,-1
 520 798 l 1,34,35
 447 651 447 651 260 651 c 0,0,1
299 762 m 0,36,37
 389 762 389 762 452.5 821 c 128,-1,38
 516 880 516 880 516 959 c 2,39,-1
 516 1024 l 1,40,-1
 378 1020 l 2,41,42
 260 1014 260 1014 218 981 c 128,-1,43
 176 948 176 948 176 883 c 0,44,45
 176 762 176 762 299 762 c 0,36,37
EndSplineSet
EndChar

StartChar: guillemotleft
Encoding: 171 171 109
Width: 1139
GlyphClass: 2
Flags: W
LayerCount: 2
Fore
SplineSet
1056 170 m 1,0,-1
 1056 141 l 1,1,-1
 886 141 l 1,2,-1
 548 506 l 1,3,-1
 548 569 l 1,4,-1
 886 940 l 1,5,-1
 1054 940 l 1,6,-1
 1054 909 l 1,7,-1
 716 537 l 1,8,-1
 1056 170 l 1,0,-1
588 170 m 1,9,-1
 588 141 l 1,10,-1
 419 141 l 1,11,-1
 83 506 l 1,12,-1
 83 569 l 1,13,-1
 419 940 l 1,14,-1
 586 940 l 1,15,-1
 586 909 l 1,16,-1
 251 537 l 1,17,-1
 588 170 l 1,9,-1
EndSplineSet
EndChar

StartChar: logicalnot
Encoding: 172 172 110
Width: 1196
GlyphClass: 2
Flags: W
LayerCount: 2
Fore
SplineSet
1095 754 m 1,0,-1
 1095 180 l 1,1,-1
 950 180 l 1,2,-1
 950 608 l 1,3,-1
 100 608 l 1,4,-1
 100 754 l 1,5,-1
 1095 754 l 1,0,-1
EndSplineSet
EndChar

StartChar: registered
Encoding: 174 174 111
Width: 1509
GlyphClass: 2
Flags: W
LayerCount: 2
Fore
SplineSet
1477 707 m 0,0,1
 1477 514 1477 514 1381 346 c 0,2,3
 1284 177 1284 177 1115.5 80.5 c 128,-1,4
 947 -16 947 -16 754 -16 c 0,5,6
 558 -16 558 -16 388 85 c 0,7,8
 219 186 219 186 125 352 c 128,-1,9
 31 518 31 518 31 707 c 0,10,11
 31 901 31 901 128 1068 c 0,12,13
 225 1236 225 1236 393 1333 c 128,-1,14
 561 1430 561 1430 754 1430 c 0,15,16
 948 1430 948 1430 1117 1333 c 0,17,18
 1285 1236 1285 1236 1381 1068.5 c 128,-1,19
 1477 901 1477 901 1477 707 c 0,0,1
1385 707 m 256,20,21
 1385 876 1385 876 1301 1021 c 0,22,23
 1217 1165 1217 1165 1070.5 1250 c 128,-1,24
 924 1335 924 1335 754 1335 c 0,25,26
 586 1335 586 1335 440 1251 c 0,27,28
 294 1166 294 1166 210 1020 c 128,-1,29
 126 874 126 874 126 707 c 0,30,31
 126 537 126 537 211 392 c 0,32,33
 295 246 295 246 440 162 c 128,-1,34
 585 78 585 78 754 78 c 256,35,36
 923 78 923 78 1070 162 c 256,37,38
 1217 246 1217 246 1301 392 c 128,-1,39
 1385 538 1385 538 1385 707 c 256,20,21
595 625 m 1,40,-1
 595 289 l 1,41,-1
 468 289 l 1,42,-1
 468 1120 l 1,43,-1
 775 1120 l 2,44,45
 917 1120 917 1120 992.5 1057 c 128,-1,46
 1068 994 1068 994 1068 883 c 0,47,48
 1068 781 1068 781 1016 719.5 c 128,-1,49
 964 658 964 658 879 639 c 1,50,-1
 1100 289 l 1,51,-1
 955 289 l 1,52,-1
 756 625 l 1,53,-1
 595 625 l 1,40,-1
941 881 m 0,54,55
 941 950 941 950 893.5 986 c 128,-1,56
 846 1022 846 1022 765 1022 c 2,57,-1
 595 1022 l 1,58,-1
 595 721 l 1,59,-1
 777 721 l 2,60,61
 857 721 857 721 899 763.5 c 128,-1,62
 941 806 941 806 941 881 c 0,54,55
EndSplineSet
EndChar

StartChar: macron
Encoding: 175 175 112
Width: 1131
Flags: W
LayerCount: 2
Fore
SplineSet
1148 1546 m 1,0,-1
 1148 1452 l 1,1,-1
 -17 1452 l 1,2,-1
 -17 1546 l 1,3,-1
 1148 1546 l 1,0,-1
EndSplineSet
EndChar

StartChar: degree
Encoding: 176 176 113
Width: 819
GlyphClass: 2
Flags: W
LayerCount: 2
Fore
SplineSet
696 1145 m 0,0,1
 696 1066 696 1066 657 1001 c 128,-1,2
 618 936 618 936 553 898 c 128,-1,3
 488 860 488 860 409 860 c 0,4,5
 331 860 331 860 265.5 899 c 128,-1,6
 200 938 200 938 161 1002.5 c 128,-1,7
 122 1067 122 1067 122 1145 c 256,8,9
 122 1223 122 1223 160.5 1288 c 128,-1,10
 199 1353 199 1353 264 1391.5 c 128,-1,11
 329 1430 329 1430 409 1430 c 256,12,13
 489 1430 489 1430 554 1392 c 128,-1,14
 619 1354 619 1354 657.5 1289.5 c 128,-1,15
 696 1225 696 1225 696 1145 c 0,0,1
587 1145 m 0,16,17
 587 1221 587 1221 535.5 1273 c 128,-1,18
 484 1325 484 1325 409 1325 c 256,19,20
 334 1325 334 1325 282.5 1272 c 128,-1,21
 231 1219 231 1219 231 1145 c 256,22,23
 231 1071 231 1071 283.5 1018 c 128,-1,24
 336 965 336 965 409 965 c 0,25,26
 483 965 483 965 535 1017.5 c 128,-1,27
 587 1070 587 1070 587 1145 c 0,16,17
EndSplineSet
EndChar

StartChar: plusminus
Encoding: 177 177 114
Width: 1124
GlyphClass: 2
Flags: W
LayerCount: 2
Fore
SplineSet
636 680 m 1,0,-1
 636 285 l 1,1,-1
 489 285 l 1,2,-1
 489 680 l 1,3,-1
 65 680 l 1,4,-1
 65 825 l 1,5,-1
 489 825 l 1,6,-1
 489 1219 l 1,7,-1
 636 1219 l 1,8,-1
 636 825 l 1,9,-1
 1060 825 l 1,10,-1
 1060 680 l 1,11,-1
 636 680 l 1,0,-1
1060 145 m 1,12,-1
 1060 0 l 1,13,-1
 65 0 l 1,14,-1
 65 145 l 1,15,-1
 1060 145 l 1,12,-1
EndSplineSet
EndChar

StartChar: uni00B2
Encoding: 178 178 115
Width: 682
Flags: W
LayerCount: 2
Fore
SplineSet
643 676 m 1,0,-1
 643 563 l 1,1,-1
 43 563 l 1,2,-1
 41 666 l 1,3,4
 72 735 72 735 136.5 800.5 c 128,-1,5
 201 866 201 866 308 940 c 0,6,7
 405 1008 405 1008 449 1064 c 128,-1,8
 493 1120 493 1120 493 1178 c 0,9,10
 493 1240 493 1240 457.5 1277.5 c 128,-1,11
 422 1315 422 1315 348 1315 c 0,12,13
 280 1315 280 1315 236 1278.5 c 128,-1,14
 192 1242 192 1242 184 1174 c 1,15,-1
 51 1182 l 1,16,17
 64 1289 64 1289 144.5 1355 c 128,-1,18
 225 1421 225 1421 354 1421 c 0,19,20
 481 1421 481 1421 555.5 1359.5 c 128,-1,21
 630 1298 630 1298 630 1188 c 0,22,23
 630 1041 630 1041 442 903 c 0,24,25
 381 858 381 858 338 824 c 128,-1,26
 295 790 295 790 270 767 c 0,27,28
 218 719 218 719 200 676 c 1,29,-1
 643 676 l 1,0,-1
EndSplineSet
EndChar

StartChar: uni00B3
Encoding: 179 179 116
Width: 682
Flags: W
LayerCount: 2
Fore
SplineSet
642 795 m 0,0,1
 642 679 642 679 564.5 615 c 128,-1,2
 487 551 487 551 345 551 c 0,3,4
 202 551 202 551 122.5 608 c 128,-1,5
 43 665 43 665 27 778 c 1,6,-1
 163 791 l 1,7,8
 181 655 181 655 345 655 c 0,9,10
 505 655 505 655 505 803 c 0,11,12
 505 940 505 940 316 940 c 2,13,-1
 255 940 l 1,14,-1
 255 1049 l 1,15,-1
 312 1049 l 2,16,17
 392 1049 392 1049 438 1085 c 128,-1,18
 484 1121 484 1121 484 1186 c 0,19,20
 484 1246 484 1246 447 1280.5 c 128,-1,21
 410 1315 410 1315 339 1315 c 0,22,23
 271 1315 271 1315 229 1280 c 128,-1,24
 187 1245 187 1245 181 1180 c 1,25,-1
 46 1192 l 1,26,27
 59 1301 59 1301 137.5 1361 c 128,-1,28
 216 1421 216 1421 343 1421 c 0,29,30
 473 1421 473 1421 547 1361.5 c 128,-1,31
 621 1302 621 1302 621 1204 c 0,32,33
 621 1129 621 1129 578 1074 c 128,-1,34
 535 1019 535 1019 445 999 c 1,35,-1
 445 997 l 1,36,37
 536 988 536 988 589 935.5 c 128,-1,38
 642 883 642 883 642 795 c 0,0,1
EndSplineSet
EndChar

StartChar: acute
Encoding: 180 180 117
Width: 682
GlyphClass: 2
Flags: W
LayerCount: 2
Fore
SplineSet
496 1479 m 1,0,-1
 166 1201 l 1,1,-1
 72 1201 l 1,2,-1
 72 1221 l 1,3,-1
 289 1508 l 1,4,-1
 496 1508 l 1,5,-1
 496 1479 l 1,0,-1
EndSplineSet
EndChar

StartChar: mu
Encoding: 181 181 118
Width: 1180
GlyphClass: 2
Flags: W
LayerCount: 2
Fore
SplineSet
140 -425 m 1,0,-1
 140 1082 l 1,1,-1
 321 1082 l 1,2,-1
 321 396 l 2,3,4
 321 258 321 258 374.5 188.5 c 128,-1,5
 428 119 428 119 547 119 c 0,6,7
 675 119 675 119 748 206 c 128,-1,8
 821 293 821 293 821 455 c 2,9,-1
 821 1082 l 1,10,-1
 1001 1082 l 1,11,-1
 1001 266 l 2,12,13
 1001 190 1001 190 1019 155.5 c 128,-1,14
 1037 121 1037 121 1079 121 c 0,15,16
 1103 121 1103 121 1133 129 c 1,17,-1
 1133 0 l 1,18,19
 1101 -10 1101 -10 1072.5 -15 c 128,-1,20
 1044 -20 1044 -20 1020 -20 c 0,21,22
 929 -20 929 -20 881.5 27 c 128,-1,23
 834 74 834 74 829 174 c 1,24,-1
 826 174 l 1,25,26
 773 77 773 77 698.5 28.5 c 128,-1,27
 624 -20 624 -20 527 -20 c 0,28,29
 460 -20 460 -20 405.5 0.5 c 128,-1,30
 351 21 351 21 320 59 c 1,31,-1
 320 -425 l 1,32,-1
 140 -425 l 1,0,-1
EndSplineSet
EndChar

StartChar: paragraph
Encoding: 182 182 119
Width: 1100
GlyphClass: 2
Flags: W
LayerCount: 2
Fore
SplineSet
555 1307 m 1,0,-1
 555 -264 l 1,1,-1
 442 -264 l 1,2,-1
 442 694 l 1,3,4
 274 694 274 694 177 786.5 c 128,-1,5
 80 879 80 879 80 1049 c 0,6,7
 80 1218 80 1218 178.5 1313.5 c 128,-1,8
 277 1409 277 1409 450 1409 c 2,9,-1
 1013 1409 l 1,10,-1
 1013 1307 l 1,11,-1
 884 1307 l 1,12,-1
 884 -264 l 1,13,-1
 772 -264 l 1,14,-1
 772 1307 l 1,15,-1
 555 1307 l 1,0,-1
EndSplineSet
EndChar

StartChar: periodcentered
Encoding: 183 183 120
Width: 682
Flags: W
LayerCount: 2
Fore
SplineSet
438 666 m 1,0,-1
 438 446 l 1,1,-1
 243 446 l 1,2,-1
 243 666 l 1,3,-1
 438 666 l 1,0,-1
EndSplineSet
EndChar

StartChar: cedilla
Encoding: 184 184 121
Width: 682
Flags: W
LayerCount: 2
Fore
SplineSet
483 -253 m 0,0,1
 483 -344 483 -344 414.5 -389 c 128,-1,2
 346 -434 346 -434 209 -434 c 0,3,4
 148 -434 148 -434 119 -430 c 1,5,-1
 119 -332 l 1,6,7
 169 -338 169 -338 205 -338 c 0,8,9
 352 -338 352 -338 352 -257 c 0,10,11
 352 -219 352 -219 319 -199.5 c 128,-1,12
 286 -180 286 -180 219 -180 c 0,13,14
 197 -180 197 -180 183 -180.5 c 128,-1,15
 169 -181 169 -181 162 -182 c 1,16,-1
 227 0 l 1,17,-1
 334 0 l 1,18,-1
 295 -100 l 1,19,20
 389 -103 389 -103 436 -143.5 c 128,-1,21
 483 -184 483 -184 483 -253 c 0,0,1
EndSplineSet
EndChar

StartChar: uni00B9
Encoding: 185 185 122
Width: 682
Flags: W
LayerCount: 2
Fore
SplineSet
637 670 m 1,0,-1
 637 563 l 1,1,-1
 80 563 l 1,2,-1
 80 670 l 1,3,-1
 291 670 l 1,4,-1
 291 1290 l 1,5,-1
 89 1152 l 1,6,-1
 89 1272 l 1,7,-1
 299 1409 l 1,8,-1
 422 1409 l 1,9,-1
 422 670 l 1,10,-1
 637 670 l 1,0,-1
EndSplineSet
EndChar

StartChar: ordmasculine
Encoding: 186 186 123
Width: 748
GlyphClass: 2
Flags: W
LayerCount: 2
Fore
SplineSet
723 1042 m 0,0,1
 723 854 723 854 635 752.5 c 128,-1,2
 547 651 547 651 372 651 c 0,3,4
 204 651 204 651 115.5 751.5 c 128,-1,5
 27 852 27 852 27 1042 c 0,6,7
 27 1231 27 1231 116 1331.5 c 128,-1,8
 205 1432 205 1432 376 1432 c 0,9,10
 549 1432 549 1432 636 1334.5 c 128,-1,11
 723 1237 723 1237 723 1042 c 0,0,1
574 1042 m 0,12,13
 574 1196 574 1196 528.5 1261.5 c 128,-1,14
 483 1327 483 1327 379 1327 c 0,15,16
 271 1327 271 1327 225 1259.5 c 128,-1,17
 179 1192 179 1192 179 1042 c 0,18,19
 179 897 179 897 224.5 826.5 c 128,-1,20
 270 756 270 756 371 756 c 0,21,22
 482 756 482 756 528 825 c 128,-1,23
 574 894 574 894 574 1042 c 0,12,13
EndSplineSet
EndChar

StartChar: guillemotright
Encoding: 187 187 124
Width: 1139
GlyphClass: 2
Flags: W
LayerCount: 2
Fore
SplineSet
718 141 m 1,0,-1
 550 141 l 1,1,-1
 550 170 l 1,2,-1
 888 537 l 1,3,-1
 552 909 l 1,4,-1
 552 940 l 1,5,-1
 718 940 l 1,6,-1
 1056 569 l 1,7,-1
 1056 506 l 1,8,-1
 718 141 l 1,0,-1
253 141 m 1,9,-1
 83 141 l 1,10,-1
 83 170 l 1,11,-1
 421 537 l 1,12,-1
 85 909 l 1,13,-1
 85 940 l 1,14,-1
 253 940 l 1,15,-1
 588 569 l 1,16,-1
 588 506 l 1,17,-1
 253 141 l 1,9,-1
EndSplineSet
EndChar

StartChar: questiondown
Encoding: 191 191 128
Width: 1251
GlyphClass: 2
Flags: W
LayerCount: 2
Fore
SplineSet
756 1082 m 1,0,-1
 756 881 l 1,1,-1
 561 881 l 1,2,-1
 561 1082 l 1,3,-1
 756 1082 l 1,0,-1
131 50 m 0,4,5
 131 163 131 163 181 243.5 c 128,-1,6
 231 324 231 324 350 411 c 2,7,-1
 431 470 l 2,8,9
 572 572 572 572 573 705 c 1,10,-1
 748 705 l 1,11,12
 746 613 746 613 713 550.5 c 128,-1,13
 680 488 680 488 630.5 443.5 c 128,-1,14
 581 399 581 399 527 361 c 0,15,16
 470 320 470 320 421.5 280 c 128,-1,17
 373 240 373 240 343 187.5 c 128,-1,18
 313 135 313 135 313 58 c 0,19,20
 313 -56 313 -56 390.5 -122 c 128,-1,21
 468 -188 468 -188 608 -188 c 256,22,23
 748 -188 748 -188 830 -118 c 128,-1,24
 912 -48 912 -48 926 74 c 1,25,-1
 1110 62 l 1,26,27
 1084 -136 1084 -136 954 -242 c 128,-1,28
 824 -348 824 -348 610 -348 c 0,29,30
 387 -348 387 -348 259 -242.5 c 128,-1,31
 131 -137 131 -137 131 50 c 0,4,5
EndSplineSet
EndChar

StartChar: AE
Encoding: 198 198 135
Width: 2048
GlyphClass: 2
Flags: W
LayerCount: 2
Fore
SplineSet
421 412 m 1,0,-1
 223 0 l 1,1,-1
 24 0 l 1,2,-1
 710 1409 l 1,3,-1
 1919 1409 l 1,4,-1
 1919 1253 l 1,5,-1
 1160 1253 l 1,6,-1
 1160 801 l 1,7,-1
 1859 801 l 1,8,-1
 1859 647 l 1,9,-1
 1160 647 l 1,10,-1
 1160 156 l 1,11,-1
 1960 156 l 1,12,-1
 1960 0 l 1,13,-1
 969 0 l 1,14,-1
 969 412 l 1,15,-1
 421 412 l 1,0,-1
491 561 m 1,16,-1
 969 561 l 1,17,-1
 969 1262 l 1,18,-1
 818 1262 l 1,19,-1
 491 561 l 1,16,-1
EndSplineSet
EndChar

StartChar: Eth
Encoding: 208 208 145
Width: 1479
Flags: W
LayerCount: 2
Fore
SplineSet
1381 719 m 0,0,1
 1381 495 1381 495 1294.5 334 c 128,-1,2
 1208 173 1208 173 1053.5 86.5 c 128,-1,3
 899 0 899 0 695 0 c 2,4,-1
 168 0 l 1,5,-1
 168 647 l 1,6,-1
 14 647 l 1,7,-1
 14 801 l 1,8,-1
 168 801 l 1,9,-1
 168 1409 l 1,10,-1
 634 1409 l 2,11,12
 992 1409 992 1409 1186.5 1229.5 c 128,-1,13
 1381 1050 1381 1050 1381 719 c 0,0,1
1189 719 m 0,14,15
 1189 981 1189 981 1045.5 1118.5 c 128,-1,16
 902 1256 902 1256 630 1256 c 2,17,-1
 359 1256 l 1,18,-1
 359 801 l 1,19,-1
 765 801 l 1,20,-1
 765 647 l 1,21,-1
 359 647 l 1,22,-1
 359 153 l 1,23,-1
 673 153 l 2,24,25
 832 153 832 153 948 222 c 128,-1,26
 1064 291 1064 291 1126.5 418 c 128,-1,27
 1189 545 1189 545 1189 719 c 0,14,15
EndSplineSet
EndChar

StartChar: multiply
Encoding: 215 215 152
Width: 1196
Flags: W
LayerCount: 2
Fore
SplineSet
600 580 m 1,0,-1
 244 225 l 1,1,-1
 142 330 l 1,2,-1
 496 684 l 1,3,-1
 144 1036 l 1,4,-1
 248 1139 l 1,5,-1
 598 786 l 1,6,-1
 948 1137 l 1,7,-1
 1053 1032 l 1,8,-1
 703 684 l 1,9,-1
 1055 332 l 1,10,-1
 953 227 l 1,11,-1
 600 580 l 1,0,-1
EndSplineSet
EndChar

StartChar: Oslash
Encoding: 216 216 153
Width: 1593
GlyphClass: 2
Flags: W
LayerCount: 2
Fore
SplineSet
1495 711 m 0,0,1
 1495 491 1495 491 1409.5 326.5 c 128,-1,2
 1324 162 1324 162 1167 71 c 128,-1,3
 1010 -20 1010 -20 795 -20 c 0,4,5
 548 -20 548 -20 381 92 c 1,6,-1
 261 -53 l 1,7,-1
 71 -53 l 1,8,-1
 271 188 l 1,9,10
 97 380 97 380 97 711 c 0,11,12
 97 937 97 937 180.5 1097.5 c 128,-1,13
 264 1258 264 1258 420.5 1344 c 128,-1,14
 577 1430 577 1430 797 1430 c 0,15,16
 1044 1430 1044 1430 1211 1320 c 1,17,-1
 1332 1466 l 1,18,-1
 1524 1466 l 1,19,-1
 1323 1224 l 1,20,21
 1409 1129 1409 1129 1452 1000.5 c 128,-1,22
 1495 872 1495 872 1495 711 c 0,0,1
291 711 m 0,23,24
 291 482 291 482 392 333 c 1,25,-1
 1099 1186 l 1,26,27
 975 1274 975 1274 797 1274 c 0,28,29
 555 1274 555 1274 423 1126 c 128,-1,30
 291 978 291 978 291 711 c 0,23,24
1300 711 m 0,31,32
 1300 934 1300 934 1202 1079 c 1,33,-1
 493 226 l 1,34,35
 614 135 614 135 795 135 c 0,36,37
 1039 135 1039 135 1169.5 285.5 c 128,-1,38
 1300 436 1300 436 1300 711 c 0,31,32
EndSplineSet
EndChar

StartChar: Thorn
Encoding: 222 222 159
Width: 1366
Flags: W
LayerCount: 2
Fore
SplineSet
1258 735 m 0,0,1
 1258 608 1258 608 1199.5 509 c 128,-1,2
 1141 410 1141 410 1032 353.5 c 128,-1,3
 923 297 923 297 773 297 c 2,4,-1
 359 297 l 1,5,-1
 359 0 l 1,6,-1
 168 0 l 1,7,-1
 168 1409 l 1,8,-1
 359 1409 l 1,9,-1
 359 1157 l 1,10,-1
 761 1157 l 2,11,12
 1000 1157 1000 1157 1129 1046 c 128,-1,13
 1258 935 1258 935 1258 735 c 0,0,1
1066 731 m 0,14,15
 1066 865 1066 865 984 939.5 c 128,-1,16
 902 1014 902 1014 738 1014 c 2,17,-1
 359 1014 l 1,18,-1
 359 438 l 1,19,-1
 746 438 l 2,20,21
 899 438 899 438 982.5 515.5 c 128,-1,22
 1066 593 1066 593 1066 731 c 0,14,15
EndSplineSet
EndChar

StartChar: germandbls
Encoding: 223 223 160
Width: 1251
GlyphClass: 2
Flags: W
LayerCount: 2
Fore
SplineSet
1167 295 m 0,0,1
 1167 145 1167 145 1073 62.5 c 128,-1,2
 979 -20 979 -20 809 -20 c 0,3,4
 637 -20 637 -20 526 29 c 1,5,-1
 524 193 l 1,6,7
 576 164 576 164 656 144 c 128,-1,8
 736 124 736 124 805 124 c 0,9,10
 897 124 897 124 946 167 c 128,-1,11
 995 210 995 210 995 289 c 0,12,13
 995 353 995 353 952.5 404 c 128,-1,14
 910 455 910 455 813 513 c 0,15,16
 721 567 721 567 675.5 633 c 128,-1,17
 630 699 630 699 630 785 c 0,18,19
 630 846 630 846 658.5 896 c 128,-1,20
 687 946 687 946 741 991 c 0,21,22
 799 1039 799 1039 825.5 1081 c 128,-1,23
 852 1123 852 1123 852 1173 c 0,24,25
 852 1250 852 1250 785 1296.5 c 128,-1,26
 718 1343 718 1343 609 1343 c 0,27,28
 461 1343 461 1343 391.5 1263 c 128,-1,29
 322 1183 322 1183 322 1021 c 2,30,-1
 322 0 l 1,31,-1
 142 0 l 1,32,-1
 142 1027 l 2,33,34
 142 1254 142 1254 259.5 1369 c 128,-1,35
 377 1484 377 1484 609 1484 c 0,36,37
 799 1484 799 1484 911.5 1403.5 c 128,-1,38
 1024 1323 1024 1323 1024 1187 c 0,39,40
 1024 1116 1024 1116 995.5 1054.5 c 128,-1,41
 967 993 967 993 911 941 c 0,42,43
 857 892 857 892 833.5 866.5 c 128,-1,44
 810 841 810 841 804 825.5 c 128,-1,45
 798 810 798 810 798 791 c 0,46,47
 798 756 798 756 824.5 725.5 c 128,-1,48
 851 695 851 695 893 666 c 128,-1,49
 935 637 935 637 983 605 c 0,50,51
 1167 481 1167 481 1167 295 c 0,0,1
EndSplineSet
EndChar

StartChar: ae
Encoding: 230 230 167
Width: 1821
GlyphClass: 2
Flags: W
LayerCount: 2
Fore
SplineSet
1701 236 m 1,0,1
 1604 -20 1604 -20 1260 -20 c 0,2,3
 939 -20 939 -20 837 237 c 1,4,5
 758 97 758 97 653 38.5 c 128,-1,6
 548 -20 548 -20 402 -20 c 0,7,8
 235 -20 235 -20 150.5 66 c 128,-1,9
 66 152 66 152 66 302 c 0,10,11
 66 649 66 649 546 656 c 2,12,-1
 786 660 l 1,13,-1
 786 719 l 2,14,15
 786 854 786 854 730.5 909.5 c 128,-1,16
 675 965 675 965 554 965 c 0,17,18
 428 965 428 965 371.5 925 c 128,-1,19
 315 885 315 885 302 793 c 1,20,-1
 114 810 l 1,21,22
 137 956 137 956 248 1029 c 128,-1,23
 359 1102 359 1102 558 1102 c 0,24,25
 808 1102 808 1102 907 963 c 1,26,27
 1025 1102 1025 1102 1253 1102 c 0,28,29
 1492 1102 1492 1102 1611 958 c 128,-1,30
 1730 814 1730 814 1730 527 c 2,31,-1
 1730 503 l 1,32,-1
 968 503 l 1,33,34
 968 309 968 309 1044 212 c 128,-1,35
 1120 115 1120 115 1260 115 c 0,36,37
 1377 115 1377 115 1447.5 162 c 128,-1,38
 1518 209 1518 209 1543 281 c 1,39,-1
 1701 236 l 1,0,1
1544 641 m 1,40,41
 1529 812 1529 812 1457 890.5 c 128,-1,42
 1385 969 1385 969 1250 969 c 0,43,44
 1123 969 1123 969 1049.5 883.5 c 128,-1,45
 976 798 976 798 970 641 c 1,46,-1
 1544 641 l 1,40,41
251 299 m 0,47,48
 251 212 251 212 301 163.5 c 128,-1,49
 351 115 351 115 444 115 c 0,50,51
 547 115 547 115 623 160 c 0,52,53
 700 204 700 204 743 281.5 c 128,-1,54
 786 359 786 359 786 445 c 2,55,-1
 786 534 l 1,56,-1
 591 530 l 2,57,58
 460 527 460 527 388 501 c 0,59,60
 318 474 318 474 284.5 423.5 c 128,-1,61
 251 373 251 373 251 299 c 0,47,48
EndSplineSet
EndChar

StartChar: eth
Encoding: 240 240 177
Width: 1139
Flags: W
LayerCount: 2
Fore
SplineSet
566 -20 m 0,0,1
 334 -20 334 -20 210 109 c 128,-1,2
 86 238 86 238 86 481 c 0,3,4
 86 725 86 725 210 852 c 128,-1,5
 334 979 334 979 573 979 c 0,6,7
 709 979 709 979 804 920 c 1,8,9
 695 1137 695 1137 570 1251 c 1,10,-1
 269 1118 l 1,11,-1
 269 1232 l 1,12,-1
 487 1326 l 1,13,14
 432 1370 432 1370 372 1409.5 c 128,-1,15
 312 1449 312 1449 245 1484 c 1,16,-1
 454 1484 l 1,17,18
 535 1447 535 1447 624 1382 c 1,19,-1
 930 1514 l 1,20,-1
 929 1402 l 1,21,-1
 718 1310 l 1,22,23
 889 1154 889 1154 976 951 c 128,-1,24
 1063 748 1063 748 1063 516 c 0,25,26
 1063 251 1063 251 938.5 115.5 c 128,-1,27
 814 -20 814 -20 566 -20 c 0,0,1
874 481 m 0,28,29
 874 673 874 673 803.5 759.5 c 128,-1,30
 733 846 733 846 577 846 c 0,31,32
 420 846 420 846 347.5 759 c 128,-1,33
 275 672 275 672 275 481 c 0,34,35
 275 291 275 291 347 202 c 128,-1,36
 419 113 419 113 564 113 c 0,37,38
 725 113 725 113 799.5 200.5 c 128,-1,39
 874 288 874 288 874 481 c 0,28,29
EndSplineSet
EndChar

StartChar: divide
Encoding: 247 247 184
Width: 1124
Flags: W
LayerCount: 2
Fore
SplineSet
646 1141 m 1,0,-1
 646 958 l 1,1,-1
 478 958 l 1,2,-1
 478 1141 l 1,3,-1
 646 1141 l 1,0,-1
1060 754 m 1,4,-1
 1060 608 l 1,5,-1
 65 608 l 1,6,-1
 65 754 l 1,7,-1
 1060 754 l 1,4,-1
646 406 m 1,8,-1
 646 223 l 1,9,-1
 478 223 l 1,10,-1
 478 406 l 1,11,-1
 646 406 l 1,8,-1
EndSplineSet
EndChar

StartChar: oslash
Encoding: 248 248 185
Width: 1251
GlyphClass: 2
Flags: W
LayerCount: 2
Fore
SplineSet
1112 542 m 0,0,1
 1112 258 1112 258 987 119 c 128,-1,2
 862 -20 862 -20 624 -20 c 0,3,4
 430 -20 430 -20 311 78 c 1,5,-1
 211 -38 l 1,6,-1
 44 -38 l 1,7,-1
 228 176 l 1,8,9
 145 315 145 315 145 542 c 0,10,11
 145 822 145 822 266.5 962 c 128,-1,12
 388 1102 388 1102 630 1102 c 0,13,14
 831 1102 831 1102 946 1011 c 1,15,-1
 1037 1116 l 1,16,-1
 1204 1116 l 1,17,-1
 1031 915 l 1,18,19
 1112 782 1112 782 1112 542 c 0,0,1
334 542 m 0,20,21
 334 413 334 413 358 327 c 1,22,-1
 840 888 l 1,23,24
 773 969 773 969 633 969 c 0,25,26
 475 969 475 969 404.5 865.5 c 128,-1,27
 334 762 334 762 334 542 c 0,20,21
923 542 m 0,28,29
 923 669 923 669 900 763 c 1,30,-1
 417 201 l 1,31,32
 484 113 484 113 622 113 c 0,33,34
 784 113 784 113 853.5 217 c 128,-1,35
 923 321 923 321 923 542 c 0,28,29
EndSplineSet
EndChar

StartChar: thorn
Encoding: 254 254 191
Width: 1139
Flags: W
LayerCount: 2
Fore
SplineSet
318 -2 m 2,0,-1
 318 -425 l 1,1,-1
 138 -425 l 1,2,-1
 138 1484 l 1,3,-1
 318 1484 l 1,4,-1
 318 1061 l 2,5,6
 318 1029 318 1029 317 990.5 c 128,-1,7
 316 952 316 952 314 908 c 1,8,-1
 320 908 l 1,9,10
 368 1008 368 1008 447 1054.5 c 128,-1,11
 526 1101 526 1101 655 1101 c 0,12,13
 855 1101 855 1101 954 967 c 128,-1,14
 1053 833 1053 833 1053 546 c 0,15,16
 1053 263 1053 263 953.5 121.5 c 128,-1,17
 854 -20 854 -20 655 -20 c 0,18,19
 405 -20 405 -20 319 168 c 1,20,-1
 314 168 l 1,21,22
 318 161 318 161 318 -2 c 2,0,-1
864 542 m 0,23,24
 864 768 864 768 803 865 c 128,-1,25
 742 962 742 962 609 962 c 0,26,27
 458 962 458 962 388 859.5 c 128,-1,28
 318 757 318 757 318 528 c 0,29,30
 318 315 318 315 386 214 c 128,-1,31
 454 113 454 113 607 113 c 0,32,33
 741 113 741 113 802.5 211.5 c 128,-1,34
 864 310 864 310 864 542 c 0,23,24
EndSplineSet
EndChar

StartChar: dcroat
Encoding: 273 273 210
Width: 1139
Flags: W
LayerCount: 2
Fore
SplineSet
821 1337 m 1,0,-1
 821 1484 l 1,1,-1
 1001 1484 l 1,2,-1
 1001 1337 l 1,3,-1
 1133 1337 l 1,4,-1
 1133 1206 l 1,5,-1
 1001 1206 l 1,6,-1
 1001 223 l 2,7,8
 1001 138 1001 138 1002.5 82.5 c 128,-1,9
 1004 27 1004 27 1007 0 c 1,10,-1
 835 0 l 1,11,12
 833 11 833 11 830.5 41.5 c 128,-1,13
 828 72 828 72 826.5 109 c 128,-1,14
 825 146 825 146 825 174 c 1,15,-1
 821 174 l 1,16,17
 771 70 771 70 688.5 25 c 128,-1,18
 606 -20 606 -20 484 -20 c 0,19,20
 279 -20 279 -20 182.5 118 c 128,-1,21
 86 256 86 256 86 536 c 0,22,23
 86 819 86 819 185.5 960.5 c 128,-1,24
 285 1102 285 1102 484 1102 c 0,25,26
 607 1102 607 1102 689 1057 c 128,-1,27
 771 1012 771 1012 821 914 c 1,28,-1
 823 914 l 1,29,-1
 821 1035 l 1,30,-1
 821 1206 l 1,31,-1
 521 1206 l 1,32,-1
 521 1337 l 1,33,-1
 821 1337 l 1,0,-1
275 542 m 0,34,35
 275 315 275 315 335 217 c 128,-1,36
 395 119 395 119 530 119 c 0,37,38
 683 119 683 119 752 225 c 128,-1,39
 821 331 821 331 821 554 c 0,40,41
 821 769 821 769 752 869 c 128,-1,42
 683 969 683 969 532 969 c 0,43,44
 396 969 396 969 335.5 868.5 c 128,-1,45
 275 768 275 768 275 542 c 0,34,35
EndSplineSet
EndChar

StartChar: Hbar
Encoding: 294 294 231
Width: 1479
Flags: W
LayerCount: 2
Fore
SplineSet
359 653 m 1,0,-1
 359 0 l 1,1,-1
 168 0 l 1,2,-1
 168 1025 l 1,3,-1
 14 1025 l 1,4,-1
 14 1179 l 1,5,-1
 168 1179 l 1,6,-1
 168 1409 l 1,7,-1
 359 1409 l 1,8,-1
 359 1179 l 1,9,-1
 1126 1179 l 1,10,-1
 1126 1409 l 1,11,-1
 1312 1409 l 1,12,-1
 1312 1179 l 1,13,-1
 1465 1179 l 1,14,-1
 1465 1025 l 1,15,-1
 1312 1025 l 1,16,-1
 1312 0 l 1,17,-1
 1126 0 l 1,18,-1
 1126 653 l 1,19,-1
 359 653 l 1,0,-1
359 813 m 1,20,-1
 1126 813 l 1,21,-1
 1126 1025 l 1,22,-1
 359 1025 l 1,23,-1
 359 813 l 1,20,-1
EndSplineSet
EndChar

StartChar: hbar
Encoding: 295 295 232
Width: 1139
Flags: W
LayerCount: 2
Fore
SplineSet
317 857 m 1,0,1
 375 963 375 963 456.5 1012.5 c 128,-1,2
 538 1062 538 1062 663 1062 c 0,3,4
 839 1062 839 1062 922.5 968 c 128,-1,5
 1006 874 1006 874 1006 681 c 2,6,-1
 1006 0 l 1,7,-1
 825 0 l 1,8,-1
 825 646 l 2,9,10
 825 791 825 791 777.5 857 c 128,-1,11
 730 923 730 923 602 923 c 0,12,13
 475 923 475 923 398.5 835 c 128,-1,14
 322 747 322 747 322 598 c 2,15,-1
 322 0 l 1,16,-1
 142 0 l 1,17,-1
 142 1206 l 1,18,-1
 10 1206 l 1,19,-1
 10 1337 l 1,20,-1
 142 1337 l 1,21,-1
 142 1484 l 1,22,-1
 322 1484 l 1,23,-1
 322 1337 l 1,24,-1
 622 1337 l 1,25,-1
 622 1206 l 1,26,-1
 322 1206 l 1,27,-1
 322 1058 l 2,28,29
 322 1018 322 1018 320 973.5 c 128,-1,30
 318 929 318 929 316.5 896.5 c 128,-1,31
 315 864 315 864 314 857 c 1,32,-1
 317 857 l 1,0,1
EndSplineSet
EndChar

StartChar: dotlessi
Encoding: 305 305 242
Width: 569
Flags: W
LayerCount: 2
Fore
SplineSet
374 1082 m 1,0,-1
 374 0 l 1,1,-1
 194 0 l 1,2,-1
 194 1082 l 1,3,-1
 374 1082 l 1,0,-1
EndSplineSet
EndChar

StartChar: jcircumflex
Encoding: 309 309 246
Width: 455
Flags: W
LayerCount: 2
Fore
SplineSet
233 1370 m 1,0,-1
 1 1201 l 1,1,-1
 -103 1201 l 1,2,-1
 -103 1221 l 1,3,-1
 131 1491 l 1,4,-1
 335 1491 l 1,5,-1
 559 1221 l 1,6,-1
 559 1201 l 1,7,-1
 454 1201 l 1,8,-1
 235 1370 l 1,9,-1
 233 1370 l 1,0,-1
77 -425 m 0,10,11
 -1 -425 -1 -425 -50 -416 c 1,12,-1
 -50 -277 l 1,13,-1
 12 -283 l 1,14,15
 81 -283 81 -283 109 -247 c 128,-1,16
 137 -211 137 -211 137 -107 c 2,17,-1
 137 1082 l 1,18,-1
 317 1082 l 1,19,-1
 317 -134 l 2,20,21
 317 -287 317 -287 257 -356 c 128,-1,22
 197 -425 197 -425 77 -425 c 0,10,11
EndSplineSet
EndChar

StartChar: kgreenlandic
Encoding: 312 312 249
Width: 1024
Flags: W
LayerCount: 2
Fore
SplineSet
318 386 m 1,0,-1
 318 0 l 1,1,-1
 138 0 l 1,2,-1
 138 1082 l 1,3,-1
 318 1082 l 1,4,-1
 318 557 l 1,5,-1
 793 1082 l 1,6,-1
 1004 1082 l 1,7,-1
 565 617 l 1,8,-1
 1027 0 l 1,9,-1
 816 0 l 1,10,-1
 450 494 l 1,11,-1
 318 386 l 1,0,-1
EndSplineSet
EndChar

StartChar: Lslash
Encoding: 321 321 258
Width: 1139
Flags: W
LayerCount: 2
Fore
SplineSet
168 0 m 1,0,-1
 168 538 l 1,1,-1
 20 453 l 1,2,-1
 20 611 l 1,3,-1
 168 696 l 1,4,-1
 168 1409 l 1,5,-1
 359 1409 l 1,6,-1
 359 806 l 1,7,-1
 616 954 l 1,8,-1
 616 797 l 1,9,-1
 359 648 l 1,10,-1
 359 156 l 1,11,-1
 1071 156 l 1,12,-1
 1071 0 l 1,13,-1
 168 0 l 1,0,-1
EndSplineSet
EndChar

StartChar: lslash
Encoding: 322 322 259
Width: 455
Flags: W
LayerCount: 2
Fore
SplineSet
138 0 m 1,0,-1
 138 542 l 1,1,-1
 16 474 l 1,2,-1
 16 632 l 1,3,-1
 138 700 l 1,4,-1
 138 1484 l 1,5,-1
 318 1484 l 1,6,-1
 318 804 l 1,7,-1
 442 876 l 1,8,-1
 442 717 l 1,9,-1
 318 646 l 1,10,-1
 318 0 l 1,11,-1
 138 0 l 1,0,-1
EndSplineSet
EndChar

StartChar: eng
Encoding: 331 331 267
Width: 1139
Flags: W
LayerCount: 2
Fore
SplineSet
769 -425 m 0,0,1
 692 -425 692 -425 642 -416 c 1,2,-1
 642 -277 l 1,3,-1
 704 -283 l 1,4,5
 773 -283 773 -283 801 -247 c 128,-1,6
 829 -211 829 -211 829 -107 c 2,7,-1
 829 686 l 2,8,9
 829 832 829 832 784 897.5 c 128,-1,10
 739 963 739 963 606 963 c 0,11,12
 476 963 476 963 401 874 c 128,-1,13
 326 785 326 785 326 627 c 2,14,-1
 326 0 l 1,15,-1
 146 0 l 1,16,-1
 146 851 l 2,17,18
 146 946 146 946 144.5 1003.5 c 128,-1,19
 143 1061 143 1061 140 1082 c 1,20,-1
 310 1082 l 2,21,22
 311 1079 311 1079 312 1059.5 c 128,-1,23
 313 1040 313 1040 315 1000.5 c 128,-1,24
 317 961 317 961 318 897 c 1,25,-1
 321 897 l 1,26,27
 383 1009 383 1009 464.5 1055.5 c 128,-1,28
 546 1102 546 1102 667 1102 c 0,29,30
 845 1102 845 1102 927.5 1013.5 c 128,-1,31
 1010 925 1010 925 1010 721 c 2,32,-1
 1010 -134 l 2,33,34
 1010 -285 1010 -285 950 -355 c 128,-1,35
 890 -425 890 -425 769 -425 c 0,0,1
EndSplineSet
EndChar

StartChar: OE
Encoding: 338 338 274
Width: 2048
GlyphClass: 2
Flags: W
LayerCount: 2
Fore
SplineSet
999 0 m 1,0,1
 965 -5 965 -5 912.5 -7.5 c 128,-1,2
 860 -10 860 -10 789 -10 c 0,3,4
 574 -10 574 -10 418.5 77 c 128,-1,5
 263 164 263 164 180 326 c 128,-1,6
 97 488 97 488 97 711 c 0,7,8
 97 933 97 933 180 1091.5 c 128,-1,9
 263 1250 263 1250 418.5 1335 c 128,-1,10
 574 1420 574 1420 791 1420 c 0,11,12
 844 1420 844 1420 897.5 1417 c 128,-1,13
 951 1414 951 1414 1003 1409 c 1,14,-1
 1917 1409 l 1,15,-1
 1917 1253 l 1,16,-1
 1114 1253 l 1,17,-1
 1114 801 l 1,18,-1
 1857 801 l 1,19,-1
 1857 647 l 1,20,-1
 1114 647 l 1,21,-1
 1114 156 l 1,22,-1
 1958 156 l 1,23,-1
 1958 0 l 1,24,-1
 999 0 l 1,0,1
923 1260 m 1,25,26
 878 1264 878 1264 842 1264 c 128,-1,27
 806 1264 806 1264 791 1264 c 0,28,29
 546 1264 546 1264 418.5 1121 c 128,-1,30
 291 978 291 978 291 711 c 0,31,32
 291 443 291 443 422.5 294 c 128,-1,33
 554 145 554 145 789 145 c 0,34,35
 830 145 830 145 863.5 146 c 128,-1,36
 897 147 897 147 923 149 c 1,37,-1
 923 1260 l 1,25,26
EndSplineSet
EndChar

StartChar: oe
Encoding: 339 339 275
Width: 1933
GlyphClass: 2
Flags: W
LayerCount: 2
Fore
SplineSet
1070 503 m 1,0,1
 1070 317 1070 317 1147 216 c 128,-1,2
 1224 115 1224 115 1372 115 c 0,3,4
 1489 115 1489 115 1559.5 162 c 128,-1,5
 1630 209 1630 209 1655 281 c 1,6,-1
 1813 236 l 1,7,8
 1716 -20 1716 -20 1372 -20 c 0,9,10
 1098 -20 1098 -20 976 163 c 1,11,12
 852 -20 852 -20 575 -20 c 0,13,14
 337 -20 337 -20 211.5 124.5 c 128,-1,15
 86 269 86 269 86 542 c 0,16,17
 86 821 86 821 212.5 961.5 c 128,-1,18
 339 1102 339 1102 581 1102 c 0,19,20
 862 1102 862 1102 979 925 c 1,21,22
 1105 1102 1105 1102 1365 1102 c 0,23,24
 1604 1102 1604 1102 1723 958 c 128,-1,25
 1842 814 1842 814 1842 527 c 2,26,-1
 1842 503 l 1,27,-1
 1070 503 l 1,0,1
881 542 m 0,28,29
 881 761 881 761 812 865 c 128,-1,30
 743 969 743 969 584 969 c 0,31,32
 422 969 422 969 348.5 862.5 c 128,-1,33
 275 756 275 756 275 542 c 256,34,35
 275 328 275 328 349.5 220.5 c 128,-1,36
 424 113 424 113 573 113 c 0,37,38
 737 113 737 113 809 217 c 128,-1,39
 881 321 881 321 881 542 c 0,28,29
1362 969 m 0,40,41
 1231 969 1231 969 1154.5 881.5 c 128,-1,42
 1078 794 1078 794 1072 641 c 1,43,-1
 1656 641 l 1,44,45
 1641 812 1641 812 1569 890.5 c 128,-1,46
 1497 969 1497 969 1362 969 c 0,40,41
EndSplineSet
EndChar

StartChar: Tbar
Encoding: 358 358 294
Width: 1251
Flags: W
LayerCount: 2
Fore
SplineSet
720 647 m 1,0,-1
 720 0 l 1,1,-1
 530 0 l 1,2,-1
 530 647 l 1,3,-1
 251 647 l 1,4,-1
 251 801 l 1,5,-1
 530 801 l 1,6,-1
 530 1253 l 1,7,-1
 46 1253 l 1,8,-1
 46 1409 l 1,9,-1
 1204 1409 l 1,10,-1
 1204 1253 l 1,11,-1
 720 1253 l 1,12,-1
 720 801 l 1,13,-1
 1001 801 l 1,14,-1
 1001 647 l 1,15,-1
 720 647 l 1,0,-1
EndSplineSet
EndChar

StartChar: tbar
Encoding: 359 359 295
Width: 569
Flags: W
LayerCount: 2
Fore
SplineSet
372 -16 m 0,0,1
 264 -16 264 -16 210 45.5 c 128,-1,2
 156 107 156 107 156 229 c 2,3,-1
 156 516 l 1,4,-1
 31 516 l 1,5,-1
 31 647 l 1,6,-1
 156 647 l 1,7,-1
 156 951 l 1,8,-1
 31 951 l 1,9,-1
 31 1082 l 1,10,-1
 163 1082 l 1,11,-1
 216 1324 l 1,12,-1
 336 1324 l 1,13,-1
 336 1082 l 1,14,-1
 536 1082 l 1,15,-1
 536 951 l 1,16,-1
 336 951 l 1,17,-1
 336 647 l 1,18,-1
 536 647 l 1,19,-1
 536 516 l 1,20,-1
 336 516 l 1,21,-1
 336 268 l 2,22,23
 336 190 336 190 361.5 158.5 c 128,-1,24
 387 127 387 127 450 127 c 0,25,26
 484 127 484 127 554 141 c 1,27,-1
 554 8 l 1,28,29
 466 -16 466 -16 372 -16 c 0,0,1
EndSplineSet
EndChar

StartChar: longs
Encoding: 383 383 319
Width: 455
Flags: W
LayerCount: 2
Fore
SplineSet
318 1179 m 2,0,-1
 318 0 l 1,1,-1
 138 0 l 1,2,-1
 138 1204 l 2,3,4
 138 1352 138 1352 203 1417 c 128,-1,5
 268 1482 268 1482 402 1482 c 0,6,7
 477 1482 477 1482 529 1470 c 1,8,-1
 529 1333 l 1,9,10
 481 1341 481 1341 449 1341 c 0,11,12
 380 1341 380 1341 349 1306 c 128,-1,13
 318 1271 318 1271 318 1179 c 2,0,-1
EndSplineSet
EndChar

StartChar: uni0180
Encoding: 384 384 320
Width: 1139
Flags: W
LayerCount: 2
Fore
SplineSet
1053 546 m 0,0,1
 1053 263 1053 263 953.5 121.5 c 128,-1,2
 854 -20 854 -20 655 -20 c 0,3,4
 532 -20 532 -20 450.5 24.5 c 128,-1,5
 369 69 369 69 318 168 c 1,6,-1
 316 168 l 1,7,8
 316 148 316 148 314 110 c 128,-1,9
 312 72 312 72 310 39.5 c 128,-1,10
 308 7 308 7 306 0 c 1,11,-1
 132 0 l 1,12,13
 135 27 135 27 136.5 82.5 c 128,-1,14
 138 138 138 138 138 223 c 2,15,-1
 138 1206 l 1,16,-1
 11 1206 l 1,17,-1
 11 1337 l 1,18,-1
 138 1337 l 1,19,-1
 138 1484 l 1,20,-1
 318 1484 l 1,21,-1
 318 1337 l 1,22,-1
 623 1337 l 1,23,-1
 623 1206 l 1,24,-1
 318 1206 l 1,25,-1
 318 1061 l 2,26,27
 318 1029 318 1029 317 990.5 c 128,-1,28
 316 952 316 952 314 908 c 1,29,-1
 318 908 l 1,30,31
 368 1012 368 1012 450.5 1057 c 128,-1,32
 533 1102 533 1102 655 1102 c 0,33,34
 860 1102 860 1102 956.5 964 c 128,-1,35
 1053 826 1053 826 1053 546 c 0,0,1
864 540 m 0,36,37
 864 767 864 767 804 865 c 128,-1,38
 744 963 744 963 609 963 c 0,39,40
 457 963 457 963 387.5 859 c 128,-1,41
 318 755 318 755 318 529 c 0,42,43
 318 316 318 316 386 214.5 c 128,-1,44
 454 113 454 113 607 113 c 0,45,46
 743 113 743 113 803.5 213.5 c 128,-1,47
 864 314 864 314 864 540 c 0,36,37
EndSplineSet
EndChar

StartChar: uni0181
Encoding: 385 385 321
Width: 1553
Flags: W
LayerCount: 2
Fore
SplineSet
1436 397 m 0,0,1
 1436 209 1436 209 1299 104.5 c 128,-1,2
 1162 0 1162 0 918 0 c 2,3,-1
 346 0 l 1,4,-1
 346 1261 l 1,5,-1
 317 1261 l 2,6,7
 240 1261 240 1261 207 1227 c 128,-1,8
 174 1193 174 1193 174 1122 c 0,9,10
 174 1073 174 1073 192 1017 c 1,11,-1
 37 1000 l 1,12,13
 20 1076 20 1076 20 1135 c 0,14,15
 20 1265 20 1265 106 1337 c 128,-1,16
 192 1409 192 1409 346 1409 c 2,17,-1
 858 1409 l 2,18,19
 1354 1409 1354 1409 1354 1067 c 0,20,21
 1354 942 1354 942 1284 857 c 128,-1,22
 1214 772 1214 772 1086 743 c 1,23,24
 1254 723 1254 723 1345 630.5 c 128,-1,25
 1436 538 1436 538 1436 397 c 0,0,1
1162 1044 m 0,26,27
 1162 1158 1162 1158 1084 1207 c 128,-1,28
 1006 1256 1006 1256 858 1256 c 2,29,-1
 537 1256 l 1,30,-1
 537 810 l 1,31,-1
 858 810 l 2,32,33
 1011 810 1011 810 1086.5 867.5 c 128,-1,34
 1162 925 1162 925 1162 1044 c 0,26,27
1243 412 m 0,35,36
 1243 661 1243 661 893 661 c 2,37,-1
 537 661 l 1,38,-1
 537 153 l 1,39,-1
 908 153 l 2,40,41
 1083 153 1083 153 1163 218 c 128,-1,42
 1243 283 1243 283 1243 412 c 0,35,36
EndSplineSet
EndChar

StartChar: uni0182
Encoding: 386 386 322
Width: 1344
Flags: W
LayerCount: 2
Fore
SplineSet
1263 413 m 0,0,1
 1263 289 1263 289 1205 196 c 128,-1,2
 1147 103 1147 103 1038.5 51.5 c 128,-1,3
 930 0 930 0 778 0 c 2,4,-1
 168 0 l 1,5,-1
 168 1409 l 1,6,-1
 1119 1409 l 1,7,-1
 1119 1253 l 1,8,-1
 359 1253 l 1,9,-1
 359 813 l 1,10,-1
 766 813 l 2,11,12
 1002 813 1002 813 1132.5 708 c 128,-1,13
 1263 603 1263 603 1263 413 c 0,0,1
1071 411 m 0,14,15
 1071 532 1071 532 989 596.5 c 128,-1,16
 907 661 907 661 743 661 c 2,17,-1
 359 661 l 1,18,-1
 359 151 l 1,19,-1
 751 151 l 2,20,21
 915 151 915 151 993 219 c 128,-1,22
 1071 287 1071 287 1071 411 c 0,14,15
EndSplineSet
EndChar

StartChar: uni0183
Encoding: 387 387 323
Width: 1139
Flags: W
LayerCount: 2
Fore
SplineSet
1053 546 m 0,0,1
 1053 263 1053 263 953.5 121.5 c 128,-1,2
 854 -20 854 -20 655 -20 c 0,3,4
 532 -20 532 -20 450.5 24.5 c 128,-1,5
 369 69 369 69 318 168 c 1,6,-1
 316 168 l 1,7,8
 316 148 316 148 314 110 c 128,-1,9
 312 72 312 72 310 39.5 c 128,-1,10
 308 7 308 7 306 0 c 1,11,-1
 132 0 l 1,12,13
 135 27 135 27 136.5 82.5 c 128,-1,14
 138 138 138 138 138 223 c 2,15,-1
 138 1484 l 1,16,-1
 882 1484 l 1,17,-1
 882 1325 l 1,18,-1
 318 1325 l 1,19,-1
 318 1061 l 2,20,21
 318 1029 318 1029 317 990.5 c 128,-1,22
 316 952 316 952 314 908 c 1,23,-1
 318 908 l 1,24,25
 368 1012 368 1012 450.5 1057 c 128,-1,26
 533 1102 533 1102 655 1102 c 0,27,28
 860 1102 860 1102 956.5 964 c 128,-1,29
 1053 826 1053 826 1053 546 c 0,0,1
864 540 m 0,30,31
 864 767 864 767 804 865 c 128,-1,32
 744 963 744 963 609 963 c 0,33,34
 457 963 457 963 387.5 859 c 128,-1,35
 318 755 318 755 318 529 c 0,36,37
 318 316 318 316 386 214.5 c 128,-1,38
 454 113 454 113 607 113 c 0,39,40
 743 113 743 113 803.5 213.5 c 128,-1,41
 864 314 864 314 864 540 c 0,30,31
EndSplineSet
EndChar

StartChar: uni0184
Encoding: 388 388 324
Width: 1344
Flags: W
LayerCount: 2
Fore
SplineSet
1263 418 m 0,0,1
 1263 294 1263 294 1205 200 c 0,2,3
 1147 105 1147 105 1037 52.5 c 128,-1,4
 927 0 927 0 778 0 c 2,5,-1
 168 0 l 1,6,-1
 168 1011 l 1,7,-1
 10 1176 l 1,8,-1
 10 1209 l 1,9,-1
 303 1409 l 1,10,-1
 359 1409 l 1,11,-1
 359 823 l 1,12,-1
 766 823 l 2,13,14
 1003 823 1003 823 1133 715.5 c 128,-1,15
 1263 608 1263 608 1263 418 c 0,0,1
1071 416 m 0,16,17
 1071 536 1071 536 988.5 603.5 c 128,-1,18
 906 671 906 671 743 671 c 2,19,-1
 359 671 l 1,20,-1
 359 151 l 1,21,-1
 751 151 l 2,22,23
 915 151 915 151 993 221.5 c 128,-1,24
 1071 292 1071 292 1071 416 c 0,16,17
EndSplineSet
EndChar

StartChar: uni0185
Encoding: 389 389 325
Width: 1139
Flags: W
LayerCount: 2
Fore
SplineSet
1053 546 m 0,0,1
 1053 263 1053 263 953.5 121.5 c 128,-1,2
 854 -20 854 -20 655 -20 c 0,3,4
 532 -20 532 -20 450.5 24.5 c 128,-1,5
 369 69 369 69 318 168 c 1,6,-1
 316 168 l 1,7,8
 316 148 316 148 314 110 c 128,-1,9
 312 72 312 72 310 39.5 c 128,-1,10
 308 7 308 7 306 0 c 1,11,-1
 132 0 l 1,12,13
 135 27 135 27 136.5 82.5 c 128,-1,14
 138 138 138 138 138 223 c 2,15,-1
 138 1086 l 1,16,-1
 10 1266 l 1,17,-1
 10 1299 l 1,18,-1
 267 1484 l 1,19,-1
 318 1484 l 1,20,-1
 318 1061 l 2,21,22
 318 1029 318 1029 317 990.5 c 128,-1,23
 316 952 316 952 314 908 c 1,24,-1
 318 908 l 1,25,26
 368 1012 368 1012 450.5 1057 c 128,-1,27
 533 1102 533 1102 655 1102 c 0,28,29
 860 1102 860 1102 956.5 964 c 128,-1,30
 1053 826 1053 826 1053 546 c 0,0,1
864 540 m 0,31,32
 864 767 864 767 804 865 c 128,-1,33
 744 963 744 963 609 963 c 0,34,35
 457 963 457 963 387.5 859 c 128,-1,36
 318 755 318 755 318 529 c 0,37,38
 318 316 318 316 386 214.5 c 128,-1,39
 454 113 454 113 607 113 c 0,40,41
 743 113 743 113 803.5 213.5 c 128,-1,42
 864 314 864 314 864 540 c 0,31,32
EndSplineSet
EndChar

StartChar: uni0186
Encoding: 390 390 326
Width: 1479
Flags: W
LayerCount: 2
Fore
SplineSet
697 136 m 0,0,1
 930 136 930 136 1059 285 c 128,-1,2
 1188 434 1188 434 1188 699 c 0,3,4
 1188 873 1188 873 1127 1002 c 128,-1,5
 1066 1131 1066 1131 954.5 1202 c 128,-1,6
 843 1273 843 1273 689 1273 c 0,7,8
 399 1273 399 1273 247 980 c 1,9,-1
 91 1058 l 1,10,11
 179 1240 179 1240 334.5 1335 c 128,-1,12
 490 1430 490 1430 698 1430 c 0,13,14
 913 1430 913 1430 1066 1341.5 c 128,-1,15
 1219 1253 1219 1253 1300.5 1089 c 128,-1,16
 1382 925 1382 925 1382 699 c 256,17,18
 1382 473 1382 473 1300.5 312.5 c 128,-1,19
 1219 152 1219 152 1066 66 c 128,-1,20
 913 -20 913 -20 699 -20 c 0,21,22
 473 -20 473 -20 324 67 c 128,-1,23
 175 154 175 154 104 329 c 1,24,-1
 285 389 l 1,25,26
 330 269 330 269 438 202.5 c 128,-1,27
 546 136 546 136 697 136 c 0,0,1
EndSplineSet
EndChar

StartChar: uni0187
Encoding: 391 391 327
Width: 1479
Flags: W
LayerCount: 2
Fore
SplineSet
1207 1021 m 1,0,1
 1158 1144 1158 1144 1049.5 1209 c 128,-1,2
 941 1274 941 1274 792 1274 c 0,3,4
 558 1274 558 1274 428 1123.5 c 128,-1,5
 298 973 298 973 298 711 c 0,6,7
 298 539 298 539 359.5 409.5 c 128,-1,8
 421 280 421 280 533.5 208.5 c 128,-1,9
 646 137 646 137 800 137 c 0,10,11
 948 137 948 137 1059.5 210.5 c 128,-1,12
 1171 284 1171 284 1245 430 c 1,13,-1
 1401 352 l 1,14,15
 1314 170 1314 170 1156.5 75 c 128,-1,16
 999 -20 999 -20 791 -20 c 0,17,18
 577 -20 577 -20 423 69 c 128,-1,19
 269 158 269 158 186.5 322.5 c 128,-1,20
 104 487 104 487 104 711 c 0,21,22
 104 936 104 936 186 1097 c 128,-1,23
 268 1258 268 1258 422 1344 c 128,-1,24
 576 1430 576 1430 790 1430 c 0,25,26
 1066 1430 1066 1430 1230 1297 c 1,27,-1
 1230 1320 l 2,28,29
 1230 1458 1230 1458 1298.5 1537 c 128,-1,30
 1367 1616 1367 1616 1489 1616 c 0,31,32
 1543 1616 1543 1616 1609 1601 c 1,33,-1
 1609 1444 l 1,34,35
 1554 1462 1554 1462 1521 1462 c 0,36,37
 1450 1462 1450 1462 1419 1426.5 c 128,-1,38
 1388 1391 1388 1391 1388 1314 c 2,39,-1
 1388 1081 l 1,40,-1
 1207 1021 l 1,0,1
EndSplineSet
EndChar

StartChar: uni0188
Encoding: 392 392 328
Width: 1024
Flags: W
LayerCount: 2
Fore
SplineSet
779 765 m 1,0,1
 765 855 765 855 708 908 c 128,-1,2
 651 961 651 961 546 961 c 0,3,4
 403 961 403 961 339 866 c 128,-1,5
 275 771 275 771 275 546 c 0,6,7
 275 330 275 330 343 226 c 128,-1,8
 411 122 411 122 548 122 c 0,9,10
 644 122 644 122 708.5 174 c 128,-1,11
 773 226 773 226 788 334 c 1,12,-1
 970 322 l 1,13,14
 956 218 956 218 900.5 141 c 128,-1,15
 845 64 845 64 756.5 22 c 128,-1,16
 668 -20 668 -20 553 -20 c 0,17,18
 326 -20 326 -20 206.5 123.5 c 128,-1,19
 87 267 87 267 87 542 c 0,20,21
 87 815 87 815 207 958.5 c 128,-1,22
 327 1102 327 1102 551 1102 c 0,23,24
 701 1102 701 1102 807 1030 c 1,25,26
 816 1151 816 1151 881.5 1217 c 128,-1,27
 947 1283 947 1283 1065 1283 c 0,28,29
 1112 1283 1112 1283 1164 1271 c 1,30,-1
 1164 1121 l 1,31,32
 1129 1137 1129 1137 1085 1137 c 0,33,34
 1019 1137 1019 1137 991.5 1101.5 c 128,-1,35
 964 1066 964 1066 964 989 c 2,36,-1
 964 779 l 1,37,-1
 779 765 l 1,0,1
EndSplineSet
EndChar

StartChar: uni018A
Encoding: 394 394 330
Width: 1658
Flags: W
LayerCount: 2
Fore
SplineSet
1559 719 m 0,0,1
 1559 501 1559 501 1474 338 c 256,2,3
 1389 175 1389 175 1233 87.5 c 128,-1,4
 1077 0 1077 0 873 0 c 2,5,-1
 346 0 l 1,6,-1
 346 1261 l 1,7,-1
 317 1261 l 2,8,9
 240 1261 240 1261 207 1227 c 128,-1,10
 174 1193 174 1193 174 1122 c 0,11,12
 174 1073 174 1073 192 1017 c 1,13,-1
 37 1000 l 1,14,15
 20 1076 20 1076 20 1135 c 0,16,17
 20 1265 20 1265 106 1337 c 128,-1,18
 192 1409 192 1409 346 1409 c 2,19,-1
 812 1409 l 2,20,21
 1170 1409 1170 1409 1364.5 1229.5 c 128,-1,22
 1559 1050 1559 1050 1559 719 c 0,0,1
1367 719 m 0,23,24
 1367 981 1367 981 1223.5 1118.5 c 128,-1,25
 1080 1256 1080 1256 808 1256 c 2,26,-1
 537 1256 l 1,27,-1
 537 153 l 1,28,-1
 851 153 l 2,29,30
 1006 153 1006 153 1122 222 c 128,-1,31
 1238 291 1238 291 1302.5 418 c 128,-1,32
 1367 545 1367 545 1367 719 c 0,23,24
EndSplineSet
EndChar

StartChar: uni018B
Encoding: 395 395 331
Width: 1344
Flags: W
LayerCount: 2
Fore
SplineSet
81 413 m 0,0,1
 81 603 81 603 211.5 708 c 128,-1,2
 342 813 342 813 578 813 c 2,3,-1
 985 813 l 1,4,-1
 985 1253 l 1,5,-1
 225 1253 l 1,6,-1
 225 1409 l 1,7,-1
 1176 1409 l 1,8,-1
 1176 0 l 1,9,-1
 566 0 l 2,10,11
 340 0 340 0 210.5 113 c 128,-1,12
 81 226 81 226 81 413 c 0,0,1
273 411 m 0,13,14
 273 287 273 287 351 219 c 128,-1,15
 429 151 429 151 593 151 c 2,16,-1
 985 151 l 1,17,-1
 985 661 l 1,18,-1
 601 661 l 2,19,20
 437 661 437 661 355 596.5 c 128,-1,21
 273 532 273 532 273 411 c 0,13,14
EndSplineSet
EndChar

StartChar: uni018C
Encoding: 396 396 332
Width: 1139
Flags: W
LayerCount: 2
Fore
SplineSet
82 546 m 0,0,1
 82 826 82 826 178.5 964 c 128,-1,2
 275 1102 275 1102 480 1102 c 0,3,4
 602 1102 602 1102 684.5 1057 c 128,-1,5
 767 1012 767 1012 817 908 c 1,6,-1
 821 908 l 1,7,8
 819 952 819 952 818 990.5 c 128,-1,9
 817 1029 817 1029 817 1061 c 2,10,-1
 817 1325 l 1,11,-1
 253 1325 l 1,12,-1
 253 1484 l 1,13,-1
 997 1484 l 1,14,-1
 997 223 l 2,15,16
 997 138 997 138 998.5 82.5 c 128,-1,17
 1000 27 1000 27 1003 0 c 1,18,-1
 829 0 l 1,19,20
 828 6 828 6 825.5 39 c 128,-1,21
 823 72 823 72 821 110 c 128,-1,22
 819 148 819 148 819 168 c 1,23,-1
 817 168 l 1,24,25
 766 69 766 69 684.5 24.5 c 128,-1,26
 603 -20 603 -20 480 -20 c 0,27,28
 281 -20 281 -20 181.5 121.5 c 128,-1,29
 82 263 82 263 82 546 c 0,0,1
271 540 m 0,30,31
 271 315 271 315 331.5 214 c 128,-1,32
 392 113 392 113 528 113 c 0,33,34
 679 113 679 113 748 214 c 128,-1,35
 817 315 817 315 817 529 c 0,36,37
 817 753 817 753 748 858 c 128,-1,38
 679 963 679 963 526 963 c 0,39,40
 391 963 391 963 331 864.5 c 128,-1,41
 271 766 271 766 271 540 c 0,30,31
EndSplineSet
EndChar

StartChar: uni018D
Encoding: 397 397 333
Width: 1140
Flags: W
LayerCount: 2
Fore
SplineSet
1053 557 m 0,0,1
 1053 294 1053 294 942 156 c 128,-1,2
 831 18 831 18 609 5 c 1,3,-1
 965 -293 l 1,4,-1
 965 -425 l 1,5,-1
 189 -425 l 1,6,-1
 189 -280 l 1,7,-1
 708 -280 l 1,8,-1
 281 71 l 2,9,10
 175 158 175 158 130.5 273.5 c 128,-1,11
 86 389 86 389 86 557 c 0,12,13
 86 743 86 743 140 863.5 c 128,-1,14
 194 984 194 984 302 1043 c 128,-1,15
 410 1102 410 1102 571 1102 c 0,16,17
 822 1102 822 1102 937.5 971 c 128,-1,18
 1053 840 1053 840 1053 557 c 0,0,1
864 557 m 0,19,20
 864 777 864 777 799 873 c 128,-1,21
 734 969 734 969 574 969 c 0,22,23
 413 969 413 969 344 871 c 128,-1,24
 275 773 275 773 275 557 c 0,25,26
 275 345 275 345 343.5 241 c 128,-1,27
 412 137 412 137 563 137 c 0,28,29
 730 137 730 137 797 243 c 128,-1,30
 864 349 864 349 864 557 c 0,19,20
EndSplineSet
EndChar

StartChar: uni018E
Encoding: 398 398 334
Width: 1366
Flags: W
LayerCount: 2
Fore
SplineSet
1199 1409 m 1,0,-1
 1199 0 l 1,1,-1
 89 0 l 1,2,-1
 89 156 l 1,3,-1
 1008 156 l 1,4,-1
 1008 647 l 1,5,-1
 190 647 l 1,6,-1
 190 801 l 1,7,-1
 1008 801 l 1,8,-1
 1008 1253 l 1,9,-1
 130 1253 l 1,10,-1
 130 1409 l 1,11,-1
 1199 1409 l 1,0,-1
EndSplineSet
EndChar

StartChar: uni018F
Encoding: 399 399 335
AltUni2: 0004d8.ffffffff.0
Width: 1541
Flags: W
LayerCount: 2
Fore
SplineSet
1254 810 m 1,0,1
 1229 1028 1229 1028 1101 1151 c 128,-1,2
 973 1274 973 1274 774 1274 c 0,3,4
 619 1274 619 1274 512.5 1207.5 c 128,-1,5
 406 1141 406 1141 349 1020 c 1,6,-1
 167 1077 l 1,7,8
 245 1245 245 1245 398.5 1337.5 c 128,-1,9
 552 1430 552 1430 774 1430 c 0,10,11
 983 1430 983 1430 1134 1343 c 0,12,13
 1286 1256 1286 1256 1366.5 1092.5 c 128,-1,14
 1447 929 1447 929 1447 711 c 0,15,16
 1447 491 1447 491 1365 326 c 0,17,18
 1283 160 1283 160 1130 70 c 128,-1,19
 977 -20 977 -20 772 -20 c 0,20,21
 564 -20 564 -20 410 69 c 256,22,23
 256 158 256 158 175 324.5 c 128,-1,24
 94 491 94 491 94 711 c 0,25,26
 94 730 94 730 95.5 754.5 c 128,-1,27
 97 779 97 779 99 810 c 1,28,-1
 1254 810 l 1,0,1
772 126 m 0,29,30
 999 126 999 126 1124.5 263.5 c 128,-1,31
 1250 401 1250 401 1261 652 c 1,32,-1
 276 652 l 1,33,34
 293 405 293 405 423 265.5 c 128,-1,35
 553 126 553 126 772 126 c 0,29,30
EndSplineSet
EndChar

StartChar: uni0190
Encoding: 400 400 336
Width: 1237
Flags: W
LayerCount: 2
Fore
SplineSet
608 -20 m 0,0,1
 456 -20 456 -20 338.5 33 c 128,-1,2
 221 86 221 86 154.5 179 c 128,-1,3
 88 272 88 272 88 391 c 0,4,5
 88 533 88 533 170 622.5 c 128,-1,6
 252 712 252 712 410 736 c 1,7,8
 130 791 130 791 130 1051 c 0,9,10
 130 1165 130 1165 189 1250 c 128,-1,11
 248 1335 248 1335 353.5 1382 c 128,-1,12
 459 1429 459 1429 599 1429 c 0,13,14
 798 1429 798 1429 930.5 1345 c 128,-1,15
 1063 1261 1063 1261 1133 1088 c 1,16,-1
 955 1027 l 1,17,18
 905 1156 905 1156 818.5 1215 c 128,-1,19
 732 1274 732 1274 606 1274 c 0,20,21
 476 1274 476 1274 398.5 1216 c 128,-1,22
 321 1158 321 1158 321 1057 c 0,23,24
 321 802 321 802 675 802 c 2,25,-1
 746 802 l 1,26,-1
 746 654 l 1,27,-1
 675 654 l 2,28,29
 473 654 473 654 377 595 c 128,-1,30
 281 536 281 536 281 403 c 0,31,32
 281 275 281 275 370.5 204 c 128,-1,33
 460 133 460 133 615 133 c 0,34,35
 878 133 878 133 997 405 c 1,36,-1
 1162 328 l 1,37,38
 1077 142 1077 142 944 61 c 128,-1,39
 811 -20 811 -20 608 -20 c 0,0,1
EndSplineSet
EndChar

StartChar: uni0191
Encoding: 401 401 337
Width: 1251
Flags: W
LayerCount: 2
Fore
SplineSet
359 -130 m 2,0,1
 359 -273 359 -273 287.5 -349 c 128,-1,2
 216 -425 216 -425 85 -425 c 0,3,4
 27 -425 27 -425 -58 -405 c 1,5,-1
 -23 -249 l 1,6,7
 30 -266 30 -266 64 -266 c 0,8,9
 116 -266 116 -266 142 -227 c 128,-1,10
 168 -188 168 -188 168 -109 c 2,11,-1
 168 1409 l 1,12,-1
 1169 1409 l 1,13,-1
 1169 1253 l 1,14,-1
 359 1253 l 1,15,-1
 359 729 l 1,16,-1
 1145 729 l 1,17,-1
 1145 571 l 1,18,-1
 359 571 l 1,19,-1
 359 -130 l 2,0,1
EndSplineSet
EndChar

StartChar: florin
Encoding: 402 402 338
Width: 1139
GlyphClass: 2
Flags: W
LayerCount: 2
Fore
SplineSet
854 1312 m 1,0,1
 837 1317 837 1317 806 1322 c 128,-1,2
 775 1327 775 1327 742 1327 c 0,3,4
 679 1327 679 1327 649 1288.5 c 128,-1,5
 619 1250 619 1250 619 1159 c 2,6,-1
 619 1022 l 1,7,-1
 830 1022 l 1,8,-1
 830 891 l 1,9,-1
 617 891 l 1,10,-1
 617 -456 l 1,11,-1
 437 -456 l 1,12,-1
 437 891 l 1,13,-1
 285 891 l 1,14,-1
 285 1022 l 1,15,-1
 438 1022 l 1,16,-1
 438 1154 l 2,17,18
 438 1314 438 1314 503 1384 c 128,-1,19
 568 1454 568 1454 701 1454 c 0,20,21
 737 1454 737 1454 778 1449 c 128,-1,22
 819 1444 819 1444 854 1434 c 1,23,-1
 854 1312 l 1,0,1
EndSplineSet
EndChar

StartChar: uni0193
Encoding: 403 403 339
Width: 1593
Flags: W
LayerCount: 2
Fore
SplineSet
1227 1044 m 1,0,1
 1167 1164 1167 1164 1061.5 1219 c 128,-1,2
 956 1274 956 1274 799 1274 c 0,3,4
 555 1274 555 1274 426 1126.5 c 128,-1,5
 297 979 297 979 297 711 c 0,6,7
 297 444 297 444 434 289.5 c 128,-1,8
 571 135 571 135 813 135 c 0,9,10
 951 135 951 135 1070.5 177 c 128,-1,11
 1190 219 1190 219 1264 291 c 1,12,-1
 1264 545 l 1,13,-1
 843 545 l 1,14,-1
 843 705 l 1,15,-1
 1440 705 l 1,16,-1
 1440 219 l 1,17,18
 1328 105 1328 105 1165.5 42.5 c 128,-1,19
 1003 -20 1003 -20 813 -20 c 0,20,21
 593 -20 593 -20 434 69 c 128,-1,22
 275 158 275 158 189 322.5 c 128,-1,23
 103 487 103 487 103 711 c 0,24,25
 103 1054 103 1054 287 1242 c 128,-1,26
 471 1430 471 1430 804 1430 c 0,27,28
 1094 1430 1094 1430 1251 1307 c 1,29,-1
 1251 1337 l 2,30,31
 1251 1475 1251 1475 1319.5 1554 c 128,-1,32
 1388 1633 1388 1633 1510 1633 c 0,33,34
 1564 1633 1564 1633 1630 1618 c 1,35,-1
 1630 1461 l 1,36,37
 1575 1479 1575 1479 1542 1479 c 0,38,39
 1471 1479 1471 1479 1440 1443.5 c 128,-1,40
 1409 1408 1409 1408 1409 1331 c 2,41,-1
 1409 1098 l 1,42,-1
 1227 1044 l 1,0,1
EndSplineSet
EndChar

StartChar: uni0194
Encoding: 404 404 340
Width: 1278
Flags: W
LayerCount: 2
Fore
SplineSet
10 1409 m 1,0,-1
 211 1409 l 1,1,-1
 640 408 l 1,2,-1
 1067 1409 l 1,3,-1
 1268 1409 l 1,4,-1
 738 247 l 1,5,6
 782 166 782 166 812.5 103 c 128,-1,7
 843 40 843 40 859 -5 c 0,8,9
 890 -94 890 -94 890 -160 c 0,10,11
 890 -281 890 -281 823.5 -353 c 128,-1,12
 757 -425 757 -425 641 -425 c 0,13,14
 526 -425 526 -425 459.5 -353.5 c 128,-1,15
 393 -282 393 -282 393 -160 c 0,16,17
 393 -92 393 -92 429 7 c 0,18,19
 445 51 445 51 472.5 111 c 128,-1,20
 500 171 500 171 540 247 c 1,21,-1
 10 1409 l 1,0,-1
727 -163 m 0,22,23
 727 -106 727 -106 701 -23.5 c 128,-1,24
 675 59 675 59 641 130 c 1,25,26
 607 59 607 59 581 -23 c 128,-1,27
 555 -105 555 -105 555 -163 c 0,28,29
 555 -216 555 -216 578 -245.5 c 128,-1,30
 601 -275 601 -275 641 -275 c 256,31,32
 681 -275 681 -275 704 -246 c 128,-1,33
 727 -217 727 -217 727 -163 c 0,22,23
EndSplineSet
EndChar

StartChar: uni0195
Encoding: 405 405 341
Width: 1804
Flags: W
LayerCount: 2
Fore
SplineSet
1256 -20 m 256,0,1
 1057 -20 1057 -20 951 80.5 c 128,-1,2
 845 181 845 181 845 361 c 2,3,-1
 845 686 l 2,4,5
 845 839 845 839 787.5 901 c 128,-1,6
 730 963 730 963 602 963 c 0,7,8
 475 963 475 963 398.5 875 c 128,-1,9
 322 787 322 787 322 638 c 2,10,-1
 322 0 l 1,11,-1
 142 0 l 1,12,-1
 142 1484 l 1,13,-1
 322 1484 l 1,14,-1
 322 1098 l 2,15,16
 322 1058 322 1058 320 1013.5 c 128,-1,17
 318 969 318 969 316.5 936.5 c 128,-1,18
 315 904 315 904 314 897 c 1,19,-1
 317 897 l 1,20,21
 367 1000 367 1000 453 1051 c 128,-1,22
 539 1102 539 1102 663 1102 c 0,23,24
 846 1102 846 1102 936 1009 c 128,-1,25
 1026 916 1026 916 1026 721 c 2,26,-1
 1026 394 l 2,27,28
 1026 238 1026 238 1081 177.5 c 128,-1,29
 1136 117 1136 117 1257 117 c 0,30,31
 1379 117 1379 117 1433 177.5 c 128,-1,32
 1487 238 1487 238 1487 394 c 2,33,-1
 1487 1082 l 1,34,-1
 1668 1082 l 1,35,-1
 1668 365 l 2,36,37
 1668 185 1668 185 1561.5 82.5 c 128,-1,38
 1455 -20 1455 -20 1256 -20 c 256,0,1
EndSplineSet
EndChar

StartChar: uni0196
Encoding: 406 406 342
Width: 455
Flags: W
LayerCount: 2
Fore
SplineSet
199 0 m 1,0,1
 170 31 170 31 153.5 98 c 128,-1,2
 137 165 137 165 137 236 c 2,3,-1
 137 1484 l 1,4,-1
 317 1484 l 1,5,-1
 317 227 l 2,6,7
 317 162 317 162 339 100 c 128,-1,8
 361 38 361 38 397 0 c 1,9,-1
 199 0 l 1,0,1
EndSplineSet
EndChar

StartChar: uni0197
Encoding: 407 407 343
Width: 569
Flags: W
LayerCount: 2
Fore
SplineSet
196 0 m 1,0,-1
 196 672 l 1,1,-1
 30 672 l 1,2,-1
 30 813 l 1,3,-1
 196 813 l 1,4,-1
 196 1484 l 1,5,-1
 376 1484 l 1,6,-1
 376 813 l 1,7,-1
 545 813 l 1,8,-1
 545 672 l 1,9,-1
 376 672 l 1,10,-1
 376 0 l 1,11,-1
 196 0 l 1,0,-1
EndSplineSet
EndChar

StartChar: uni0198
Encoding: 408 408 344
Width: 1366
Flags: W
LayerCount: 2
Fore
SplineSet
359 540 m 1,0,-1
 359 0 l 1,1,-1
 168 0 l 1,2,-1
 168 1409 l 1,3,-1
 359 1409 l 1,4,-1
 359 703 l 1,5,-1
 861 1224 l 2,6,7
 906 1271 906 1271 955.5 1317.5 c 128,-1,8
 1005 1364 1005 1364 1061 1394.5 c 128,-1,9
 1117 1425 1117 1425 1183 1425 c 0,10,11
 1212 1425 1212 1425 1240.5 1421.5 c 128,-1,12
 1269 1418 1269 1418 1304 1410 c 1,13,-1
 1304 1245 l 1,14,15
 1279 1254 1279 1254 1250.5 1258.5 c 128,-1,16
 1222 1263 1222 1263 1200 1263 c 0,17,18
 1139 1263 1139 1263 1092 1225 c 128,-1,19
 1045 1187 1045 1187 976 1116 c 2,20,-1
 663 797 l 1,21,-1
 1343 0 l 1,22,-1
 1106 0 l 1,23,-1
 543 680 l 1,24,-1
 359 540 l 1,0,-1
EndSplineSet
EndChar

StartChar: uni0199
Encoding: 409 409 345
Width: 1024
Flags: W
LayerCount: 2
Fore
SplineSet
816 0 m 1,0,-1
 450 494 l 1,1,-1
 318 385 l 1,2,-1
 318 0 l 1,3,-1
 138 0 l 1,4,-1
 138 1202 l 2,5,6
 138 1345 138 1345 214 1421.5 c 128,-1,7
 290 1498 290 1498 430 1498 c 0,8,9
 496 1498 496 1498 562 1483 c 1,10,-1
 562 1318 l 1,11,12
 537 1327 537 1327 508 1331.5 c 128,-1,13
 479 1336 479 1336 446 1336 c 0,14,15
 318 1336 318 1336 318 1188 c 2,16,-1
 318 557 l 1,17,-1
 793 1082 l 1,18,-1
 1004 1082 l 1,19,-1
 565 617 l 1,20,-1
 1027 0 l 1,21,-1
 816 0 l 1,0,-1
EndSplineSet
EndChar

StartChar: uni019A
Encoding: 410 410 346
Width: 455
Flags: W
LayerCount: 2
Fore
SplineSet
132 0 m 1,0,-1
 132 672 l 1,1,-1
 20 672 l 1,2,-1
 20 813 l 1,3,-1
 132 813 l 1,4,-1
 132 1484 l 1,5,-1
 312 1484 l 1,6,-1
 312 813 l 1,7,-1
 421 813 l 1,8,-1
 421 672 l 1,9,-1
 312 672 l 1,10,-1
 312 0 l 1,11,-1
 132 0 l 1,0,-1
EndSplineSet
EndChar

StartChar: uni019B
Encoding: 411 411 347
Width: 1024
Flags: W
LayerCount: 2
Fore
SplineSet
165 1210 m 1,0,-1
 353 1279 l 1,1,-1
 280 1484 l 1,2,-1
 457 1484 l 1,3,-1
 511 1337 l 1,4,-1
 668 1394 l 1,5,-1
 714 1275 l 1,6,-1
 555 1217 l 1,7,-1
 1006 0 l 1,8,-1
 816 0 l 1,9,-1
 540 785 l 1,10,-1
 201 0 l 1,11,-1
 14 0 l 1,12,-1
 463 970 l 1,13,-1
 395 1159 l 1,14,-1
 211 1092 l 1,15,-1
 165 1210 l 1,0,-1
EndSplineSet
EndChar

StartChar: uni019C
Encoding: 412 412 348
Width: 1824
Flags: W
LayerCount: 2
Fore
SplineSet
1000 1409 m 1,0,-1
 1000 456 l 2,1,2
 1000 293 1000 293 1050 214 c 128,-1,3
 1100 135 1100 135 1219 135 c 0,4,5
 1343 135 1343 135 1405 216 c 128,-1,6
 1467 297 1467 297 1467 458 c 2,7,-1
 1467 1409 l 1,8,-1
 1655 1409 l 1,9,-1
 1655 0 l 1,10,-1
 1471 0 l 1,11,-1
 1467 126 l 1,12,-1
 1466 126 l 1,13,14
 1427 56 1427 56 1357.5 18 c 128,-1,15
 1288 -20 1288 -20 1195 -20 c 0,16,17
 987 -20 987 -20 895 147 c 1,18,19
 835 64 835 64 754 22 c 128,-1,20
 673 -20 673 -20 571 -20 c 0,21,22
 365 -20 365 -20 261.5 103 c 128,-1,23
 158 226 158 226 158 472 c 2,24,-1
 158 1409 l 1,25,-1
 346 1409 l 1,26,-1
 346 488 l 2,27,28
 346 306 346 306 398 220.5 c 128,-1,29
 450 135 450 135 581 135 c 0,30,31
 700 135 700 135 756 212 c 128,-1,32
 812 289 812 289 812 440 c 2,33,-1
 812 1409 l 1,34,-1
 1000 1409 l 1,0,-1
EndSplineSet
EndChar

StartChar: uni019D
Encoding: 413 413 349
Width: 1479
Flags: W
LayerCount: 2
Fore
SplineSet
338 -130 m 2,0,1
 338 -274 338 -274 270.5 -349.5 c 128,-1,2
 203 -425 203 -425 73 -425 c 0,3,4
 4 -425 4 -425 -48 -414 c 1,5,-1
 -48 -252 l 1,6,7
 -3 -266 -3 -266 52 -266 c 0,8,9
 110 -266 110 -266 138.5 -227 c 128,-1,10
 167 -188 167 -188 167 -109 c 2,11,-1
 168 1409 l 1,12,-1
 390 1409 l 1,13,-1
 1152 201 l 1,14,15
 1140 398 1140 398 1140 485 c 2,16,-1
 1140 1409 l 1,17,-1
 1312 1409 l 1,18,-1
 1312 0 l 1,19,-1
 1082 0 l 1,20,-1
 328 1200 l 1,21,22
 330 1134 330 1134 334 1068 c 128,-1,23
 338 1002 338 1002 338 936 c 2,24,-1
 338 -130 l 2,0,1
EndSplineSet
EndChar

StartChar: uni019E
Encoding: 414 414 350
Width: 1139
Flags: W
LayerCount: 2
Fore
SplineSet
1006 721 m 2,0,-1
 1006 -426 l 1,1,-1
 825 -426 l 1,2,-1
 825 686 l 2,3,4
 825 835 825 835 780 899 c 128,-1,5
 735 963 735 963 602 963 c 0,6,7
 472 963 472 963 397 874 c 128,-1,8
 322 785 322 785 322 627 c 2,9,-1
 322 0 l 1,10,-1
 142 0 l 1,11,-1
 142 851 l 2,12,13
 142 946 142 946 140.5 1003.5 c 128,-1,14
 139 1061 139 1061 136 1082 c 1,15,-1
 306 1082 l 2,16,17
 307 1079 307 1079 308 1059.5 c 128,-1,18
 309 1040 309 1040 311 1000.5 c 128,-1,19
 313 961 313 961 314 897 c 1,20,-1
 317 897 l 1,21,22
 379 1009 379 1009 460.5 1055.5 c 128,-1,23
 542 1102 542 1102 663 1102 c 0,24,25
 841 1102 841 1102 923.5 1013.5 c 128,-1,26
 1006 925 1006 925 1006 721 c 2,0,-1
EndSplineSet
EndChar

StartChar: Ohorn
Encoding: 416 416 352
Width: 1756
Flags: W
LayerCount: 2
Fore
SplineSet
1495 711 m 0,0,1
 1495 491 1495 491 1411 324 c 0,2,3
 1326 158 1326 158 1168 69 c 128,-1,4
 1010 -20 1010 -20 795 -20 c 0,5,6
 579 -20 579 -20 422.5 70.5 c 128,-1,7
 266 161 266 161 181.5 325 c 128,-1,8
 97 489 97 489 97 711 c 0,9,10
 97 937 97 937 180.5 1097.5 c 128,-1,11
 264 1258 264 1258 420.5 1344 c 128,-1,12
 577 1430 577 1430 797 1430 c 0,13,14
 1041 1430 1041 1430 1207 1322.5 c 128,-1,15
 1373 1215 1373 1215 1445 1019 c 1,16,17
 1533 1063 1533 1063 1567.5 1116 c 128,-1,18
 1602 1169 1602 1169 1602 1242 c 1,19,-1
 1514 1242 l 1,20,-1
 1514 1409 l 1,21,-1
 1709 1409 l 1,22,-1
 1709 1303 l 2,23,24
 1709 1180 1709 1180 1651.5 1088.5 c 128,-1,25
 1594 997 1594 997 1469 936 c 1,26,27
 1482 883 1482 883 1488.5 826.5 c 128,-1,28
 1495 770 1495 770 1495 711 c 0,0,1
1300 711 m 0,29,30
 1300 974 1300 974 1168.5 1124 c 128,-1,31
 1037 1274 1037 1274 797 1274 c 0,32,33
 555 1274 555 1274 423 1126 c 128,-1,34
 291 978 291 978 291 711 c 0,35,36
 291 535 291 535 351 405.5 c 128,-1,37
 411 276 411 276 524 205.5 c 128,-1,38
 637 135 637 135 795 135 c 0,39,40
 1039 135 1039 135 1169.5 285.5 c 128,-1,41
 1300 436 1300 436 1300 711 c 0,29,30
EndSplineSet
EndChar

StartChar: ohorn
Encoding: 417 417 353
Width: 1343
Flags: W
LayerCount: 2
Fore
SplineSet
1051 613 m 1,0,1
 1059 382 1059 382 1003 243 c 128,-1,2
 947 104 947 104 835.5 42 c 128,-1,3
 724 -20 724 -20 565 -20 c 0,4,5
 328 -20 328 -20 207 124.5 c 128,-1,6
 86 269 86 269 86 542 c 0,7,8
 86 822 86 822 207.5 962 c 128,-1,9
 329 1102 329 1102 571 1102 c 0,10,11
 784 1102 784 1102 898.5 1002 c 128,-1,12
 1013 902 1013 902 1042 702 c 1,13,14
 1176 767 1176 767 1176 921 c 1,15,-1
 1088 921 l 1,16,-1
 1088 1088 l 1,17,-1
 1283 1088 l 1,18,-1
 1283 982 l 2,19,20
 1283 853 1283 853 1223 757 c 128,-1,21
 1163 661 1163 661 1051 613 c 1,0,1
864 542 m 0,22,23
 864 766 864 766 797.5 867.5 c 128,-1,24
 731 969 731 969 574 969 c 0,25,26
 416 969 416 969 345.5 865.5 c 128,-1,27
 275 762 275 762 275 542 c 0,28,29
 275 328 275 328 344.5 220.5 c 128,-1,30
 414 113 414 113 563 113 c 0,31,32
 725 113 725 113 794.5 217 c 128,-1,33
 864 321 864 321 864 542 c 0,22,23
EndSplineSet
EndChar

StartChar: uni01A2
Encoding: 418 418 354
Width: 1778
Flags: W
LayerCount: 2
Fore
SplineSet
1432 -424 m 1,0,-1
 1432 1221 l 1,1,-1
 1206 1223 l 1,2,-1
 1206 85 l 1,3,4
 1097 33 1097 33 1001.5 6.5 c 128,-1,5
 906 -20 906 -20 787 -20 c 0,6,7
 574 -20 574 -20 419 68.5 c 128,-1,8
 264 157 264 157 180.5 321 c 128,-1,9
 97 485 97 485 97 711 c 0,10,11
 97 932 97 932 179 1093 c 128,-1,12
 261 1254 261 1254 415.5 1342 c 128,-1,13
 570 1430 570 1430 789 1430 c 0,14,15
 951 1430 951 1430 1155 1359 c 1,16,-1
 1569 1423 l 1,17,-1
 1612 1423 l 1,18,-1
 1612 -424 l 1,19,-1
 1432 -424 l 1,0,-1
1026 1228 m 1,20,21
 927 1274 927 1274 789 1274 c 0,22,23
 553 1274 553 1274 422 1124 c 128,-1,24
 291 974 291 974 291 711 c 0,25,26
 291 535 291 535 351 405.5 c 128,-1,27
 411 276 411 276 522 205.5 c 128,-1,28
 633 135 633 135 787 135 c 0,29,30
 927 135 927 135 1026 181 c 1,31,-1
 1026 1228 l 1,20,21
EndSplineSet
EndChar

StartChar: uni01A3
Encoding: 419 419 355
Width: 1367
Flags: W
LayerCount: 2
Fore
SplineSet
1220 1093 m 1,0,-1
 1220 -425 l 1,1,-1
 1045 -425 l 1,2,-1
 1045 918 l 1,3,-1
 856 918 l 1,4,-1
 856 63 l 1,5,6
 799 24 799 24 722.5 2 c 128,-1,7
 646 -20 646 -20 565 -20 c 0,8,9
 328 -20 328 -20 207 124.5 c 128,-1,10
 86 269 86 269 86 542 c 0,11,12
 86 822 86 822 207.5 962 c 128,-1,13
 329 1102 329 1102 571 1102 c 0,14,15
 653 1102 653 1102 727.5 1080.5 c 128,-1,16
 802 1059 802 1059 853 1028 c 1,17,-1
 1177 1093 l 1,18,-1
 1220 1093 l 1,0,-1
683 135 m 1,19,-1
 682 949 l 1,20,21
 628 969 628 969 574 969 c 0,22,23
 416 969 416 969 345.5 865.5 c 128,-1,24
 275 762 275 762 275 542 c 0,25,26
 275 328 275 328 344.5 220.5 c 128,-1,27
 414 113 414 113 563 113 c 0,28,29
 629 113 629 113 683 135 c 1,19,-1
EndSplineSet
EndChar

StartChar: uni01A4
Encoding: 420 420 356
Width: 1545
Flags: W
LayerCount: 2
Fore
SplineSet
932 1409 m 2,0,1
 1169 1409 1169 1409 1299 1298 c 128,-1,2
 1429 1187 1429 1187 1429 985 c 0,3,4
 1429 852 1429 852 1370 754 c 128,-1,5
 1311 656 1311 656 1202.5 602.5 c 128,-1,6
 1094 549 1094 549 944 549 c 2,7,-1
 530 549 l 1,8,-1
 530 0 l 1,9,-1
 339 0 l 1,10,-1
 339 1261 l 1,11,-1
 317 1261 l 2,12,13
 240 1261 240 1261 207 1227 c 128,-1,14
 174 1193 174 1193 174 1122 c 0,15,16
 174 1073 174 1073 192 1017 c 1,17,-1
 37 1000 l 1,18,19
 20 1076 20 1076 20 1135 c 0,20,21
 20 1265 20 1265 106 1337 c 128,-1,22
 192 1409 192 1409 346 1409 c 2,23,-1
 932 1409 l 2,0,1
1237 983 m 0,24,25
 1237 1256 1237 1256 909 1256 c 2,26,-1
 530 1256 l 1,27,-1
 530 700 l 1,28,-1
 917 700 l 2,29,30
 1077 700 1077 700 1157 770.5 c 128,-1,31
 1237 841 1237 841 1237 983 c 0,24,25
EndSplineSet
EndChar

StartChar: uni01A5
Encoding: 421 421 357
Width: 1139
Flags: W
LayerCount: 2
Fore
SplineSet
1053 546 m 0,0,1
 1053 263 1053 263 953.5 121.5 c 128,-1,2
 854 -20 854 -20 655 -20 c 0,3,4
 530 -20 530 -20 446 27 c 128,-1,5
 362 74 362 74 319 168 c 1,6,-1
 314 168 l 1,7,8
 318 161 318 161 318 -2 c 2,9,-1
 318 -425 l 1,10,-1
 138 -425 l 1,11,-1
 138 1202 l 2,12,13
 138 1347 138 1347 211 1422.5 c 128,-1,14
 284 1498 284 1498 427 1498 c 0,15,16
 454 1498 454 1498 482 1495.5 c 128,-1,17
 510 1493 510 1493 557 1482 c 1,18,-1
 557 1316 l 1,19,20
 529 1326 529 1326 500 1331 c 128,-1,21
 471 1336 471 1336 441 1336 c 0,22,23
 316 1336 316 1336 316 1188 c 2,24,-1
 316 908 l 1,25,-1
 320 908 l 1,26,27
 368 1008 368 1008 447 1054.5 c 128,-1,28
 526 1101 526 1101 655 1101 c 0,29,30
 855 1101 855 1101 954 967 c 128,-1,31
 1053 833 1053 833 1053 546 c 0,0,1
864 542 m 0,32,33
 864 768 864 768 803 865 c 128,-1,34
 742 962 742 962 609 962 c 0,35,36
 457 962 457 962 387.5 859.5 c 128,-1,37
 318 757 318 757 318 528 c 0,38,39
 318 315 318 315 386 214 c 128,-1,40
 454 113 454 113 607 113 c 0,41,42
 741 113 741 113 802.5 211.5 c 128,-1,43
 864 310 864 310 864 542 c 0,32,33
EndSplineSet
EndChar

StartChar: uni01A6
Encoding: 422 422 358
Width: 1366
Flags: W
LayerCount: 2
Fore
SplineSet
926 453 m 1,0,-1
 1347 -319 l 1,1,-1
 1127 -319 l 1,2,-1
 740 431 l 1,3,-1
 359 431 l 1,4,-1
 359 0 l 1,5,-1
 168 0 l 1,6,-1
 168 1409 l 1,7,-1
 355 1409 l 1,8,-1
 355 1255 l 1,9,-1
 773 1255 l 2,10,11
 1011 1255 1011 1255 1140.5 1148.5 c 128,-1,12
 1270 1042 1270 1042 1270 852 c 0,13,14
 1270 695 1270 695 1178.5 588 c 128,-1,15
 1087 481 1087 481 926 453 c 1,0,-1
1078 850 m 0,16,17
 1078 973 1078 973 994.5 1037.5 c 128,-1,18
 911 1102 911 1102 754 1102 c 2,19,-1
 359 1102 l 1,20,-1
 359 582 l 1,21,-1
 762 582 l 2,22,23
 913 582 913 582 995.5 652.5 c 128,-1,24
 1078 723 1078 723 1078 850 c 0,16,17
EndSplineSet
EndChar

StartChar: uni01A7
Encoding: 423 423 359
Width: 1366
Flags: W
LayerCount: 2
Fore
SplineSet
98 382 m 0,0,1
 98 472 98 472 129 541.5 c 128,-1,2
 160 611 160 611 220 663 c 0,3,4
 280 714 280 714 375 751.5 c 128,-1,5
 470 789 470 789 626 818 c 0,6,7
 788 849 788 849 862 879 c 0,8,9
 939 910 939 910 979 954.5 c 128,-1,10
 1019 999 1019 999 1019 1063 c 0,11,12
 1019 1286 1019 1286 679 1286 c 0,13,14
 524 1286 524 1286 434.5 1226.5 c 128,-1,15
 345 1167 345 1167 314 1038 c 1,16,-1
 126 1071 l 1,17,18
 177 1262 177 1262 303.5 1346 c 128,-1,19
 430 1430 430 1430 677 1430 c 0,20,21
 935 1430 935 1430 1070 1332 c 128,-1,22
 1205 1234 1205 1234 1205 1053 c 0,23,24
 1205 976 1205 976 1180 917.5 c 128,-1,25
 1155 859 1155 859 1108 817 c 0,26,27
 1085 795 1085 795 1053 776 c 128,-1,28
 1021 757 1021 757 980 740 c 256,29,30
 939 723 939 723 872 704.5 c 128,-1,31
 805 686 805 686 712 666 c 0,32,33
 618 646 618 646 550.5 626.5 c 128,-1,34
 483 607 483 607 443 589 c 0,35,36
 362 552 362 552 324.5 500.5 c 128,-1,37
 287 449 287 449 287 372 c 0,38,39
 287 129 287 129 661 129 c 0,40,41
 776 129 776 129 861 157 c 128,-1,42
 946 185 946 185 1003.5 255 c 128,-1,43
 1061 325 1061 325 1091 451 c 1,44,-1
 1276 414 l 1,45,46
 1224 188 1224 188 1074 84 c 128,-1,47
 924 -20 924 -20 668 -20 c 0,48,49
 391 -20 391 -20 244.5 83.5 c 128,-1,50
 98 187 98 187 98 382 c 0,0,1
EndSplineSet
EndChar

StartChar: uni01A8
Encoding: 424 424 360
Width: 1024
Flags: W
LayerCount: 2
Fore
SplineSet
79 299 m 0,0,1
 79 371 79 371 104.5 424 c 128,-1,2
 130 477 130 477 179 518 c 0,3,4
 229 559 229 559 333 592 c 128,-1,5
 437 625 437 625 540 648 c 0,6,7
 653 674 653 674 702.5 713 c 128,-1,8
 752 752 752 752 752 814 c 0,9,10
 752 888 752 888 698.5 925.5 c 128,-1,11
 645 963 645 963 538 963 c 0,12,13
 427 963 427 963 362 920 c 128,-1,14
 297 877 297 877 277 781 c 1,15,-1
 115 801 l 1,16,17
 146 952 146 952 251 1025.5 c 128,-1,18
 356 1099 356 1099 539 1099 c 256,19,20
 722 1099 722 1099 824.5 1021 c 128,-1,21
 927 943 927 943 927 796 c 0,22,23
 927 715 927 715 893 660.5 c 128,-1,24
 859 606 859 606 789 566 c 0,25,26
 752 545 752 545 690.5 525.5 c 128,-1,27
 629 506 629 506 563 489 c 128,-1,28
 497 472 497 472 445 457 c 0,29,30
 337 426 337 426 295.5 388 c 128,-1,31
 254 350 254 350 254 285 c 0,32,33
 254 201 254 201 315 159 c 128,-1,34
 376 117 376 117 498 117 c 0,35,36
 622 117 622 117 698.5 169 c 128,-1,37
 775 221 775 221 804 325 c 1,38,-1
 963 294 l 1,39,40
 925 137 925 137 808.5 58.5 c 128,-1,41
 692 -20 692 -20 498 -20 c 256,42,43
 304 -20 304 -20 191.5 63.5 c 128,-1,44
 79 147 79 147 79 299 c 0,0,1
EndSplineSet
EndChar

StartChar: uni01AA
Encoding: 426 426 362
Width: 779
Flags: W
LayerCount: 2
Fore
SplineSet
67 1302 m 0,0,1
 67 1392 67 1392 122.5 1442.5 c 128,-1,2
 178 1493 178 1493 272 1493 c 0,3,4
 406 1493 406 1493 472 1417 c 128,-1,5
 538 1341 538 1341 538 1204 c 2,6,-1
 538 -124 l 2,7,8
 538 -267 538 -267 655 -267 c 0,9,10
 682 -267 682 -267 708.5 -264 c 128,-1,11
 735 -261 735 -261 761 -254 c 1,12,-1
 761 -412 l 1,13,14
 695 -425 695 -425 627 -425 c 0,15,16
 499 -425 499 -425 428.5 -348.5 c 128,-1,17
 358 -272 358 -272 358 -129 c 2,18,-1
 358 1148 l 1,19,20
 343 1137 343 1137 312.5 1128 c 128,-1,21
 282 1119 282 1119 255 1119 c 0,22,23
 171 1119 171 1119 119 1170.5 c 128,-1,24
 67 1222 67 1222 67 1302 c 0,0,1
144 1307 m 0,25,26
 144 1258 144 1258 174 1228 c 128,-1,27
 204 1198 204 1198 252 1198 c 0,28,29
 301 1198 301 1198 331 1228 c 128,-1,30
 361 1258 361 1258 361 1307 c 0,31,32
 361 1355 361 1355 331.5 1385 c 128,-1,33
 302 1415 302 1415 252 1415 c 0,34,35
 204 1415 204 1415 174 1385 c 128,-1,36
 144 1355 144 1355 144 1307 c 0,25,26
EndSplineSet
EndChar

StartChar: uni01AB
Encoding: 427 427 363
Width: 569
Flags: W
LayerCount: 2
Fore
SplineSet
554 -143 m 2,0,1
 554 -284 554 -284 491 -354.5 c 128,-1,2
 428 -425 428 -425 301 -425 c 0,3,4
 236 -425 236 -425 166 -408 c 1,5,-1
 166 -248 l 1,6,7
 222 -266 222 -266 272 -266 c 0,8,9
 386 -266 386 -266 386 -129 c 2,10,-1
 386 -16 l 1,11,12
 259 -17 259 -17 207.5 45 c 128,-1,13
 156 107 156 107 156 229 c 2,14,-1
 156 951 l 1,15,-1
 31 951 l 1,16,-1
 31 1082 l 1,17,-1
 163 1082 l 1,18,-1
 216 1324 l 1,19,-1
 336 1324 l 1,20,-1
 336 1082 l 1,21,-1
 536 1082 l 1,22,-1
 536 951 l 1,23,-1
 336 951 l 1,24,-1
 336 268 l 2,25,26
 336 190 336 190 361.5 158.5 c 128,-1,27
 387 127 387 127 450 127 c 0,28,29
 484 127 484 127 554 141 c 1,30,-1
 554 -143 l 2,0,1
EndSplineSet
EndChar

StartChar: uni01AC
Encoding: 428 428 364
Width: 1251
Flags: W
LayerCount: 2
Fore
SplineSet
720 1253 m 1,0,-1
 720 0 l 1,1,-1
 530 0 l 1,2,-1
 530 1253 l 1,3,-1
 317 1253 l 2,4,5
 240 1253 240 1253 207 1223 c 128,-1,6
 174 1193 174 1193 174 1122 c 0,7,8
 174 1073 174 1073 192 1017 c 1,9,-1
 37 1000 l 1,10,11
 20 1076 20 1076 20 1135 c 0,12,13
 20 1269 20 1269 97.5 1339 c 128,-1,14
 175 1409 175 1409 326 1409 c 2,15,-1
 1204 1409 l 1,16,-1
 1204 1253 l 1,17,-1
 720 1253 l 1,0,-1
EndSplineSet
EndChar

StartChar: uni01AD
Encoding: 429 429 365
Width: 569
Flags: W
LayerCount: 2
Fore
SplineSet
554 8 m 1,0,1
 466 -16 466 -16 372 -16 c 0,2,3
 264 -16 264 -16 210 45.5 c 128,-1,4
 156 107 156 107 156 229 c 2,5,-1
 156 951 l 1,6,-1
 31 951 l 1,7,-1
 31 1082 l 1,8,-1
 163 1082 l 1,9,-1
 163 1192 l 2,10,11
 163 1344 163 1344 233 1421 c 128,-1,12
 303 1498 303 1498 437 1498 c 0,13,14
 501 1498 501 1498 557 1484 c 1,15,-1
 557 1316 l 1,16,17
 529 1326 529 1326 503.5 1331 c 128,-1,18
 478 1336 478 1336 455 1336 c 0,19,20
 392 1336 392 1336 364 1299.5 c 128,-1,21
 336 1263 336 1263 336 1188 c 2,22,-1
 336 1082 l 1,23,-1
 536 1082 l 1,24,-1
 536 951 l 1,25,-1
 336 951 l 1,26,-1
 336 268 l 2,27,28
 336 190 336 190 361.5 158.5 c 128,-1,29
 387 127 387 127 450 127 c 0,30,31
 484 127 484 127 554 141 c 1,32,-1
 554 8 l 1,0,1
EndSplineSet
EndChar

StartChar: uni01AE
Encoding: 430 430 366
Width: 1251
Flags: W
LayerCount: 2
Fore
SplineSet
930 -408 m 1,0,1
 857 -425 857 -425 798 -425 c 0,2,3
 669 -425 669 -425 599.5 -351 c 128,-1,4
 530 -277 530 -277 530 -141 c 2,5,-1
 530 1253 l 1,6,-1
 46 1253 l 1,7,-1
 46 1409 l 1,8,-1
 1204 1409 l 1,9,-1
 1204 1253 l 1,10,-1
 720 1253 l 1,11,-1
 720 -109 l 2,12,13
 720 -190 720 -190 744 -228 c 128,-1,14
 768 -266 768 -266 820 -266 c 0,15,16
 882 -266 882 -266 930 -250 c 1,17,-1
 930 -408 l 1,0,1
EndSplineSet
EndChar

StartChar: Uhorn
Encoding: 431 431 367
Width: 1749
Flags: W
LayerCount: 2
Fore
SplineSet
731 -20 m 0,0,1
 559 -20 559 -20 430 44 c 128,-1,2
 301 108 301 108 229.5 227 c 128,-1,3
 158 346 158 346 158 512 c 2,4,-1
 158 1409 l 1,5,-1
 349 1409 l 1,6,-1
 349 528 l 2,7,8
 349 335 349 335 447 235 c 128,-1,9
 545 135 545 135 730 135 c 0,10,11
 920 135 920 135 1025.5 238.5 c 128,-1,12
 1131 342 1131 342 1131 541 c 2,13,-1
 1131 1409 l 1,14,-1
 1321 1409 l 1,15,-1
 1321 1006 l 1,16,17
 1442 1031 1442 1031 1499.5 1089 c 128,-1,18
 1557 1147 1557 1147 1557 1242 c 1,19,-1
 1469 1242 l 1,20,-1
 1469 1409 l 1,21,-1
 1664 1409 l 1,22,-1
 1664 1303 l 2,23,24
 1664 1141 1664 1141 1579.5 1041 c 128,-1,25
 1495 941 1495 941 1321 915 c 1,26,-1
 1321 530 l 2,27,28
 1321 359 1321 359 1248.5 236 c 128,-1,29
 1176 113 1176 113 1043.5 46.5 c 128,-1,30
 911 -20 911 -20 731 -20 c 0,0,1
EndSplineSet
EndChar

StartChar: uhorn
Encoding: 432 432 368
Width: 1371
Flags: W
LayerCount: 2
Fore
SplineSet
822 185 m 1,0,1
 760 73 760 73 678.5 26.5 c 128,-1,2
 597 -20 597 -20 476 -20 c 0,3,4
 298 -20 298 -20 215.5 68.5 c 128,-1,5
 133 157 133 157 133 361 c 2,6,-1
 133 1082 l 1,7,-1
 314 1082 l 1,8,-1
 314 396 l 2,9,10
 314 254 314 254 359 186.5 c 128,-1,11
 404 119 404 119 537 119 c 0,12,13
 667 119 667 119 742 208 c 128,-1,14
 817 297 817 297 817 455 c 2,15,-1
 817 1082 l 1,16,-1
 997 1082 l 1,17,-1
 997 668 l 1,18,19
 1112 703 1112 703 1156.5 758.5 c 128,-1,20
 1201 814 1201 814 1201 915 c 1,21,-1
 1113 915 l 1,22,-1
 1113 1082 l 1,23,-1
 1308 1082 l 1,24,-1
 1308 976 l 2,25,26
 1308 817 1308 817 1236 720.5 c 128,-1,27
 1164 624 1164 624 997 577 c 1,28,-1
 997 231 l 2,29,30
 997 137 997 137 998.5 79 c 128,-1,31
 1000 21 1000 21 1003 0 c 1,32,-1
 833 0 l 1,33,34
 833 4 833 4 831.5 23 c 128,-1,35
 830 42 830 42 828.5 81.5 c 128,-1,36
 827 121 827 121 825 185 c 1,37,-1
 822 185 l 1,0,1
EndSplineSet
EndChar

StartChar: uni01B1
Encoding: 433 433 369
Width: 1531
Flags: W
LayerCount: 2
Fore
SplineSet
765 -21 m 256,0,1
 563 -21 563 -21 417.5 54.5 c 128,-1,2
 272 130 272 130 193.5 271 c 128,-1,3
 115 412 115 412 115 608 c 0,4,5
 115 809 115 809 222.5 979 c 128,-1,6
 330 1149 330 1149 539 1264 c 1,7,8
 462 1259 462 1259 410 1256 c 128,-1,9
 358 1253 358 1253 331 1253 c 2,10,-1
 87 1253 l 1,11,-1
 87 1409 l 1,12,-1
 676 1409 l 1,13,-1
 676 1185 l 1,14,15
 497 1090 497 1090 403.5 947.5 c 128,-1,16
 310 805 310 805 310 621 c 0,17,18
 310 389 310 389 429 262 c 128,-1,19
 548 135 548 135 764 135 c 0,20,21
 982 135 982 135 1101 262 c 128,-1,22
 1220 389 1220 389 1220 621 c 0,23,24
 1220 804 1220 804 1127 946.5 c 128,-1,25
 1034 1089 1034 1089 854 1185 c 1,26,-1
 854 1409 l 1,27,-1
 1443 1409 l 1,28,-1
 1443 1253 l 1,29,-1
 1199 1253 l 2,30,31
 1172 1253 1172 1253 1120 1256 c 128,-1,32
 1068 1259 1068 1259 991 1264 c 1,33,34
 1199 1151 1199 1151 1307 980.5 c 128,-1,35
 1415 810 1415 810 1415 608 c 0,36,37
 1415 412 1415 412 1336.5 271 c 128,-1,38
 1258 130 1258 130 1112.5 54.5 c 128,-1,39
 967 -21 967 -21 765 -21 c 256,0,1
EndSplineSet
EndChar

StartChar: uni01B2
Encoding: 434 434 370
Width: 1479
Flags: W
LayerCount: 2
Fore
SplineSet
703 -20 m 0,0,1
 454 -20 454 -20 306 126.5 c 128,-1,2
 158 273 158 273 158 542 c 2,3,-1
 158 1409 l 1,4,-1
 349 1409 l 1,5,-1
 349 558 l 2,6,7
 349 358 349 358 445.5 246.5 c 128,-1,8
 542 135 542 135 719 135 c 0,9,10
 853 135 853 135 944 224.5 c 128,-1,11
 1035 314 1035 314 1081.5 495 c 128,-1,12
 1128 676 1128 676 1128 949 c 0,13,14
 1128 1118 1128 1118 1089 1190 c 128,-1,15
 1050 1262 1050 1262 959 1262 c 0,16,17
 898 1262 898 1262 851 1252 c 1,18,-1
 844 1409 l 1,19,20
 912 1421 912 1421 989 1421 c 0,21,22
 1150 1421 1150 1421 1234 1309 c 128,-1,23
 1318 1197 1318 1197 1318 980 c 0,24,25
 1318 603 1318 603 1251 396 c 0,26,27
 1117 -20 1117 -20 703 -20 c 0,0,1
EndSplineSet
EndChar

StartChar: uni01B3
Encoding: 435 435 371
Width: 1582
Flags: W
LayerCount: 2
Fore
SplineSet
687 738 m 1,0,-1
 1027 1264 l 2,1,2
 1082 1350 1082 1350 1142 1385.5 c 128,-1,3
 1202 1421 1202 1421 1281 1421 c 0,4,5
 1341 1421 1341 1421 1407.5 1398.5 c 128,-1,6
 1474 1376 1474 1376 1533 1325 c 1,7,-1
 1449 1189 l 1,8,9
 1423 1213 1423 1213 1376 1235.5 c 128,-1,10
 1329 1258 1329 1258 1292 1258 c 0,11,12
 1256 1258 1256 1258 1231.5 1243.5 c 128,-1,13
 1207 1229 1207 1229 1175 1181 c 2,14,-1
 777 584 l 1,15,-1
 777 0 l 1,16,-1
 587 0 l 1,17,-1
 587 584 l 1,18,-1
 45 1409 l 1,19,-1
 259 1409 l 1,20,-1
 687 738 l 1,0,-1
EndSplineSet
EndChar

StartChar: uni01B4
Encoding: 436 436 372
Width: 1024
Flags: W
LayerCount: 2
Fore
SplineSet
191 -425 m 0,0,1
 119 -425 119 -425 67 -414 c 1,2,-1
 67 -279 l 1,3,4
 105 -285 105 -285 151 -285 c 0,5,6
 235 -285 235 -285 301.5 -223.5 c 128,-1,7
 368 -162 368 -162 417 -38 c 2,8,-1
 434 5 l 1,9,-1
 5 1082 l 1,10,-1
 197 1082 l 1,11,-1
 425 484 l 2,12,13
 429 474 429 474 443.5 432 c 128,-1,14
 458 390 458 390 475.5 339 c 128,-1,15
 493 288 493 288 507 247 c 128,-1,16
 521 206 521 206 523 196 c 1,17,-1
 593 393 l 1,18,-1
 891 1249 l 2,19,20
 933 1371 933 1371 996 1431.5 c 128,-1,21
 1059 1492 1059 1492 1180 1492 c 0,22,23
 1310 1492 1310 1492 1418 1399 c 1,24,-1
 1336 1271 l 1,25,26
 1268 1333 1268 1333 1196 1333 c 0,27,28
 1147 1333 1147 1333 1110.5 1298.5 c 128,-1,29
 1074 1264 1074 1264 1048 1196 c 2,30,-1
 604 0 l 2,31,32
 542 -159 542 -159 481 -252 c 128,-1,33
 420 -345 420 -345 350 -385 c 128,-1,34
 280 -425 280 -425 191 -425 c 0,0,1
EndSplineSet
EndChar

StartChar: uni01B5
Encoding: 437 437 373
Width: 1251
Flags: W
LayerCount: 2
Fore
SplineSet
1187 156 m 1,0,-1
 1187 0 l 1,1,-1
 65 0 l 1,2,-1
 65 143 l 1,3,-1
 481 681 l 1,4,-1
 62 681 l 1,5,-1
 62 814 l 1,6,-1
 584 814 l 1,7,-1
 923 1253 l 1,8,-1
 138 1253 l 1,9,-1
 138 1409 l 1,10,-1
 1140 1409 l 1,11,-1
 1140 1270 l 1,12,-1
 789 814 l 1,13,-1
 1188 814 l 1,14,-1
 1188 681 l 1,15,-1
 686 681 l 1,16,-1
 282 156 l 1,17,-1
 1187 156 l 1,0,-1
EndSplineSet
EndChar

StartChar: uni01B6
Encoding: 438 438 374
Width: 1024
Flags: W
LayerCount: 2
Fore
SplineSet
950 139 m 1,0,-1
 950 0 l 1,1,-1
 49 0 l 1,2,-1
 49 137 l 1,3,-1
 333 484 l 1,4,-1
 47 484 l 1,5,-1
 47 617 l 1,6,-1
 442 617 l 1,7,-1
 710 943 l 1,8,-1
 89 943 l 1,9,-1
 89 1082 l 1,10,-1
 913 1082 l 1,11,-1
 913 945 l 1,12,-1
 643 617 l 1,13,-1
 951 617 l 1,14,-1
 951 484 l 1,15,-1
 534 484 l 1,16,-1
 251 139 l 1,17,-1
 950 139 l 1,0,-1
EndSplineSet
EndChar

StartChar: uni01B7
Encoding: 439 439 375
Width: 1251
Flags: W
LayerCount: 2
Fore
SplineSet
613 -426 m 0,0,1
 405 -426 405 -426 266.5 -343 c 128,-1,2
 128 -260 128 -260 45 -78 c 1,3,-1
 207 -6 l 1,4,5
 266 -142 266 -142 366 -209.5 c 128,-1,6
 466 -277 466 -277 606 -277 c 0,7,8
 787 -277 787 -277 890 -159.5 c 128,-1,9
 993 -42 993 -42 993 171 c 0,10,11
 993 386 993 386 863.5 502 c 128,-1,12
 734 618 734 618 489 618 c 2,13,-1
 418 618 l 1,14,-1
 418 759 l 1,15,-1
 918 1253 l 1,16,-1
 113 1253 l 1,17,-1
 113 1409 l 1,18,-1
 1131 1409 l 1,19,-1
 1131 1248 l 1,20,-1
 626 758 l 1,21,22
 896 740 896 740 1038.5 590.5 c 128,-1,23
 1181 441 1181 441 1181 171 c 0,24,25
 1181 -2 1181 -2 1110 -139 c 0,26,27
 1038 -275 1038 -275 907 -350.5 c 128,-1,28
 776 -426 776 -426 613 -426 c 0,0,1
EndSplineSet
EndChar

StartChar: uni01B8
Encoding: 440 440 376
Width: 1251
Flags: W
LayerCount: 2
Fore
SplineSet
638 -426 m 0,0,1
 466 -426 466 -426 338.5 -353.5 c 128,-1,2
 211 -281 211 -281 140.5 -147 c 128,-1,3
 70 -13 70 -13 70 171 c 0,4,5
 70 339 70 339 136 463.5 c 128,-1,6
 202 588 202 588 326.5 663.5 c 128,-1,7
 451 739 451 739 625 758 c 1,8,-1
 120 1248 l 1,9,-1
 120 1409 l 1,10,-1
 1138 1409 l 1,11,-1
 1138 1253 l 1,12,-1
 333 1253 l 1,13,-1
 833 759 l 1,14,-1
 833 618 l 1,15,-1
 762 618 l 2,16,17
 518 618 518 618 388 502.5 c 128,-1,18
 258 387 258 387 258 171 c 0,19,20
 258 32 258 32 307.5 -68.5 c 128,-1,21
 357 -169 357 -169 444.5 -223 c 128,-1,22
 532 -277 532 -277 645 -277 c 0,23,24
 785 -277 785 -277 885 -209.5 c 128,-1,25
 985 -142 985 -142 1044 -6 c 1,26,-1
 1206 -78 l 1,27,28
 1123 -260 1123 -260 984 -343 c 128,-1,29
 845 -426 845 -426 638 -426 c 0,0,1
EndSplineSet
EndChar

StartChar: uni01B9
Encoding: 441 441 377
Width: 1116
Flags: W
LayerCount: 2
Fore
SplineSet
573 -286 m 0,0,1
 712 -286 712 -286 788 -226 c 128,-1,2
 864 -166 864 -166 882 -36 c 1,3,-1
 1060 -48 l 1,4,5
 1037 -235 1037 -235 909.5 -331 c 128,-1,6
 782 -427 782 -427 567 -427 c 0,7,8
 415 -427 415 -427 309 -361 c 128,-1,9
 203 -295 203 -295 148 -182.5 c 128,-1,10
 93 -70 93 -70 93 69 c 0,11,12
 93 262 93 262 201 388.5 c 128,-1,13
 309 515 309 515 498 540 c 1,14,-1
 129 905 l 1,15,-1
 129 1083 l 1,16,-1
 1012 1083 l 1,17,-1
 1012 942 l 1,18,-1
 319 942 l 1,19,-1
 702 555 l 1,20,-1
 702 411 l 1,21,-1
 620 411 l 2,22,23
 464 411 464 411 369 319 c 128,-1,24
 274 227 274 227 274 75 c 0,25,26
 274 -17 274 -17 310.5 -99.5 c 128,-1,27
 347 -182 347 -182 414 -234 c 128,-1,28
 481 -286 481 -286 573 -286 c 0,0,1
EndSplineSet
EndChar

StartChar: uni01BA
Encoding: 442 442 378
Width: 1116
Flags: W
LayerCount: 2
Fore
SplineSet
1055 -101 m 1,0,1
 1015 -256 1015 -256 880.5 -341 c 128,-1,2
 746 -426 746 -426 536 -426 c 0,3,4
 467 -426 467 -426 402.5 -418 c 128,-1,5
 338 -410 338 -410 285 -391 c 0,6,7
 177 -353 177 -353 127.5 -283 c 128,-1,8
 78 -213 78 -213 78 -121 c 0,9,10
 78 -42 78 -42 120 13 c 0,11,12
 149 50 149 50 190 79 c 128,-1,13
 231 108 231 108 300 134.5 c 128,-1,14
 369 161 369 161 481 189 c 0,15,16
 654 232 654 232 709 272 c 0,17,18
 766 311 766 311 766 370 c 0,19,20
 766 444 766 444 668 474 c 0,21,22
 584 501 584 501 427 504 c 2,23,-1
 378 505 l 1,24,-1
 378 644 l 1,25,-1
 734 942 l 1,26,-1
 108 942 l 1,27,-1
 108 1082 l 1,28,-1
 976 1082 l 1,29,-1
 976 963 l 1,30,-1
 580 641 l 1,31,32
 758 628 758 628 849 558.5 c 128,-1,33
 940 489 940 489 940 370 c 0,34,35
 940 288 940 288 900.5 234 c 128,-1,36
 861 180 861 180 792 144 c 0,37,38
 725 109 725 109 547 65 c 0,39,40
 409 30 409 30 362 8 c 0,41,42
 313 -15 313 -15 287 -47.5 c 128,-1,43
 261 -80 261 -80 261 -128 c 0,44,45
 261 -201 261 -201 331 -242 c 128,-1,46
 401 -283 401 -283 537 -283 c 0,47,48
 674 -283 674 -283 759 -232.5 c 128,-1,49
 844 -182 844 -182 877 -82 c 1,50,-1
 1055 -101 l 1,0,1
EndSplineSet
EndChar

StartChar: uni01BB
Encoding: 443 443 379
Width: 1139
Flags: W
LayerCount: 2
Fore
SplineSet
1036 153 m 1,0,-1
 1036 0 l 1,1,-1
 103 0 l 1,2,-1
 103 127 l 1,3,4
 141 216 141 216 194 289 c 0,5,6
 230 339 230 339 270 384.5 c 128,-1,7
 310 430 310 430 369 484 c 128,-1,8
 428 538 428 538 522 614 c 1,9,-1
 90 614 l 1,10,-1
 90 750 l 1,11,-1
 682 750 l 1,12,13
 829 887 829 887 829 1038 c 0,14,15
 829 1154 829 1154 761 1218 c 128,-1,16
 693 1282 693 1282 572 1282 c 0,17,18
 457 1282 457 1282 382.5 1219.5 c 128,-1,19
 308 1157 308 1157 295 1044 c 1,20,-1
 111 1061 l 1,21,22
 131 1230 131 1230 254.5 1330 c 128,-1,23
 378 1430 378 1430 572 1430 c 0,24,25
 785 1430 785 1430 899.5 1329.5 c 128,-1,26
 1014 1229 1014 1229 1014 1044 c 0,27,28
 1014 899 1014 899 891 750 c 1,29,-1
 1032 750 l 1,30,-1
 1032 614 l 1,31,-1
 756 614 l 1,32,33
 721 583 721 583 671.5 541.5 c 128,-1,34
 622 500 622 500 573 459.5 c 128,-1,35
 524 419 524 419 490 388 c 0,36,37
 427 332 427 332 377 274 c 128,-1,38
 327 216 327 216 301 153 c 1,39,-1
 1036 153 l 1,0,-1
EndSplineSet
EndChar

StartChar: uni01BC
Encoding: 444 444 380
Width: 1139
Flags: W
LayerCount: 2
Fore
SplineSet
138 1409 m 1,0,-1
 980 1409 l 1,1,-1
 980 1253 l 1,2,-1
 494 1253 l 1,3,-1
 494 950 l 1,4,-1
 572 950 l 2,5,6
 803 950 803 950 932.5 824 c 128,-1,7
 1062 698 1062 698 1062 479 c 0,8,9
 1062 243 1062 243 929.5 111.5 c 128,-1,10
 797 -20 797 -20 562 -20 c 0,11,12
 371 -20 371 -20 247 77 c 128,-1,13
 123 174 123 174 89 345 c 1,14,-1
 268 366 l 1,15,16
 303 240 303 240 377.5 181.5 c 128,-1,17
 452 123 452 123 565 123 c 0,18,19
 713 123 713 123 794 213 c 128,-1,20
 875 303 875 303 875 475 c 0,21,22
 875 635 875 635 788.5 715 c 128,-1,23
 702 795 702 795 539 795 c 2,24,-1
 310 795 l 1,25,-1
 310 1253 l 1,26,-1
 138 1253 l 1,27,-1
 138 1409 l 1,0,-1
EndSplineSet
EndChar

StartChar: uni01BD
Encoding: 445 445 381
Width: 939
Flags: W
LayerCount: 2
Fore
SplineSet
50 1082 m 1,0,-1
 830 1082 l 1,1,-1
 830 942 l 1,2,-1
 384 942 l 1,3,-1
 384 688 l 1,4,-1
 438 688 l 2,5,6
 641 688 641 688 752 596.5 c 128,-1,7
 863 505 863 505 863 343 c 0,8,9
 863 170 863 170 758.5 75 c 128,-1,10
 654 -20 654 -20 466 -20 c 0,11,12
 289 -20 289 -20 184.5 60.5 c 128,-1,13
 80 141 80 141 46 311 c 1,14,-1
 220 323 l 1,15,16
 233 230 233 230 297.5 171.5 c 128,-1,17
 362 113 362 113 454 113 c 0,18,19
 682 113 682 113 682 341 c 0,20,21
 682 445 682 445 608.5 497.5 c 128,-1,22
 535 550 535 550 389 550 c 2,23,-1
 222 550 l 1,24,-1
 222 942 l 1,25,-1
 50 942 l 1,26,-1
 50 1082 l 1,0,-1
EndSplineSet
EndChar

StartChar: uni01BE
Encoding: 446 446 382
Width: 997
Flags: W
LayerCount: 2
Fore
SplineSet
167 951 m 1,0,-1
 36 951 l 1,1,-1
 36 1082 l 1,2,-1
 168 1082 l 1,3,-1
 168 1429 l 1,4,-1
 347 1507 l 1,5,-1
 347 1082 l 1,6,-1
 532 1082 l 1,7,-1
 532 951 l 1,8,-1
 347 951 l 1,9,-1
 347 844 l 2,10,11
 347 759 347 759 364 726 c 0,12,13
 381 692 381 692 421.5 669.5 c 128,-1,14
 462 647 462 647 538 629 c 0,15,16
 626 607 626 607 675.5 590.5 c 128,-1,17
 725 574 725 574 754 559.5 c 128,-1,18
 783 545 783 545 807 528 c 0,19,20
 861 490 861 490 890.5 436 c 128,-1,21
 920 382 920 382 920 299 c 0,22,23
 920 147 920 147 820 63.5 c 128,-1,24
 720 -20 720 -20 511 -20 c 0,25,26
 309 -20 309 -20 199.5 46.5 c 128,-1,27
 90 113 90 113 57 254 c 1,28,-1
 216 285 l 1,29,30
 239 198 239 198 311 157.5 c 128,-1,31
 383 117 383 117 511 117 c 256,32,33
 639 117 639 117 692 161.5 c 128,-1,34
 745 206 745 206 745 285 c 0,35,36
 745 368 745 368 693.5 403.5 c 128,-1,37
 642 439 642 439 542 467 c 0,38,39
 481 484 481 484 410 505.5 c 128,-1,40
 339 527 339 527 294 556 c 0,41,42
 224 601 224 601 195.5 666.5 c 128,-1,43
 167 732 167 732 167 826 c 2,44,-1
 167 951 l 1,0,-1
EndSplineSet
EndChar

StartChar: uni01BF
Encoding: 447 447 383
Width: 1139
Flags: W
LayerCount: 2
Fore
SplineSet
1051 624 m 0,0,1
 1051 542 1051 542 1032.5 467 c 128,-1,2
 1014 392 1014 392 977 324 c 0,3,4
 902 188 902 188 747 80.5 c 128,-1,5
 592 -27 592 -27 318 -127 c 1,6,-1
 318 -426 l 1,7,-1
 138 -426 l 1,8,-1
 138 1082 l 1,9,-1
 306 1082 l 1,10,11
 311 1030 311 1030 313.5 986.5 c 128,-1,12
 316 943 316 943 316 908 c 1,13,-1
 320 908 l 1,14,15
 364 1005 364 1005 447.5 1053 c 128,-1,16
 531 1101 531 1101 643 1101 c 0,17,18
 840 1101 840 1101 945.5 978.5 c 128,-1,19
 1051 856 1051 856 1051 624 c 0,0,1
861 624 m 0,20,21
 861 962 861 962 605 962 c 0,22,23
 462 962 462 962 390 859.5 c 128,-1,24
 318 757 318 757 318 545 c 2,25,-1
 318 20 l 1,26,27
 518 95 518 95 634 184 c 0,28,29
 861 359 861 359 861 624 c 0,20,21
EndSplineSet
EndChar

StartChar: uni01C0
Encoding: 448 448 384
Width: 532
Flags: W
LayerCount: 2
Fore
SplineSet
356 1484 m 1,0,-1
 356 0 l 1,1,-1
 176 0 l 1,2,-1
 176 1484 l 1,3,-1
 356 1484 l 1,0,-1
EndSplineSet
EndChar

StartChar: uni01C1
Encoding: 449 449 385
Width: 846
Flags: W
LayerCount: 2
Fore
SplineSet
344 1484 m 1,0,-1
 344 0 l 1,1,-1
 179 0 l 1,2,-1
 179 1484 l 1,3,-1
 344 1484 l 1,0,-1
667 1484 m 1,4,-1
 667 0 l 1,5,-1
 502 0 l 1,6,-1
 502 1484 l 1,7,-1
 667 1484 l 1,4,-1
EndSplineSet
EndChar

StartChar: uni01C2
Encoding: 450 450 386
Width: 1196
Flags: W
LayerCount: 2
Fore
SplineSet
684 416 m 1,0,-1
 684 0 l 1,1,-1
 510 0 l 1,2,-1
 510 416 l 1,3,-1
 114 416 l 1,4,-1
 114 569 l 1,5,-1
 510 569 l 1,6,-1
 510 877 l 1,7,-1
 114 877 l 1,8,-1
 114 1030 l 1,9,-1
 510 1030 l 1,10,-1
 510 1484 l 1,11,-1
 684 1484 l 1,12,-1
 684 1030 l 1,13,-1
 1082 1030 l 1,14,-1
 1082 877 l 1,15,-1
 684 877 l 1,16,-1
 684 569 l 1,17,-1
 1082 569 l 1,18,-1
 1082 416 l 1,19,-1
 684 416 l 1,0,-1
EndSplineSet
EndChar

StartChar: uni01DD
Encoding: 477 477 413
Width: 1139
Flags: W
LayerCount: 2
Fore
SplineSet
858 579 m 1,0,1
 858 765 858 765 781 866 c 128,-1,2
 704 967 704 967 556 967 c 0,3,4
 439 967 439 967 368.5 920 c 128,-1,5
 298 873 298 873 273 801 c 1,6,-1
 115 846 l 1,7,8
 212 1102 212 1102 556 1102 c 0,9,10
 796 1102 796 1102 921.5 959 c 128,-1,11
 1047 816 1047 816 1047 534 c 0,12,13
 1047 266 1047 266 921.5 123 c 128,-1,14
 796 -20 796 -20 563 -20 c 0,15,16
 325 -20 325 -20 205.5 124 c 128,-1,17
 86 268 86 268 86 555 c 2,18,-1
 86 579 l 1,19,-1
 858 579 l 1,0,1
272 441 m 1,20,21
 287 270 287 270 359 191.5 c 128,-1,22
 431 113 431 113 566 113 c 0,23,24
 697 113 697 113 773.5 200.5 c 128,-1,25
 850 288 850 288 856 441 c 1,26,-1
 272 441 l 1,20,21
EndSplineSet
EndChar

StartChar: uni01E4
Encoding: 484 484 420
Width: 1593
Flags: W
LayerCount: 2
Fore
SplineSet
1440 219 m 1,0,1
 1328 105 1328 105 1165.5 42.5 c 128,-1,2
 1003 -20 1003 -20 813 -20 c 0,3,4
 593 -20 593 -20 434 69 c 128,-1,5
 275 158 275 158 189 322.5 c 128,-1,6
 103 487 103 487 103 711 c 0,7,8
 103 1054 103 1054 287 1242 c 128,-1,9
 471 1430 471 1430 804 1430 c 0,10,11
 1038 1430 1038 1430 1184 1351 c 128,-1,12
 1330 1272 1330 1272 1409 1098 c 1,13,-1
 1227 1044 l 1,14,15
 1167 1164 1167 1164 1061.5 1219 c 128,-1,16
 956 1274 956 1274 799 1274 c 0,17,18
 555 1274 555 1274 426 1126.5 c 128,-1,19
 297 979 297 979 297 711 c 0,20,21
 297 444 297 444 434 289.5 c 128,-1,22
 571 135 571 135 813 135 c 0,23,24
 951 135 951 135 1070.5 177 c 128,-1,25
 1190 219 1190 219 1264 291 c 1,26,-1
 1264 308 l 1,27,-1
 844 308 l 1,28,-1
 844 438 l 1,29,-1
 1264 438 l 1,30,-1
 1264 545 l 1,31,-1
 843 545 l 1,32,-1
 843 705 l 1,33,-1
 1440 705 l 1,34,-1
 1440 438 l 1,35,-1
 1568 438 l 1,36,-1
 1568 308 l 1,37,-1
 1440 308 l 1,38,-1
 1440 219 l 1,0,1
EndSplineSet
EndChar

StartChar: uni01E5
Encoding: 485 485 421
Width: 1139
Flags: W
LayerCount: 2
Fore
SplineSet
548 -425 m 0,0,1
 371 -425 371 -425 266 -355.5 c 128,-1,2
 161 -286 161 -286 131 -158 c 1,3,-1
 312 -132 l 1,4,5
 349 -288 349 -288 553 -288 c 256,6,7
 757 -288 757 -288 804 -108 c 1,8,-1
 404 -108 l 1,9,-1
 404 22 l 1,10,-1
 822 22 l 1,11,-1
 822 291 l 1,12,-1
 820 291 l 1,13,14
 769 187 769 187 680 134.5 c 128,-1,15
 591 82 591 82 472 82 c 0,16,17
 274 82 274 82 180 202.5 c 128,-1,18
 86 323 86 323 86 585 c 0,19,20
 86 849 86 849 187.5 974 c 128,-1,21
 289 1099 289 1099 492 1099 c 0,22,23
 607 1099 607 1099 691.5 1046.5 c 128,-1,24
 776 994 776 994 822 897 c 1,25,-1
 824 897 l 1,26,27
 824 917 824 917 826 959.5 c 128,-1,28
 828 1002 828 1002 831 1040 c 128,-1,29
 834 1078 834 1078 836 1082 c 1,30,-1
 1007 1082 l 1,31,32
 1001 1028 1001 1028 1001 858 c 2,33,-1
 1001 22 l 1,34,-1
 1128 22 l 1,35,-1
 1128 -108 l 1,36,-1
 988 -108 l 1,37,38
 957 -266 957 -266 849 -345.5 c 128,-1,39
 741 -425 741 -425 548 -425 c 0,0,1
822 586 m 0,40,41
 822 763 822 763 742 864 c 128,-1,42
 662 965 662 965 536 965 c 0,43,44
 398 965 398 965 335 875 c 128,-1,45
 272 785 272 785 272 586 c 256,46,47
 272 387 272 387 331.5 301 c 128,-1,48
 391 215 391 215 533 215 c 0,49,50
 663 215 663 215 742.5 314 c 128,-1,51
 822 413 822 413 822 586 c 0,40,41
EndSplineSet
EndChar

StartChar: uni01F6
Encoding: 502 502 438
Width: 2118
Flags: W
LayerCount: 2
Fore
SplineSet
1312 394 m 2,0,1
 1312 247 1312 247 1371 182 c 128,-1,2
 1430 117 1430 117 1558 117 c 256,3,4
 1686 117 1686 117 1744.5 181.5 c 128,-1,5
 1803 246 1803 246 1803 394 c 2,6,-1
 1803 1082 l 1,7,-1
 1984 1082 l 1,8,-1
 1984 365 l 2,9,10
 1984 188 1984 188 1871 84 c 128,-1,11
 1758 -20 1758 -20 1557 -20 c 0,12,13
 1353 -20 1353 -20 1237 82 c 128,-1,14
 1121 184 1121 184 1121 362 c 2,15,-1
 1121 653 l 1,16,-1
 359 653 l 1,17,-1
 359 0 l 1,18,-1
 168 0 l 1,19,-1
 168 1409 l 1,20,-1
 359 1409 l 1,21,-1
 359 813 l 1,22,-1
 1121 813 l 1,23,-1
 1121 1409 l 1,24,-1
 1312 1409 l 1,25,-1
 1312 394 l 2,0,1
EndSplineSet
EndChar

StartChar: uni01F7
Encoding: 503 503 439
Width: 1266
Flags: W
LayerCount: 2
Fore
SplineSet
1177 931 m 0,0,1
 1177 713 1177 713 1065 488 c 0,2,3
 990 337 990 337 878.5 207.5 c 128,-1,4
 767 78 767 78 634 -17 c 128,-1,5
 501 -112 501 -112 359 -160 c 1,6,-1
 359 -425 l 1,7,-1
 168 -425 l 1,8,-1
 168 1409 l 1,9,-1
 352 1409 l 1,10,-1
 352 1245 l 1,11,12
 415 1333 415 1333 510 1381.5 c 128,-1,13
 605 1430 605 1430 716 1430 c 0,14,15
 865 1430 865 1430 967.5 1374.5 c 128,-1,16
 1070 1319 1070 1319 1123.5 1208.5 c 128,-1,17
 1177 1098 1177 1098 1177 931 c 0,0,1
982 932 m 0,18,19
 982 1098 982 1098 910 1186.5 c 128,-1,20
 838 1275 838 1275 693 1275 c 0,21,22
 599 1275 599 1275 523 1224.5 c 128,-1,23
 447 1174 447 1174 403 1090.5 c 128,-1,24
 359 1007 359 1007 359 909 c 2,25,-1
 359 2 l 1,26,27
 523 61 523 61 667 211 c 0,28,29
 764 311 764 311 834.5 432.5 c 128,-1,30
 905 554 905 554 943.5 683 c 128,-1,31
 982 812 982 812 982 932 c 0,18,19
EndSplineSet
EndChar

StartChar: Aringacute
Encoding: 506 506 442
Width: 1366
Flags: W
LayerCount: 2
Fore
SplineSet
685 1657 m 1,0,-1
 571 1657 l 1,1,-1
 571 1673 l 1,2,-1
 788 1854 l 1,3,-1
 995 1854 l 1,4,-1
 995 1831 l 1,5,-1
 685 1657 l 1,0,-1
926 1392 m 0,6,7
 926 1337 926 1337 896.5 1288.5 c 128,-1,8
 867 1240 867 1240 821 1212 c 1,9,-1
 1362 0 l 1,10,-1
 1167 0 l 1,11,-1
 1006 371 l 1,12,-1
 364 371 l 1,13,-1
 202 0 l 1,14,-1
 4 0 l 1,15,-1
 552 1209 l 1,16,17
 503 1237 503 1237 472.5 1286.5 c 128,-1,18
 442 1336 442 1336 442 1392 c 0,19,20
 442 1452 442 1452 475 1501.5 c 128,-1,21
 508 1551 508 1551 563 1580 c 128,-1,22
 618 1609 618 1609 684 1609 c 0,23,24
 751 1609 751 1609 805.5 1579.5 c 128,-1,25
 860 1550 860 1550 893 1501 c 128,-1,26
 926 1452 926 1452 926 1392 c 0,6,7
818 1392 m 0,27,28
 818 1442 818 1442 779 1477.5 c 128,-1,29
 740 1513 740 1513 684 1513 c 0,30,31
 627 1513 627 1513 588 1477.5 c 128,-1,32
 549 1442 549 1442 549 1392 c 0,33,34
 549 1345 549 1345 587 1306.5 c 128,-1,35
 625 1268 625 1268 680 1268 c 0,36,37
 742 1268 742 1268 780 1305.5 c 128,-1,38
 818 1343 818 1343 818 1392 c 0,27,28
685 1138 m 1,39,40
 671 1093 671 1093 647 1029.5 c 128,-1,41
 623 966 623 966 609 934 c 2,42,-1
 422 505 l 1,43,-1
 949 505 l 1,44,-1
 761 939 l 2,45,46
 748 969 748 969 725 1028.5 c 128,-1,47
 702 1088 702 1088 685 1138 c 1,39,40
EndSplineSet
EndChar

StartChar: uni021C
Encoding: 540 540 476
Width: 1116
Flags: W
LayerCount: 2
Fore
SplineSet
136 -427 m 1,0,-1
 136 -257 l 1,1,2
 507 -162 507 -162 683 -21 c 128,-1,3
 859 120 859 120 859 319 c 0,4,5
 859 416 859 416 821.5 498 c 128,-1,6
 784 580 784 580 722 625 c 1,7,8
 651 587 651 587 563.5 553 c 128,-1,9
 476 519 476 519 370 488 c 1,10,-1
 370 653 l 1,11,12
 611 720 611 720 720 808.5 c 128,-1,13
 829 897 829 897 829 1016 c 0,14,15
 829 1134 829 1134 758.5 1201.5 c 128,-1,16
 688 1269 688 1269 551 1269 c 0,17,18
 438 1269 438 1269 359.5 1228.5 c 128,-1,19
 281 1188 281 1188 217 1077 c 1,20,-1
 64 1156 l 1,21,22
 149 1300 149 1300 270 1365.5 c 128,-1,23
 391 1431 391 1431 559 1431 c 0,24,25
 699 1431 699 1431 801 1377 c 128,-1,26
 903 1323 903 1323 958.5 1231.5 c 128,-1,27
 1014 1140 1014 1140 1014 1027 c 0,28,29
 1014 938 1014 938 976.5 861.5 c 128,-1,30
 939 785 939 785 864 720 c 1,31,32
 957 645 957 645 1002 542 c 128,-1,33
 1047 439 1047 439 1047 329 c 0,34,35
 1047 190 1047 190 991.5 79 c 128,-1,36
 936 -32 936 -32 840 -115 c 0,37,38
 776 -171 776 -171 687.5 -222 c 128,-1,39
 599 -273 599 -273 466.5 -323 c 128,-1,40
 334 -373 334 -373 136 -427 c 1,0,-1
EndSplineSet
EndChar

StartChar: uni021D
Encoding: 541 541 477
Width: 894
Flags: W
LayerCount: 2
Fore
SplineSet
269 472 m 1,0,1
 429 522 429 522 491 557 c 0,2,3
 556 592 556 592 595.5 641.5 c 128,-1,4
 635 691 635 691 635 764 c 0,5,6
 635 869 635 869 587 919 c 128,-1,7
 539 969 539 969 438 969 c 0,8,9
 346 969 346 969 291 926.5 c 128,-1,10
 236 884 236 884 207 792 c 1,11,-1
 40 825 l 1,12,13
 80 964 80 964 175.5 1033 c 128,-1,14
 271 1102 271 1102 436 1102 c 0,15,16
 628 1102 628 1102 721 1017.5 c 128,-1,17
 814 933 814 933 814 766 c 0,18,19
 814 685 814 685 774 620 c 128,-1,20
 734 555 734 555 660 500 c 1,21,22
 733 435 733 435 776 341.5 c 128,-1,23
 819 248 819 248 819 155 c 0,24,25
 819 17 819 17 745 -92 c 256,26,27
 671 -201 671 -201 517 -282.5 c 128,-1,28
 363 -364 363 -364 89 -426 c 1,29,-1
 89 -271 l 1,30,31
 216 -239 216 -239 299 -211 c 128,-1,32
 382 -183 382 -183 463 -137 c 0,33,34
 543 -92 543 -92 591.5 -20 c 128,-1,35
 640 52 640 52 640 149 c 0,36,37
 640 230 640 230 612.5 296.5 c 128,-1,38
 585 363 585 363 529 422 c 1,39,40
 472 394 472 394 407.5 369 c 128,-1,41
 343 344 343 344 269 321 c 1,42,-1
 269 472 l 1,0,1
EndSplineSet
EndChar

StartChar: uni0220
Encoding: 544 544 480
Width: 1446
Flags: W
LayerCount: 2
Fore
SplineSet
1283 939 m 2,0,-1
 1283 -425 l 1,1,-1
 1093 -425 l 1,2,-1
 1093 939 l 2,3,4
 1093 1066 1093 1066 1062 1138 c 0,5,6
 1031 1212 1031 1212 964.5 1246 c 128,-1,7
 898 1280 898 1280 777 1280 c 0,8,9
 666 1280 666 1280 550.5 1231 c 128,-1,10
 435 1182 435 1182 353 1100 c 1,11,-1
 353 0 l 1,12,-1
 164 0 l 1,13,-1
 164 1409 l 1,14,-1
 351 1409 l 1,15,-1
 351 1258 l 1,16,17
 425 1337 425 1337 555.5 1383 c 128,-1,18
 686 1429 686 1429 836 1429 c 0,19,20
 1069 1429 1069 1429 1176 1311 c 128,-1,21
 1283 1193 1283 1193 1283 939 c 2,0,-1
EndSplineSet
EndChar

StartChar: uni0221
Encoding: 545 545 481
Width: 1396
Flags: W
LayerCount: 2
Fore
SplineSet
1002 64 m 1,0,1
 1068 87 1068 87 1128 87 c 0,2,3
 1256 87 1256 87 1326 19.5 c 128,-1,4
 1396 -48 1396 -48 1396 -167 c 0,5,6
 1396 -292 1396 -292 1317 -358.5 c 128,-1,7
 1238 -425 1238 -425 1127 -425 c 0,8,9
 1035 -425 1035 -425 969 -377.5 c 128,-1,10
 903 -330 903 -330 863 -236 c 1,11,-1
 706 -426 l 1,12,-1
 596 -309 l 1,13,14
 657 -224 657 -224 716.5 -154.5 c 128,-1,15
 776 -85 776 -85 830 -37 c 1,16,17
 826 1 826 1 825.5 36.5 c 128,-1,18
 825 72 825 72 825 110 c 2,19,-1
 825 174 l 1,20,-1
 821 174 l 1,21,22
 771 70 771 70 688.5 25 c 128,-1,23
 606 -20 606 -20 484 -20 c 0,24,25
 279 -20 279 -20 182.5 118 c 128,-1,26
 86 256 86 256 86 536 c 0,27,28
 86 819 86 819 185.5 960.5 c 128,-1,29
 285 1102 285 1102 484 1102 c 0,30,31
 607 1102 607 1102 689 1057 c 128,-1,32
 771 1012 771 1012 821 914 c 1,33,-1
 823 914 l 1,34,-1
 821 1035 l 1,35,-1
 821 1484 l 1,36,-1
 1001 1484 l 1,37,-1
 1002 64 l 1,0,1
275 542 m 0,38,39
 275 315 275 315 335 217 c 128,-1,40
 395 119 395 119 530 119 c 0,41,42
 683 119 683 119 752 225 c 128,-1,43
 821 331 821 331 821 554 c 0,44,45
 821 769 821 769 752 869 c 128,-1,46
 683 969 683 969 532 969 c 0,47,48
 396 969 396 969 335.5 868.5 c 128,-1,49
 275 768 275 768 275 542 c 0,38,39
1241 -171 m 0,50,51
 1241 -123 1241 -123 1212.5 -90.5 c 128,-1,52
 1184 -58 1184 -58 1126 -58 c 0,53,54
 1088 -58 1088 -58 1057 -72.5 c 128,-1,55
 1026 -87 1026 -87 994 -107 c 1,56,57
 994 -187 994 -187 1029.5 -234 c 128,-1,58
 1065 -281 1065 -281 1126 -281 c 0,59,60
 1178 -281 1178 -281 1209.5 -252.5 c 128,-1,61
 1241 -224 1241 -224 1241 -171 c 0,50,51
EndSplineSet
EndChar

StartChar: uni0222
Encoding: 546 546 482
Width: 1238
Flags: W
LayerCount: 2
Fore
SplineSet
638 1430 m 1,0,1
 857 1425 857 1425 981 1326.5 c 128,-1,2
 1105 1228 1105 1228 1105 1066 c 0,3,4
 1105 942 1105 942 1034 853.5 c 128,-1,5
 963 765 963 765 837 742 c 1,6,-1
 837 738 l 1,7,8
 982 716 982 716 1062.5 624 c 128,-1,9
 1143 532 1143 532 1143 391 c 0,10,11
 1143 198 1143 198 1004 89 c 128,-1,12
 865 -20 865 -20 619 -20 c 0,13,14
 366 -20 366 -20 229.5 88 c 128,-1,15
 93 196 93 196 93 389 c 0,16,17
 93 528 93 528 178 622 c 128,-1,18
 263 716 263 716 395 736 c 1,19,-1
 395 740 l 1,20,21
 258 777 258 777 193.5 839.5 c 128,-1,22
 129 902 129 902 129 999 c 0,23,24
 129 1137 129 1137 243.5 1212.5 c 128,-1,25
 358 1288 358 1288 578 1292 c 1,26,-1
 578 1162 l 1,27,28
 310 1155 310 1155 310 991 c 0,29,30
 310 902 310 902 392.5 855 c 128,-1,31
 475 808 475 808 617 808 c 0,32,33
 763 808 763 808 842 871.5 c 128,-1,34
 921 935 921 935 921 1056 c 0,35,36
 921 1164 921 1164 848.5 1227.5 c 128,-1,37
 776 1291 776 1291 638 1296 c 1,38,-1
 638 1430 l 1,0,1
959 408 m 0,39,40
 959 532 959 532 867 602 c 128,-1,41
 775 672 775 672 614 672 c 0,42,43
 458 672 458 672 367 596 c 128,-1,44
 276 520 276 520 276 390 c 0,45,46
 276 261 276 261 365 190.5 c 128,-1,47
 454 120 454 120 621 120 c 0,48,49
 790 120 790 120 874.5 192 c 128,-1,50
 959 264 959 264 959 408 c 0,39,40
EndSplineSet
EndChar

StartChar: uni0223
Encoding: 547 547 483
Width: 1158
Flags: W
LayerCount: 2
Fore
SplineSet
579 -20 m 0,0,1
 349 -20 349 -20 222 96 c 128,-1,2
 95 212 95 212 95 424 c 0,3,4
 95 568 95 568 171 667.5 c 128,-1,5
 247 767 247 767 377 799 c 1,6,-1
 377 803 l 1,7,8
 266 834 266 834 202 921 c 128,-1,9
 138 1008 138 1008 138 1136 c 0,10,11
 138 1248 138 1248 199.5 1335 c 128,-1,12
 261 1422 261 1422 400 1490 c 1,13,-1
 473 1377 l 1,14,15
 400 1342 400 1342 359.5 1279 c 128,-1,16
 319 1216 319 1216 319 1135 c 0,17,18
 319 1009 319 1009 387.5 941.5 c 128,-1,19
 456 874 456 874 581 874 c 256,20,21
 706 874 706 874 775 942 c 128,-1,22
 844 1010 844 1010 844 1135 c 0,23,24
 844 1216 844 1216 803.5 1279 c 128,-1,25
 763 1342 763 1342 690 1377 c 1,26,-1
 763 1490 l 1,27,28
 902 1422 902 1422 963.5 1335 c 128,-1,29
 1025 1248 1025 1248 1025 1136 c 0,30,31
 1025 1009 1025 1009 961.5 922 c 128,-1,32
 898 835 898 835 786 803 c 1,33,-1
 786 799 l 1,34,35
 916 768 916 768 992 667.5 c 128,-1,36
 1068 567 1068 567 1068 424 c 0,37,38
 1068 211 1068 211 939.5 95.5 c 128,-1,39
 811 -20 811 -20 579 -20 c 0,0,1
582 121 m 0,40,41
 887 121 887 121 887 439 c 0,42,43
 887 569 887 569 804.5 656 c 128,-1,44
 722 743 722 743 581 743 c 0,45,46
 442 743 442 743 359 659.5 c 128,-1,47
 276 576 276 576 276 439 c 0,48,49
 276 121 276 121 582 121 c 0,40,41
EndSplineSet
EndChar

StartChar: uni0224
Encoding: 548 548 484
Width: 1251
Flags: W
LayerCount: 2
Fore
SplineSet
1199 -101 m 0,0,1
 1199 -176 1199 -176 1182 -255 c 1,2,-1
 1027 -221 l 1,3,4
 1045 -165 1045 -165 1045 -133 c 0,5,6
 1045 -62 1045 -62 1009.5 -31 c 128,-1,7
 974 0 974 0 897 0 c 2,8,-1
 65 0 l 1,9,-1
 65 143 l 1,10,-1
 923 1253 l 1,11,-1
 138 1253 l 1,12,-1
 138 1409 l 1,13,-1
 1140 1409 l 1,14,-1
 1140 1270 l 1,15,-1
 282 156 l 1,16,-1
 918 156 l 2,17,18
 1050 156 1050 156 1124.5 90.5 c 128,-1,19
 1199 25 1199 25 1199 -101 c 0,0,1
EndSplineSet
EndChar

StartChar: uni0225
Encoding: 549 549 485
Width: 1024
Flags: W
LayerCount: 2
Fore
SplineSet
49 0 m 1,0,-1
 49 137 l 1,1,-1
 710 943 l 1,2,-1
 89 943 l 1,3,-1
 89 1082 l 1,4,-1
 913 1082 l 1,5,-1
 913 945 l 1,6,-1
 251 139 l 1,7,-1
 698 139 l 2,8,9
 845 139 845 139 912 83 c 128,-1,10
 979 27 979 27 979 -88 c 0,11,12
 979 -162 979 -162 960 -245 c 1,13,-1
 805 -211 l 1,14,15
 825 -160 825 -160 825 -123 c 0,16,17
 825 0 825 0 677 0 c 2,18,-1
 49 0 l 1,0,-1
EndSplineSet
EndChar

StartChar: uni0234
Encoding: 564 564 500
Width: 715
Flags: W
LayerCount: 2
Fore
SplineSet
318 1484 m 1,0,-1
 318 63 l 1,1,2
 386 87 386 87 445 87 c 0,3,4
 573 87 573 87 643 19.5 c 128,-1,5
 713 -48 713 -48 713 -167 c 0,6,7
 713 -292 713 -292 634 -358.5 c 128,-1,8
 555 -425 555 -425 444 -425 c 0,9,10
 352 -425 352 -425 283.5 -380 c 128,-1,11
 215 -335 215 -335 180 -236 c 1,12,13
 141 -283 141 -283 101.5 -331 c 128,-1,14
 62 -379 62 -379 23 -426 c 1,15,-1
 -87 -309 l 1,16,17
 -23 -220 -23 -220 34.5 -151.5 c 128,-1,18
 92 -83 92 -83 141 -40 c 1,19,20
 138 16 138 16 138 68 c 2,21,-1
 138 1484 l 1,22,-1
 318 1484 l 1,0,-1
558 -171 m 0,23,24
 558 -123 558 -123 529.5 -90.5 c 128,-1,25
 501 -58 501 -58 443 -58 c 0,26,27
 405 -58 405 -58 374 -72.5 c 128,-1,28
 343 -87 343 -87 311 -107 c 1,29,30
 311 -187 311 -187 346.5 -234 c 128,-1,31
 382 -281 382 -281 443 -281 c 0,32,33
 495 -281 495 -281 526.5 -252.5 c 128,-1,34
 558 -224 558 -224 558 -171 c 0,23,24
EndSplineSet
EndChar

StartChar: uni0235
Encoding: 565 565 501
Width: 1402
Flags: W
LayerCount: 2
Fore
SplineSet
825 686 m 2,0,1
 825 827 825 827 780 895 c 128,-1,2
 735 963 735 963 602 963 c 0,3,4
 472 963 472 963 397 874 c 128,-1,5
 322 785 322 785 322 627 c 2,6,-1
 322 0 l 1,7,-1
 142 0 l 1,8,-1
 142 851 l 2,9,10
 142 946 142 946 140.5 1003.5 c 128,-1,11
 139 1061 139 1061 136 1082 c 1,12,-1
 306 1082 l 2,13,14
 307 1079 307 1079 308 1059.5 c 128,-1,15
 309 1040 309 1040 310.5 1000.5 c 128,-1,16
 312 961 312 961 314 897 c 1,17,-1
 317 897 l 1,18,19
 379 1009 379 1009 460.5 1055.5 c 128,-1,20
 542 1102 542 1102 663 1102 c 0,21,22
 841 1102 841 1102 923.5 1013.5 c 128,-1,23
 1006 925 1006 925 1006 721 c 2,24,-1
 1006 63 l 1,25,26
 1040 75 1040 75 1072 81 c 128,-1,27
 1104 87 1104 87 1133 87 c 0,28,29
 1258 87 1258 87 1327 20.5 c 128,-1,30
 1396 -46 1396 -46 1396 -167 c 0,31,32
 1396 -292 1396 -292 1317 -358.5 c 128,-1,33
 1238 -425 1238 -425 1127 -425 c 0,34,35
 1035 -425 1035 -425 969 -377.5 c 128,-1,36
 903 -330 903 -330 863 -236 c 1,37,-1
 706 -426 l 1,38,-1
 596 -309 l 1,39,40
 657 -224 657 -224 716 -154.5 c 128,-1,41
 775 -85 775 -85 829 -37 c 1,42,43
 825 7 825 7 825 55 c 2,44,-1
 825 686 l 2,0,1
1241 -171 m 0,45,46
 1241 -123 1241 -123 1212.5 -90.5 c 128,-1,47
 1184 -58 1184 -58 1126 -58 c 0,48,49
 1088 -58 1088 -58 1057 -72.5 c 128,-1,50
 1026 -87 1026 -87 994 -107 c 1,51,52
 994 -187 994 -187 1029.5 -234 c 128,-1,53
 1065 -281 1065 -281 1126 -281 c 0,54,55
 1178 -281 1178 -281 1209.5 -252.5 c 128,-1,56
 1241 -224 1241 -224 1241 -171 c 0,45,46
EndSplineSet
EndChar

StartChar: uni0236
Encoding: 566 566 502
Width: 752
Flags: W
LayerCount: 2
Fore
SplineSet
31 951 m 1,0,-1
 31 1082 l 1,1,-1
 163 1082 l 1,2,-1
 216 1324 l 1,3,-1
 336 1324 l 1,4,-1
 336 1082 l 1,5,-1
 536 1082 l 1,6,-1
 536 951 l 1,7,-1
 336 951 l 1,8,-1
 336 468 l 1,9,10
 370 480 370 480 402 486 c 128,-1,11
 434 492 434 492 463 492 c 0,12,13
 590 492 590 492 658.5 424.5 c 128,-1,14
 727 357 727 357 727 238 c 0,15,16
 727 115 727 115 648.5 47.5 c 128,-1,17
 570 -20 570 -20 458 -20 c 0,18,19
 366 -20 366 -20 297 26 c 128,-1,20
 228 72 228 72 194 169 c 1,21,-1
 37 -21 l 1,22,-1
 -73 96 l 1,23,24
 -12 181 -12 181 47 248 c 128,-1,25
 106 315 106 315 160 363 c 1,26,27
 158 381 158 381 157 398.5 c 128,-1,28
 156 416 156 416 156 434 c 2,29,-1
 156 951 l 1,30,-1
 31 951 l 1,0,-1
572 234 m 0,31,32
 572 282 572 282 543.5 314.5 c 128,-1,33
 515 347 515 347 457 347 c 0,34,35
 419 347 419 347 390 332.5 c 128,-1,36
 361 318 361 318 329 298 c 1,37,38
 329 214 329 214 363 169 c 128,-1,39
 397 124 397 124 457 124 c 0,40,41
 509 124 509 124 540.5 152.5 c 128,-1,42
 572 181 572 181 572 234 c 0,31,32
EndSplineSet
EndChar

StartChar: uni0237
Encoding: 567 567 503
Width: 455
Flags: W
LayerCount: 2
Fore
SplineSet
77 -425 m 0,0,1
 -1 -425 -1 -425 -50 -416 c 1,2,-1
 -50 -277 l 1,3,4
 -34 -279 -34 -279 -19 -281 c 128,-1,5
 -4 -283 -4 -283 12 -283 c 0,6,7
 81 -283 81 -283 109 -247 c 128,-1,8
 137 -211 137 -211 137 -107 c 2,9,-1
 137 1082 l 1,10,-1
 317 1082 l 1,11,-1
 317 -134 l 2,12,13
 317 -287 317 -287 257 -356 c 128,-1,14
 197 -425 197 -425 77 -425 c 0,0,1
EndSplineSet
EndChar

StartChar: uni0238
Encoding: 568 568 504
Width: 1816
Flags: W
LayerCount: 2
Fore
SplineSet
1733 546 m 0,0,1
 1733 263 1733 263 1633.5 121.5 c 128,-1,2
 1534 -20 1534 -20 1335 -20 c 0,3,4
 1211 -20 1211 -20 1124.5 29 c 128,-1,5
 1038 78 1038 78 988 175 c 1,6,-1
 986 175 l 1,7,-1
 986 0 l 1,8,-1
 822 0 l 1,9,-1
 822 174 l 1,10,-1
 818 174 l 1,11,12
 768 70 768 70 685.5 25 c 128,-1,13
 603 -20 603 -20 481 -20 c 0,14,15
 276 -20 276 -20 179.5 118 c 128,-1,16
 83 256 83 256 83 536 c 0,17,18
 83 819 83 819 182.5 960.5 c 128,-1,19
 282 1102 282 1102 481 1102 c 0,20,21
 604 1102 604 1102 687.5 1057 c 128,-1,22
 771 1012 771 1012 821 914 c 1,23,-1
 823 914 l 1,24,25
 821 952 821 952 819.5 990 c 128,-1,26
 818 1028 818 1028 818 1066 c 2,27,-1
 818 1484 l 1,28,-1
 998 1484 l 1,29,-1
 998 1061 l 2,30,31
 998 1029 998 1029 997 990.5 c 128,-1,32
 996 952 996 952 994 908 c 1,33,-1
 998 908 l 1,34,35
 1048 1012 1048 1012 1130.5 1057 c 128,-1,36
 1213 1102 1213 1102 1335 1102 c 0,37,38
 1540 1102 1540 1102 1636.5 964 c 128,-1,39
 1733 826 1733 826 1733 546 c 0,0,1
272 542 m 0,40,41
 272 315 272 315 332 217 c 128,-1,42
 392 119 392 119 527 119 c 0,43,44
 680 119 680 119 749 225 c 128,-1,45
 818 331 818 331 818 554 c 0,46,47
 818 769 818 769 749 869 c 128,-1,48
 680 969 680 969 529 969 c 0,49,50
 393 969 393 969 332.5 868.5 c 128,-1,51
 272 768 272 768 272 542 c 0,40,41
1544 540 m 0,52,53
 1544 767 1544 767 1484 865 c 128,-1,54
 1424 963 1424 963 1289 963 c 0,55,56
 1137 963 1137 963 1067.5 859 c 128,-1,57
 998 755 998 755 998 529 c 0,58,59
 998 316 998 316 1066 214.5 c 128,-1,60
 1134 113 1134 113 1287 113 c 0,61,62
 1423 113 1423 113 1483.5 213.5 c 128,-1,63
 1544 314 1544 314 1544 540 c 0,52,53
EndSplineSet
EndChar

StartChar: uni0239
Encoding: 569 569 505
Width: 1816
Flags: W
LayerCount: 2
Fore
SplineSet
1733 544 m 0,0,1
 1733 262 1733 262 1633.5 121 c 128,-1,2
 1534 -20 1534 -20 1335 -20 c 0,3,4
 1210 -20 1210 -20 1126 27 c 128,-1,5
 1042 74 1042 74 999 168 c 1,6,-1
 994 168 l 1,7,8
 996 164 996 164 997 121.5 c 128,-1,9
 998 79 998 79 998 -2 c 2,10,-1
 998 -425 l 1,11,-1
 818 -425 l 1,12,-1
 818 -9 l 2,13,14
 818 35 818 35 819.5 79.5 c 128,-1,15
 821 124 821 124 822 168 c 1,16,-1
 818 168 l 1,17,18
 766 65 766 65 689.5 22.5 c 128,-1,19
 613 -20 613 -20 481 -20 c 0,20,21
 275 -20 275 -20 179 118 c 128,-1,22
 83 256 83 256 83 534 c 0,23,24
 83 817 83 817 182.5 958.5 c 128,-1,25
 282 1100 282 1100 481 1100 c 0,26,27
 606 1100 606 1100 686.5 1056 c 128,-1,28
 767 1012 767 1012 820 912 c 1,29,-1
 820 1082 l 1,30,-1
 996 1082 l 1,31,-1
 996 906 l 1,32,33
 1044 1006 1044 1006 1125 1052.5 c 128,-1,34
 1206 1099 1206 1099 1335 1099 c 0,35,36
 1535 1099 1535 1099 1634 965 c 128,-1,37
 1733 831 1733 831 1733 544 c 0,0,1
818 552 m 0,38,39
 818 763 818 763 749 865 c 128,-1,40
 680 967 680 967 529 967 c 0,41,42
 392 967 392 967 332 865 c 128,-1,43
 272 763 272 763 272 540 c 0,44,45
 272 315 272 315 332 217 c 128,-1,46
 392 119 392 119 527 119 c 0,47,48
 682 119 682 119 750 227.5 c 128,-1,49
 818 336 818 336 818 552 c 0,38,39
1544 540 m 0,50,51
 1544 766 1544 766 1483 863 c 128,-1,52
 1422 960 1422 960 1289 960 c 0,53,54
 1134 960 1134 960 1066 857.5 c 128,-1,55
 998 755 998 755 998 526 c 0,56,57
 998 313 998 313 1066.5 213 c 128,-1,58
 1135 113 1135 113 1287 113 c 0,59,60
 1422 113 1422 113 1483 211.5 c 128,-1,61
 1544 310 1544 310 1544 540 c 0,50,51
EndSplineSet
EndChar

StartChar: uni023A
Encoding: 570 570 506
Width: 1366
Flags: W
LayerCount: 2
Fore
SplineSet
607 412 m 1,0,-1
 289 -107 l 1,1,-1
 127 -107 l 1,2,-1
 192 0 l 1,3,-1
 4 0 l 1,4,-1
 579 1409 l 1,5,-1
 796 1409 l 1,6,-1
 898 1154 l 1,7,-1
 1119 1514 l 1,8,-1
 1281 1514 l 1,9,-1
 963 994 l 1,10,-1
 1362 0 l 1,11,-1
 1167 0 l 1,12,-1
 1006 412 l 1,13,-1
 607 412 l 1,0,-1
422 561 m 1,14,-1
 535 561 l 1,15,-1
 788 974 l 1,16,-1
 685 1265 l 1,17,-1
 422 561 l 1,14,-1
698 561 m 1,18,-1
 949 561 l 1,19,-1
 851 812 l 1,20,-1
 698 561 l 1,18,-1
364 412 m 1,21,-1
 219 43 l 1,22,-1
 444 412 l 1,23,-1
 364 412 l 1,21,-1
EndSplineSet
EndChar

StartChar: uni023B
Encoding: 571 571 507
Width: 1479
Flags: W
LayerCount: 2
Fore
SplineSet
342 123 m 1,0,1
 223 221 223 221 163.5 372 c 128,-1,2
 104 523 104 523 104 711 c 0,3,4
 104 936 104 936 186 1097 c 128,-1,5
 268 1258 268 1258 422 1344 c 128,-1,6
 576 1430 576 1430 790 1430 c 0,7,8
 953 1430 953 1430 1081 1381 c 1,9,-1
 1159 1514 l 1,10,-1
 1321 1514 l 1,11,-1
 1205 1316 l 1,12,13
 1327 1229 1327 1229 1388 1081 c 1,14,-1
 1207 1021 l 1,15,16
 1176 1099 1176 1099 1113 1160 c 1,17,-1
 549 199 l 1,18,19
 662 137 662 137 800 137 c 0,20,21
 948 137 948 137 1059.5 210.5 c 128,-1,22
 1171 284 1171 284 1245 430 c 1,23,-1
 1401 352 l 1,24,25
 1314 170 1314 170 1156.5 75 c 128,-1,26
 999 -20 999 -20 791 -20 c 0,27,28
 605 -20 605 -20 460 48 c 1,29,-1
 369 -107 l 1,30,-1
 207 -107 l 1,31,-1
 342 123 l 1,0,1
792 1274 m 0,32,33
 558 1274 558 1274 428 1123.5 c 128,-1,34
 298 973 298 973 298 711 c 0,35,36
 298 444 298 444 439 289 c 1,37,-1
 996 1236 l 1,38,39
 903 1274 903 1274 792 1274 c 0,32,33
EndSplineSet
EndChar

StartChar: uni023C
Encoding: 572 572 508
Width: 1024
Flags: W
LayerCount: 2
Fore
SplineSet
239 89 m 1,0,1
 87 233 87 233 87 542 c 0,2,3
 87 815 87 815 207 958.5 c 128,-1,4
 327 1102 327 1102 551 1102 c 0,5,6
 626 1102 626 1102 684 1086 c 1,7,-1
 862 1484 l 1,8,-1
 1004 1484 l 1,9,-1
 803 1033 l 1,10,11
 932 947 932 947 964 779 c 1,12,-1
 779 765 l 1,13,14
 769 833 769 833 734 879 c 1,15,-1
 412 157 l 1,16,17
 468 122 468 122 548 122 c 0,18,19
 644 122 644 122 708.5 174 c 128,-1,20
 773 226 773 226 788 334 c 1,21,-1
 970 322 l 1,22,23
 956 218 956 218 900.5 141 c 128,-1,24
 845 64 845 64 756.5 22 c 128,-1,25
 668 -20 668 -20 553 -20 c 0,26,27
 436 -20 436 -20 349 17 c 1,28,-1
 152 -425 l 1,29,-1
 10 -425 l 1,30,-1
 239 89 l 1,0,1
275 546 m 0,31,32
 275 370 275 370 320 269 c 1,33,-1
 624 951 l 1,34,35
 591 961 591 961 546 961 c 0,36,37
 403 961 403 961 339 866 c 128,-1,38
 275 771 275 771 275 546 c 0,31,32
EndSplineSet
EndChar

StartChar: uni023D
Encoding: 573 573 509
Width: 1139
Flags: W
LayerCount: 2
Fore
SplineSet
26 810 m 1,0,-1
 168 810 l 1,1,-1
 168 1409 l 1,2,-1
 359 1409 l 1,3,-1
 359 810 l 1,4,-1
 758 810 l 1,5,-1
 758 654 l 1,6,-1
 359 654 l 1,7,-1
 359 156 l 1,8,-1
 1071 156 l 1,9,-1
 1071 0 l 1,10,-1
 168 0 l 1,11,-1
 168 654 l 1,12,-1
 26 654 l 1,13,-1
 26 810 l 1,0,-1
EndSplineSet
EndChar

StartChar: uni023E
Encoding: 574 574 510
Width: 1251
Flags: W
LayerCount: 2
Fore
SplineSet
530 417 m 1,0,-1
 209 -107 l 1,1,-1
 47 -107 l 1,2,-1
 530 682 l 1,3,-1
 530 1253 l 1,4,-1
 46 1253 l 1,5,-1
 46 1409 l 1,6,-1
 974 1409 l 1,7,-1
 1039 1514 l 1,8,-1
 1201 1514 l 1,9,-1
 1137 1409 l 1,10,-1
 1204 1409 l 1,11,-1
 1204 1253 l 1,12,-1
 1041 1253 l 1,13,-1
 720 728 l 1,14,-1
 720 0 l 1,15,-1
 530 0 l 1,16,-1
 530 417 l 1,0,-1
720 1253 m 1,17,-1
 720 993 l 1,18,-1
 879 1253 l 1,19,-1
 720 1253 l 1,17,-1
EndSplineSet
EndChar

StartChar: uni023F
Encoding: 575 575 511
Width: 1024
Flags: W
LayerCount: 2
Fore
SplineSet
71 179 m 1,0,-1
 204 266 l 1,1,2
 261 178 261 178 327.5 147.5 c 128,-1,3
 394 117 394 117 511 117 c 0,4,5
 648 117 648 117 711.5 159 c 128,-1,6
 775 201 775 201 775 285 c 0,7,8
 775 349 775 349 731 389 c 128,-1,9
 687 429 687 429 589 455 c 0,10,11
 473 486 473 486 404.5 506 c 128,-1,12
 336 526 336 526 299 540.5 c 128,-1,13
 262 555 262 555 240 568 c 0,14,15
 174 606 174 606 137 661 c 128,-1,16
 100 716 100 716 100 796 c 0,17,18
 100 944 100 944 205.5 1021.5 c 128,-1,19
 311 1099 311 1099 513 1099 c 0,20,21
 692 1099 692 1099 797.5 1036 c 128,-1,22
 903 973 903 973 931 834 c 1,23,-1
 769 814 l 1,24,25
 754 886 754 886 688.5 924.5 c 128,-1,26
 623 963 623 963 513 963 c 0,27,28
 391 963 391 963 333 926 c 128,-1,29
 275 889 275 889 275 814 c 0,30,31
 275 768 275 768 299 738 c 128,-1,32
 323 708 323 708 370 687 c 0,33,34
 393 677 393 677 445.5 662 c 128,-1,35
 498 647 498 647 562 630 c 128,-1,36
 626 613 626 613 683.5 595.5 c 128,-1,37
 741 578 741 578 774 563 c 0,38,39
 866 518 866 518 908 455.5 c 128,-1,40
 950 393 950 393 950 299 c 0,41,42
 950 146 950 146 834.5 63 c 128,-1,43
 719 -20 719 -20 511 -20 c 0,44,45
 475 -20 475 -20 408 -10 c 1,46,-1
 603 -220 l 2,47,48
 630 -249 630 -249 664.5 -261 c 128,-1,49
 699 -273 699 -273 726 -273 c 0,50,51
 760 -273 760 -273 787 -259 c 128,-1,52
 814 -245 814 -245 843 -212 c 1,53,-1
 939 -325 l 1,54,55
 883 -384 883 -384 831.5 -405 c 128,-1,56
 780 -426 780 -426 724 -426 c 0,57,58
 647 -426 647 -426 577 -387.5 c 128,-1,59
 507 -349 507 -349 444 -272 c 0,60,61
 409 -231 409 -231 373.5 -189.5 c 128,-1,62
 338 -148 338 -148 303 -107 c 0,63,64
 266 -66 266 -66 231.5 -24.5 c 128,-1,65
 197 17 197 17 163 59 c 0,66,67
 125 108 125 108 102 138 c 128,-1,68
 79 168 79 168 71 179 c 1,0,-1
EndSplineSet
EndChar

StartChar: uni0240
Encoding: 576 576 512
Width: 1024
Flags: W
LayerCount: 2
Fore
SplineSet
49 0 m 1,0,-1
 49 139 l 1,1,-1
 710 943 l 1,2,-1
 89 943 l 1,3,-1
 89 1082 l 1,4,-1
 913 1082 l 1,5,-1
 913 945 l 1,6,-1
 245 139 l 1,7,8
 276 139 276 139 304.5 136.5 c 128,-1,9
 333 134 333 134 354 128 c 0,10,11
 386 120 386 120 414.5 101 c 128,-1,12
 443 82 443 82 484 38.5 c 128,-1,13
 525 -5 525 -5 595 -88 c 0,14,15
 666 -172 666 -172 716.5 -213 c 128,-1,16
 767 -254 767 -254 806 -266.5 c 128,-1,17
 845 -279 845 -279 880 -279 c 0,18,19
 906 -279 906 -279 941.5 -271 c 128,-1,20
 977 -263 977 -263 1007 -245 c 1,21,-1
 1007 -376 l 1,22,23
 936 -426 936 -426 845 -426 c 0,24,25
 800 -426 800 -426 763 -417 c 128,-1,26
 726 -408 726 -408 699 -395 c 0,27,28
 679 -385 679 -385 652.5 -366 c 128,-1,29
 626 -347 626 -347 598.5 -321.5 c 128,-1,30
 571 -296 571 -296 548 -269 c 2,31,-1
 388 -76 l 2,32,33
 351 -32 351 -32 317 -16 c 128,-1,34
 283 0 283 0 205 0 c 2,35,-1
 49 0 l 1,0,-1
EndSplineSet
EndChar

StartChar: uni0241
Encoding: 577 577 513
Width: 1189
Flags: W
LayerCount: 2
Fore
SplineSet
445 0 m 1,0,-1
 445 536 l 1,1,2
 499 522 499 522 572 522 c 0,3,4
 742 522 742 522 827 618 c 128,-1,5
 912 714 912 714 912 906 c 0,6,7
 912 1104 912 1104 825.5 1196.5 c 128,-1,8
 739 1289 739 1289 559 1289 c 0,9,10
 427 1289 427 1289 342.5 1230.5 c 128,-1,11
 258 1172 258 1172 232 1054 c 1,12,-1
 51 1083 l 1,13,14
 87 1248 87 1248 219.5 1339 c 128,-1,15
 352 1430 352 1430 563 1430 c 0,16,17
 824 1430 824 1430 962 1296.5 c 128,-1,18
 1100 1163 1100 1163 1100 902 c 0,19,20
 1100 746 1100 746 1042.5 631 c 128,-1,21
 985 516 985 516 878.5 451 c 128,-1,22
 772 386 772 386 625 380 c 1,23,-1
 625 0 l 1,24,-1
 445 0 l 1,0,-1
EndSplineSet
EndChar

StartChar: uni0242
Encoding: 578 578 514
Width: 928
Flags: W
LayerCount: 2
Fore
SplineSet
354 0 m 1,0,-1
 354 432 l 1,1,2
 497 432 497 432 578.5 504 c 128,-1,3
 660 576 660 576 660 699 c 0,4,5
 660 832 660 832 605.5 896.5 c 128,-1,6
 551 961 551 961 424 961 c 0,7,8
 329 961 329 961 274 912 c 128,-1,9
 219 863 219 863 205 765 c 1,10,-1
 20 779 l 1,11,12
 46 929 46 929 153.5 1015.5 c 128,-1,13
 261 1102 261 1102 424 1102 c 0,14,15
 629 1102 629 1102 738.5 997 c 128,-1,16
 848 892 848 892 848 697 c 0,17,18
 848 554 848 554 766.5 453 c 128,-1,19
 685 352 685 352 534 314 c 1,20,-1
 534 0 l 1,21,-1
 354 0 l 1,0,-1
EndSplineSet
EndChar

StartChar: uni0243
Encoding: 579 579 515
Width: 1366
Flags: W
LayerCount: 2
Fore
SplineSet
1258 397 m 0,0,1
 1258 209 1258 209 1121 104.5 c 128,-1,2
 984 0 984 0 740 0 c 2,3,-1
 168 0 l 1,4,-1
 168 341 l 1,5,-1
 33 341 l 1,6,-1
 33 474 l 1,7,-1
 168 474 l 1,8,-1
 168 1409 l 1,9,-1
 680 1409 l 2,10,11
 1176 1409 1176 1409 1176 1067 c 0,12,13
 1176 942 1176 942 1106 857 c 128,-1,14
 1036 772 1036 772 908 743 c 1,15,16
 1076 723 1076 723 1167 630.5 c 128,-1,17
 1258 538 1258 538 1258 397 c 0,0,1
984 1044 m 0,18,19
 984 1158 984 1158 906 1207 c 128,-1,20
 828 1256 828 1256 680 1256 c 2,21,-1
 359 1256 l 1,22,-1
 359 810 l 1,23,-1
 680 810 l 2,24,25
 833 810 833 810 908.5 867.5 c 128,-1,26
 984 925 984 925 984 1044 c 0,18,19
1065 412 m 0,27,28
 1065 661 1065 661 715 661 c 2,29,-1
 359 661 l 1,30,-1
 359 474 l 1,31,-1
 707 474 l 1,32,-1
 707 341 l 1,33,-1
 359 341 l 1,34,-1
 359 153 l 1,35,-1
 730 153 l 2,36,37
 905 153 905 153 985 218 c 128,-1,38
 1065 283 1065 283 1065 412 c 0,27,28
EndSplineSet
EndChar

StartChar: uni0244
Encoding: 580 580 516
Width: 1479
Flags: W
LayerCount: 2
Fore
SplineSet
1321 530 m 2,0,1
 1321 359 1321 359 1248.5 236 c 128,-1,2
 1176 113 1176 113 1043.5 46.5 c 128,-1,3
 911 -20 911 -20 731 -20 c 0,4,5
 558 -20 558 -20 429 44 c 128,-1,6
 300 108 300 108 229 227 c 128,-1,7
 158 346 158 346 158 512 c 2,8,-1
 158 656 l 1,9,-1
 41 656 l 1,10,-1
 41 809 l 1,11,-1
 158 809 l 1,12,-1
 158 1409 l 1,13,-1
 349 1409 l 1,14,-1
 349 809 l 1,15,-1
 1131 809 l 1,16,-1
 1131 1409 l 1,17,-1
 1321 1409 l 1,18,-1
 1321 809 l 1,19,-1
 1438 809 l 1,20,-1
 1438 656 l 1,21,-1
 1321 656 l 1,22,-1
 1321 530 l 2,0,1
730 135 m 0,23,24
 920 135 920 135 1025.5 238.5 c 128,-1,25
 1131 342 1131 342 1131 541 c 2,26,-1
 1131 656 l 1,27,-1
 349 656 l 1,28,-1
 349 528 l 2,29,30
 349 335 349 335 447 235 c 128,-1,31
 545 135 545 135 730 135 c 0,23,24
EndSplineSet
EndChar

StartChar: uni0245
Encoding: 581 581 517
Width: 1368
Flags: W
LayerCount: 2
Fore
SplineSet
1357 0 m 1,0,-1
 1156 0 l 1,1,-1
 766 992 l 2,2,3
 742 1054 742 1054 722.5 1116.5 c 128,-1,4
 703 1179 703 1179 682 1241 c 1,5,6
 668 1200 668 1200 655 1158 c 128,-1,7
 642 1116 642 1116 628 1074.5 c 128,-1,8
 614 1033 614 1033 598 992 c 2,9,-1
 210 0 l 1,10,-1
 9 0 l 1,11,-1
 584 1409 l 1,12,-1
 782 1409 l 1,13,-1
 1357 0 l 1,0,-1
EndSplineSet
EndChar

StartChar: uni0246
Encoding: 582 582 518
Width: 1366
Flags: W
LayerCount: 2
Fore
SplineSet
230 -224 m 1,0,-1
 337 0 l 1,1,-1
 168 0 l 1,2,-1
 168 1409 l 1,3,-1
 1012 1409 l 1,4,-1
 1082 1554 l 1,5,-1
 1224 1554 l 1,6,-1
 1154 1409 l 1,7,-1
 1237 1409 l 1,8,-1
 1237 1253 l 1,9,-1
 1080 1253 l 1,10,-1
 863 801 l 1,11,-1
 1177 801 l 1,12,-1
 1177 647 l 1,13,-1
 789 647 l 1,14,-1
 554 156 l 1,15,-1
 1278 156 l 1,16,-1
 1278 0 l 1,17,-1
 480 0 l 1,18,-1
 373 -224 l 1,19,-1
 230 -224 l 1,0,-1
359 801 m 1,20,-1
 721 801 l 1,21,-1
 938 1253 l 1,22,-1
 359 1253 l 1,23,-1
 359 801 l 1,20,-1
359 647 m 1,24,-1
 359 156 l 1,25,-1
 412 156 l 1,26,-1
 647 647 l 1,27,-1
 359 647 l 1,24,-1
EndSplineSet
EndChar

StartChar: uni0247
Encoding: 583 583 519
Width: 1139
Flags: W
LayerCount: 2
Fore
SplineSet
578 -20 m 0,0,1
 483 -20 483 -20 402 3 c 1,2,-1
 211 -424 l 1,3,-1
 68 -424 l 1,4,-1
 284 59 l 1,5,6
 87 194 87 194 87 548 c 0,7,8
 87 816 87 816 212.5 959 c 128,-1,9
 338 1102 338 1102 571 1102 c 0,10,11
 667 1102 667 1102 739 1080 c 1,12,-1
 920 1484 l 1,13,-1
 1062 1484 l 1,14,-1
 857 1024 l 1,15,16
 1048 887 1048 887 1048 527 c 2,17,-1
 1048 503 l 1,18,-1
 624 503 l 1,19,-1
 460 135 l 1,20,21
 514 115 514 115 578 115 c 0,22,23
 695 115 695 115 765.5 162 c 128,-1,24
 836 209 836 209 861 281 c 1,25,-1
 1019 236 l 1,26,27
 970 108 970 108 860 44 c 128,-1,28
 750 -20 750 -20 578 -20 c 0,0,1
543 641 m 1,29,-1
 682 951 l 1,30,31
 631 969 631 969 568 969 c 0,32,33
 437 969 437 969 360.5 881.5 c 128,-1,34
 284 794 284 794 278 641 c 1,35,-1
 543 641 l 1,29,-1
862 641 m 1,36,37
 848 793 848 793 789 873 c 1,38,-1
 686 641 l 1,39,-1
 862 641 l 1,36,37
276 503 m 1,40,41
 276 316 276 316 353 215 c 1,42,-1
 482 503 l 1,43,-1
 276 503 l 1,40,41
EndSplineSet
EndChar

StartChar: uni0248
Encoding: 584 584 520
Width: 1024
Flags: W
LayerCount: 2
Fore
SplineSet
457 -20 m 0,0,1
 278 -20 278 -20 172 72.5 c 128,-1,2
 66 165 66 165 32 350 c 1,3,-1
 219 381 l 1,4,5
 237 265 237 265 300 200 c 128,-1,6
 363 135 363 135 458 135 c 0,7,8
 562 135 562 135 622 206.5 c 128,-1,9
 682 278 682 278 682 416 c 2,10,-1
 682 657 l 1,11,-1
 420 657 l 1,12,-1
 420 809 l 1,13,-1
 682 809 l 1,14,-1
 682 1409 l 5,15,-1
 872 1409 l 1,16,-1
 872 809 l 1,17,-1
 1007 809 l 1,18,-1
 1007 657 l 1,19,-1
 872 657 l 1,20,-1
 872 420 l 2,21,22
 872 215 872 215 761 97.5 c 128,-1,23
 650 -20 650 -20 457 -20 c 0,0,1
EndSplineSet
EndChar

StartChar: uni0249
Encoding: 585 585 521
Width: 455
Flags: W
LayerCount: 2
Fore
SplineSet
317 1484 m 1,0,-1
 317 1312 l 1,1,-1
 137 1312 l 1,2,-1
 137 1484 l 1,3,-1
 317 1484 l 1,0,-1
77 -425 m 0,4,5
 -1 -425 -1 -425 -50 -416 c 1,6,-1
 -50 -277 l 1,7,8
 -34 -278 -34 -278 -19 -280.5 c 128,-1,9
 -4 -283 -4 -283 12 -283 c 0,10,11
 81 -283 81 -283 109 -247 c 128,-1,12
 137 -211 137 -211 137 -107 c 2,13,-1
 137 484 l 1,14,-1
 25 484 l 1,15,-1
 25 617 l 1,16,-1
 137 617 l 1,17,-1
 137 1082 l 1,18,-1
 317 1082 l 1,19,-1
 317 617 l 1,20,-1
 428 617 l 1,21,-1
 428 484 l 1,22,-1
 317 484 l 1,23,-1
 317 -134 l 2,24,25
 317 -287 317 -287 257 -356 c 128,-1,26
 197 -425 197 -425 77 -425 c 0,4,5
EndSplineSet
EndChar

StartChar: uni024A
Encoding: 586 586 522
Width: 1510
Flags: W
LayerCount: 2
Fore
SplineSet
1333 -115 m 2,0,1
 1333 -196 1333 -196 1361 -229.5 c 128,-1,2
 1389 -263 1389 -263 1444 -263 c 0,3,4
 1494 -263 1494 -263 1542 -249 c 1,5,-1
 1542 -411 l 1,6,7
 1513 -418 1513 -418 1479 -421.5 c 128,-1,8
 1445 -425 1445 -425 1406 -425 c 0,9,10
 1275 -425 1275 -425 1208.5 -349.5 c 128,-1,11
 1142 -274 1142 -274 1142 -129 c 2,12,-1
 1142 71 l 1,13,14
 961 -20 961 -20 790 -20 c 0,15,16
 572 -20 572 -20 417 68 c 128,-1,17
 262 156 262 156 179.5 320 c 128,-1,18
 97 484 97 484 97 711 c 0,19,20
 97 937 97 937 180.5 1097.5 c 128,-1,21
 264 1258 264 1258 420.5 1344 c 128,-1,22
 577 1430 577 1430 797 1430 c 0,23,24
 990 1430 990 1430 1152 1353 c 1,25,-1
 1302 1409 l 1,26,-1
 1333 1409 l 1,27,-1
 1333 -115 l 2,0,1
790 133 m 0,28,29
 907 133 907 133 995 158.5 c 128,-1,30
 1083 184 1083 184 1142 236 c 1,31,-1
 1142 1177 l 1,32,33
 1084 1227 1084 1227 998 1252 c 128,-1,34
 912 1277 912 1277 797 1277 c 0,35,36
 556 1277 556 1277 423.5 1128.5 c 128,-1,37
 291 980 291 980 291 711 c 0,38,39
 291 531 291 531 351.5 401.5 c 128,-1,40
 412 272 412 272 524 202.5 c 128,-1,41
 636 133 636 133 790 133 c 0,28,29
EndSplineSet
EndChar

StartChar: uni024B
Encoding: 587 587 523
Width: 1139
Flags: W
LayerCount: 2
Fore
SplineSet
1198 -413 m 1,0,1
 1173 -419 1173 -419 1142 -422 c 128,-1,2
 1111 -425 1111 -425 1074 -425 c 0,3,4
 950 -425 950 -425 885.5 -350.5 c 128,-1,5
 821 -276 821 -276 821 -129 c 2,6,-1
 825 178 l 1,7,-1
 823 178 l 1,8,9
 769 71 769 71 690 25.5 c 128,-1,10
 611 -20 611 -20 484 -20 c 0,11,12
 278 -20 278 -20 182 119 c 128,-1,13
 86 258 86 258 86 536 c 0,14,15
 86 819 86 819 185.5 960.5 c 128,-1,16
 285 1102 285 1102 484 1102 c 0,17,18
 607 1102 607 1102 687 1058.5 c 128,-1,19
 767 1015 767 1015 821 914 c 1,20,-1
 823 914 l 1,21,22
 823 934 823 934 825 976.5 c 128,-1,23
 827 1019 827 1019 830 1056 c 128,-1,24
 833 1093 833 1093 835 1096 c 2,25,-1
 1008 1096 l 1,26,27
 1004 1067 1004 1067 1002.5 993 c 128,-1,28
 1001 919 1001 919 1001 801 c 2,29,-1
 1001 -115 l 2,30,31
 1001 -196 1001 -196 1029 -229.5 c 128,-1,32
 1057 -263 1057 -263 1112 -263 c 0,33,34
 1150 -263 1150 -263 1198 -251 c 1,35,-1
 1198 -413 l 1,0,1
821 554 m 0,36,37
 821 765 821 765 752 867 c 128,-1,38
 683 969 683 969 532 969 c 0,39,40
 395 969 395 969 335 867 c 128,-1,41
 275 765 275 765 275 542 c 0,42,43
 275 315 275 315 335.5 217 c 128,-1,44
 396 119 396 119 530 119 c 0,45,46
 683 119 683 119 752 228 c 128,-1,47
 821 337 821 337 821 554 c 0,36,37
EndSplineSet
EndChar

StartChar: uni024C
Encoding: 588 588 524
Width: 1479
Flags: W
LayerCount: 2
Fore
SplineSet
359 585 m 1,0,-1
 359 0 l 1,1,-1
 168 0 l 1,2,-1
 168 585 l 1,3,-1
 0 585 l 1,4,-1
 0 735 l 1,5,-1
 168 735 l 1,6,-1
 168 1409 l 1,7,-1
 831 1409 l 2,8,9
 1069 1409 1069 1409 1198.5 1302.5 c 128,-1,10
 1328 1196 1328 1196 1328 1006 c 0,11,12
 1328 849 1328 849 1236.5 742 c 128,-1,13
 1145 635 1145 635 984 607 c 1,14,-1
 1384 0 l 1,15,-1
 1164 0 l 1,16,-1
 798 585 l 1,17,-1
 359 585 l 1,0,-1
1136 1004 m 0,18,19
 1136 1127 1136 1127 1052.5 1191.5 c 128,-1,20
 969 1256 969 1256 812 1256 c 2,21,-1
 359 1256 l 1,22,-1
 359 736 l 1,23,-1
 820 736 l 2,24,25
 971 736 971 736 1053.5 806.5 c 128,-1,26
 1136 877 1136 877 1136 1004 c 0,18,19
EndSplineSet
EndChar

StartChar: uni024D
Encoding: 589 589 525
Width: 682
Flags: W
LayerCount: 2
Fore
SplineSet
142 0 m 1,0,-1
 142 486 l 1,1,-1
 20 486 l 1,2,-1
 20 632 l 1,3,-1
 142 632 l 1,4,-1
 142 830 l 2,5,6
 142 887 142 887 140.5 950 c 128,-1,7
 139 1013 139 1013 136 1082 c 1,8,-1
 306 1082 l 1,9,10
 308 1036 308 1036 309.5 999 c 128,-1,11
 311 962 311 962 312 934.5 c 128,-1,12
 313 907 313 907 313.5 888.5 c 128,-1,13
 314 870 314 870 314 861 c 1,14,-1
 318 861 l 1,15,16
 351 968 351 968 391 1022 c 0,17,18
 424 1066 424 1066 468 1084 c 128,-1,19
 512 1102 512 1102 575 1102 c 0,20,21
 612 1102 612 1102 648 1092 c 1,22,-1
 648 927 l 1,23,24
 614 937 614 937 552 937 c 0,25,26
 449 937 449 937 392 860.5 c 128,-1,27
 335 784 335 784 324 632 c 1,28,-1
 505 632 l 1,29,-1
 505 486 l 1,30,-1
 322 486 l 1,31,-1
 322 0 l 1,32,-1
 142 0 l 1,0,-1
EndSplineSet
EndChar

StartChar: uni024E
Encoding: 590 590 526
Width: 1366
Flags: W
LayerCount: 2
Fore
SplineSet
777 584 m 1,0,-1
 777 0 l 1,1,-1
 587 0 l 1,2,-1
 587 584 l 1,3,-1
 292 1033 l 1,4,-1
 50 1033 l 1,5,-1
 50 1179 l 1,6,-1
 196 1179 l 1,7,-1
 45 1409 l 1,8,-1
 255 1409 l 1,9,-1
 402 1179 l 1,10,-1
 964 1179 l 1,11,-1
 1111 1409 l 1,12,-1
 1321 1409 l 1,13,-1
 1169 1179 l 1,14,-1
 1316 1179 l 1,15,-1
 1316 1033 l 1,16,-1
 1073 1033 l 1,17,-1
 777 584 l 1,0,-1
495 1033 m 1,18,-1
 684 738 l 1,19,-1
 871 1033 l 1,20,-1
 495 1033 l 1,18,-1
EndSplineSet
EndChar

StartChar: uni024F
Encoding: 591 591 527
Width: 1024
Flags: W
LayerCount: 2
Fore
SplineSet
604 0 m 2,0,1
 537 -173 537 -173 473.5 -265 c 128,-1,2
 410 -357 410 -357 341.5 -391 c 128,-1,3
 273 -425 273 -425 191 -425 c 0,4,5
 119 -425 119 -425 67 -414 c 1,6,-1
 67 -279 l 1,7,8
 105 -285 105 -285 151 -285 c 0,9,10
 235 -285 235 -285 301.5 -223.5 c 128,-1,11
 368 -162 368 -162 417 -38 c 2,12,-1
 434 5 l 1,13,-1
 199 595 l 1,14,-1
 37 595 l 1,15,-1
 37 741 l 1,16,-1
 141 741 l 1,17,-1
 5 1082 l 1,18,-1
 197 1082 l 1,19,-1
 327 741 l 1,20,-1
 713 741 l 1,21,-1
 830 1082 l 1,22,-1
 1020 1082 l 1,23,-1
 889 741 l 1,24,-1
 1000 741 l 1,25,-1
 1000 595 l 1,26,-1
 833 595 l 1,27,-1
 604 0 l 2,0,1
382 595 m 1,28,-1
 523 196 l 1,29,-1
 663 595 l 1,30,-1
 382 595 l 1,28,-1
EndSplineSet
EndChar

